<svg width="1200" height="630" viewBox="0 0 1200 630" xmlns="http://www.w3.org/2000/svg"><rect x="0" y="0" width="1200" height="630" fill="#fefbfb"/><defs><clipPath id="satori_bc-id-0"><path x="105" y="39" width="1056" height="504" d="M109,39 h1048 a4,4 0 0 1 4,4 v496 a4,4 0 0 1 -4,4 h-1048 a4,4 0 0 1 -4,-4 v-496 a4,4 0 0 1 4,-4"/></clipPath></defs><g opacity="0.9"><path x="105" y="39" width="1056" height="504" fill="#ecebeb" d="M109,39 h1048 a4,4 0 0 1 4,4 v496 a4,4 0 0 1 -4,4 h-1048 a4,4 0 0 1 -4,-4 v-496 a4,4 0 0 1 4,-4"/><path width="1056" height="504" clip-path="url(#satori_bc-id-0)" fill="none" stroke="#000" stroke-width="8" d="M106.172,40.172 A4,4 0 0 1 109,39 h1048 a4,4 0 0 1 4,4 v496 a4,4 0 0 1 -4,4 h-1048 a4,4 0 0 1 -4,-4 v-496 A4,4 0 0 1 106.172,40.172"/></g><defs><clipPath id="satori_bc-id-1"><path x="72" y="63" width="1056" height="504" d="M76,63 h1048 a4,4 0 0 1 4,4 v496 a4,4 0 0 1 -4,4 h-1048 a4,4 0 0 1 -4,-4 v-496 a4,4 0 0 1 4,-4"/></clipPath></defs><path x="72" y="63" width="1056" height="504" fill="#fefbfb" d="M76,63 h1048 a4,4 0 0 1 4,4 v496 a4,4 0 0 1 -4,4 h-1048 a4,4 0 0 1 -4,-4 v-496 a4,4 0 0 1 4,-4"/><path width="1056" height="504" clip-path="url(#satori_bc-id-1)" fill="none" stroke="#000" stroke-width="8" d="M73.172,64.172 A4,4 0 0 1 76,63 h1048 a4,4 0 0 1 4,4 v496 a4,4 0 0 1 -4,4 h-1048 a4,4 0 0 1 -4,-4 v-496 A4,4 0 0 1 73.172,64.172"/><clipPath id="satori_cp-id-1-0-0"><rect x="128" y="103" width="944" height="187"/></clipPath><mask id="satori_om-id-1-0-0"><rect x="128" y="103" width="944" height="187" fill="#fff"/></mask><path fill="black" d="M170.8 183.0L159.3 183.0L156.2 170.9L142.4 170.9L139.3 183.0L128.4 183.0L142.0 132.7L157.2 132.7L170.8 183.0ZM154.5 162.1L149.6 143.1L149.0 143.1L144.1 162.1L154.5 162.1ZM199.5 183.0L199.5 176.2L199.0 176.2Q197.6 179.6 195.0 181.7Q192.4 183.8 188.0 183.8L188.0 183.8Q184.9 183.8 182.3 182.7Q179.8 181.5 177.9 179.1Q176.1 176.8 175.1 173.1Q174.0 169.4 174.0 164.4L174.0 164.4Q174.0 159.3 175.1 155.7Q176.1 152.0 177.9 149.6Q179.8 147.2 182.3 146.1Q184.9 144.9 188.0 144.9L188.0 144.9Q190.2 144.9 191.9 145.5Q193.7 146.1 195.0 147.1Q196.3 148.1 197.3 149.5Q198.3 150.9 199.0 152.6L199.0 152.6L199.5 152.6L199.5 129.7L210.2 129.7L210.2 183.0L199.5 183.0ZM192.6 175.5L192.6 175.5Q195.4 175.5 197.4 174.2Q199.5 172.8 199.5 169.8L199.5 169.8L199.5 158.9Q199.5 156.0 197.4 154.6Q195.4 153.2 192.6 153.2L192.6 153.2Q189.0 153.2 187.0 155.4Q185.1 157.6 185.1 161.5L185.1 161.5L185.1 167.3Q185.1 171.1 187.0 173.3Q189.0 175.5 192.6 175.5ZM242.7 183.0L242.7 176.2L242.2 176.2Q240.8 179.6 238.2 181.7Q235.6 183.8 231.2 183.8L231.2 183.8Q228.1 183.8 225.5 182.7Q223.0 181.5 221.1 179.1Q219.3 176.8 218.3 173.1Q217.2 169.4 217.2 164.4L217.2 164.4Q217.2 159.3 218.3 155.7Q219.3 152.0 221.1 149.6Q223.0 147.2 225.5 146.1Q228.1 144.9 231.2 144.9L231.2 144.9Q233.4 144.9 235.1 145.5Q236.9 146.1 238.2 147.1Q239.5 148.1 240.5 149.5Q241.5 150.9 242.2 152.6L242.2 152.6L242.7 152.6L242.7 129.7L253.4 129.7L253.4 183.0L242.7 183.0ZM235.8 175.5L235.8 175.5Q238.6 175.5 240.6 174.2Q242.7 172.8 242.7 169.8L242.7 169.8L242.7 158.9Q242.7 156.0 240.6 154.6Q238.6 153.2 235.8 153.2L235.8 153.2Q232.2 153.2 230.2 155.4Q228.3 157.6 228.3 161.5L228.3 161.5L228.3 167.3Q228.3 171.1 230.2 173.3Q232.2 175.5 235.8 175.5ZM281.5 141.0L281.5 141.0Q277.9 141.0 276.5 139.6Q275.1 138.1 275.1 136.0L275.1 136.0L275.1 133.9Q275.1 131.8 276.5 130.3Q277.9 128.9 281.5 128.9L281.5 128.9Q285.1 128.9 286.5 130.3Q287.9 131.8 287.9 133.9L287.9 133.9L287.9 136.0Q287.9 138.1 286.5 139.6Q285.1 141.0 281.5 141.0ZM264.4 183.0L264.4 174.7L276.2 174.7L276.2 154.1L264.4 154.1L264.4 145.8L286.8 145.8L286.8 174.7L297.8 174.7L297.8 183.0L264.4 183.0ZM316.1 183.0L305.5 183.0L305.5 145.8L316.1 145.8L316.1 152.6L316.6 152.6Q317.2 151.0 318.2 149.6Q319.1 148.2 320.4 147.2Q321.8 146.2 323.5 145.5Q325.3 144.9 327.5 144.9L327.5 144.9Q330.2 144.9 332.4 145.8Q334.6 146.7 336.2 148.5Q337.8 150.3 338.7 152.9Q339.6 155.5 339.6 158.9L339.6 158.9L339.6 183.0L329.0 183.0L329.0 160.3Q329.0 153.1 322.7 153.1L322.7 153.1Q321.5 153.1 320.3 153.5Q319.1 153.8 318.2 154.5Q317.2 155.2 316.7 156.2Q316.1 157.2 316.1 158.5L316.1 158.5L316.1 183.0ZM386.0 186.7L386.0 186.7Q386.0 192.6 381.0 195.4Q376.0 198.2 365.4 198.2L365.4 198.2Q360.1 198.2 356.6 197.6Q353.1 197.0 351.1 195.8Q349.0 194.7 348.2 193.1Q347.4 191.5 347.4 189.6L347.4 189.6Q347.4 186.5 349.3 184.9Q351.1 183.2 354.5 182.4L354.5 182.4L354.5 181.9Q352.1 181.2 350.7 179.9Q349.3 178.6 349.3 176.1L349.3 176.1Q349.3 173.4 351.2 172.1Q353.0 170.8 356.0 170.1L356.0 170.1L356.0 169.6Q352.7 168.0 350.9 165.2Q349.0 162.3 349.0 158.2L349.0 158.2Q349.0 154.9 350.2 152.5Q351.3 150.0 353.5 148.3Q355.6 146.7 358.5 145.8Q361.5 144.9 365.2 144.9L365.2 144.9Q368.7 144.9 371.7 145.7L371.7 145.7L371.7 143.7Q371.7 141.6 373.2 140.1Q374.7 138.7 377.4 138.7L377.4 138.7L384.0 138.7L384.0 146.4L375.0 146.4L375.0 147.1Q378.1 148.7 379.7 151.5Q381.4 154.2 381.4 158.2L381.4 158.2Q381.4 161.4 380.3 163.9Q379.1 166.3 377.0 168.0Q374.8 169.7 371.8 170.6Q368.8 171.4 365.2 171.4L365.2 171.4Q363.5 171.4 362.0 171.3Q360.5 171.1 359.1 170.7L359.1 170.7Q358.3 171.1 357.8 171.8Q357.2 172.4 357.2 173.4L357.2 173.4Q357.2 174.3 357.7 174.8Q358.1 175.3 358.9 175.6Q359.6 175.8 360.6 175.9Q361.6 176.0 362.7 176.0L362.7 176.0L371.2 176.0Q375.2 176.0 378.0 176.8Q380.8 177.6 382.6 179.0Q384.4 180.4 385.2 182.4Q386.0 184.3 386.0 186.7ZM375.9 187.5L375.9 187.5Q375.9 186.0 374.7 185.2Q373.6 184.4 370.4 184.4L370.4 184.4L357.6 184.4Q356.2 185.6 356.2 187.4L356.2 187.4Q356.2 189.1 357.6 190.3Q359.1 191.4 362.6 191.4L362.6 191.4L368.9 191.4Q372.6 191.4 374.2 190.4Q375.9 189.4 375.9 187.5ZM365.2 164.7L365.2 164.7Q368.4 164.7 369.9 163.1Q371.4 161.5 371.4 159.0L371.4 159.0L371.4 157.3Q371.4 154.9 369.9 153.3Q368.4 151.7 365.2 151.7L365.2 151.7Q362.0 151.7 360.6 153.3Q359.1 154.9 359.1 157.3L359.1 157.3L359.1 159.0Q359.1 161.5 360.6 163.1Q362.0 164.7 365.2 164.7Z M445.7 183.0L435.1 183.0L435.1 145.8L445.7 145.8L445.7 152.6L446.2 152.6Q446.8 151.0 447.8 149.6Q448.7 148.2 450.0 147.2Q451.4 146.2 453.1 145.5Q454.9 144.9 457.1 144.9L457.1 144.9Q459.8 144.9 462.0 145.8Q464.2 146.7 465.8 148.5Q467.4 150.3 468.3 152.9Q469.2 155.5 469.2 158.9L469.2 158.9L469.2 183.0L458.6 183.0L458.6 160.3Q458.6 153.1 452.3 153.1L452.3 153.1Q451.1 153.1 449.9 153.5Q448.7 153.8 447.8 154.5Q446.8 155.2 446.3 156.2Q445.7 157.2 445.7 158.5L445.7 158.5L445.7 183.0ZM496.2 183.8L496.2 183.8Q486.8 183.8 482.0 178.6Q477.2 173.4 477.2 164.5L477.2 164.5Q477.2 160.0 478.5 156.3Q479.7 152.7 482.1 150.2Q484.4 147.6 487.7 146.3Q491.1 144.9 495.3 144.9L495.3 144.9Q499.4 144.9 502.8 146.3Q506.1 147.6 508.4 150.0Q510.7 152.5 511.9 156.0Q513.2 159.5 513.2 163.8L513.2 163.8L513.2 167.0L487.8 167.0L487.8 167.6Q487.8 171.2 490.0 173.4Q492.2 175.6 496.6 175.6L496.6 175.6Q499.9 175.6 502.3 174.3Q504.6 173.1 506.4 171.0L506.4 171.0L512.1 177.3Q510.0 179.9 506.1 181.9Q502.2 183.8 496.2 183.8ZM495.3 152.6L495.3 152.6Q491.9 152.6 489.8 154.7Q487.8 156.8 487.8 160.4L487.8 160.4L487.8 161.0L502.8 161.0L502.8 160.4Q502.8 156.7 500.8 154.7Q498.8 152.6 495.3 152.6ZM521.7 183.0L517.3 145.8L526.2 145.8L528.8 175.9L529.5 175.9L533.9 145.8L543.3 145.8L547.6 175.9L548.3 175.9L551.1 145.8L559.5 145.8L555.1 183.0L542.4 183.0L538.8 157.3L538.0 157.3L534.4 183.0L521.7 183.0Z M607.4 197.4L607.4 145.8L618.1 145.8L618.1 152.6L618.6 152.6Q620.0 149.3 622.6 147.1Q625.2 144.9 629.6 144.9L629.6 144.9Q632.7 144.9 635.3 146.1Q637.8 147.2 639.7 149.6Q641.5 152.0 642.5 155.7Q643.6 159.3 643.6 164.4L643.6 164.4Q643.6 169.4 642.5 173.1Q641.5 176.8 639.7 179.1Q637.8 181.5 635.3 182.7Q632.7 183.8 629.6 183.8L629.6 183.8Q625.2 183.8 622.6 181.7Q620.0 179.6 618.6 176.2L618.6 176.2L618.1 176.2L618.1 197.4L607.4 197.4ZM625.0 175.5L625.0 175.5Q628.6 175.5 630.6 173.3Q632.5 171.1 632.5 167.3L632.5 167.3L632.5 161.5Q632.5 157.6 630.6 155.4Q628.6 153.2 625.0 153.2L625.0 153.2Q622.2 153.2 620.2 154.6Q618.1 156.0 618.1 158.9L618.1 158.9L618.1 169.8Q618.1 172.8 620.2 174.2Q622.2 175.5 625.0 175.5ZM668.0 183.8L668.0 183.8Q663.7 183.8 660.2 182.5Q656.8 181.2 654.4 178.6Q651.9 176.1 650.6 172.5Q649.4 168.9 649.4 164.4L649.4 164.4Q649.4 159.8 650.6 156.2Q651.9 152.6 654.4 150.1Q656.8 147.6 660.2 146.3Q663.7 144.9 668.0 144.9L668.0 144.9Q672.3 144.9 675.8 146.3Q679.2 147.6 681.6 150.1Q684.1 152.6 685.4 156.2Q686.6 159.8 686.6 164.4L686.6 164.4Q686.6 168.9 685.4 172.5Q684.1 176.1 681.6 178.6Q679.2 181.2 675.8 182.5Q672.3 183.8 668.0 183.8ZM668.0 175.9L668.0 175.9Q671.6 175.9 673.6 173.7Q675.6 171.4 675.6 167.3L675.6 167.3L675.6 161.4Q675.6 157.3 673.6 155.1Q671.6 152.9 668.0 152.9L668.0 152.9Q664.4 152.9 662.4 155.1Q660.4 157.3 660.4 161.4L660.4 161.4L660.4 167.3Q660.4 171.4 662.4 173.7Q664.4 175.9 668.0 175.9ZM710.8 183.8L710.8 183.8Q704.6 183.8 700.0 181.9Q695.4 180.1 693.1 176.8L693.1 176.8L699.1 171.3Q701.3 173.7 704.2 175.0Q707.1 176.3 710.8 176.3L710.8 176.3Q714.0 176.3 715.8 175.4Q717.6 174.4 717.6 172.4L717.6 172.4Q717.6 170.8 716.4 170.2Q715.2 169.6 713.0 169.2L713.0 169.2L707.0 168.3Q704.5 167.9 702.3 167.1Q700.2 166.4 698.6 165.1Q697.0 163.8 696.1 161.9Q695.1 160.1 695.1 157.4L695.1 157.4Q695.1 151.6 699.6 148.2Q704.1 144.9 712.1 144.9L712.1 144.9Q717.6 144.9 721.5 146.4Q725.3 147.9 727.6 150.6L727.6 150.6L722.3 156.7Q720.6 154.9 718.0 153.6Q715.4 152.4 711.8 152.4L711.8 152.4Q705.6 152.4 705.6 156.2L705.6 156.2Q705.6 157.8 706.8 158.4Q708.0 159.0 710.2 159.4L710.2 159.4L716.1 160.3Q718.6 160.7 720.8 161.5Q722.9 162.2 724.6 163.5Q726.2 164.8 727.1 166.7Q728.0 168.6 728.0 171.2L728.0 171.2Q728.0 177.0 723.5 180.4Q719.0 183.8 710.8 183.8ZM771.0 183.0L757.3 183.0Q751.5 183.0 748.7 179.9Q745.9 176.9 745.9 172.2L745.9 172.2L745.9 154.1L735.8 154.1L735.8 145.8L742.4 145.8Q744.8 145.8 745.8 144.9Q746.8 143.9 746.8 141.4L746.8 141.4L746.8 132.7L756.6 132.7L756.6 145.8L771.0 145.8L771.0 154.1L756.6 154.1L756.6 174.7L771.0 174.7L771.0 183.0ZM797.2 183.8L797.2 183.8Q791.0 183.8 786.4 181.9Q781.8 180.1 779.5 176.8L779.5 176.8L785.5 171.3Q787.7 173.7 790.6 175.0Q793.5 176.3 797.2 176.3L797.2 176.3Q800.4 176.3 802.2 175.4Q804.0 174.4 804.0 172.4L804.0 172.4Q804.0 170.8 802.8 170.2Q801.6 169.6 799.4 169.2L799.4 169.2L793.4 168.3Q790.9 167.9 788.7 167.1Q786.6 166.4 785.0 165.1Q783.4 163.8 782.5 161.9Q781.5 160.1 781.5 157.4L781.5 157.4Q781.5 151.6 786.0 148.2Q790.5 144.9 798.5 144.9L798.5 144.9Q804.0 144.9 807.9 146.4Q811.7 147.9 814.0 150.6L814.0 150.6L808.7 156.7Q807.0 154.9 804.4 153.6Q801.8 152.4 798.2 152.4L798.2 152.4Q792.0 152.4 792.0 156.2L792.0 156.2Q792.0 157.8 793.2 158.4Q794.4 159.0 796.6 159.4L796.6 159.4L802.5 160.3Q805.0 160.7 807.2 161.5Q809.3 162.2 811.0 163.5Q812.6 164.8 813.5 166.7Q814.4 168.6 814.4 171.2L814.4 171.2Q814.4 177.0 809.9 180.4Q805.4 183.8 797.2 183.8Z M886.3 141.0L886.3 141.0Q882.7 141.0 881.3 139.6Q879.9 138.1 879.9 136.0L879.9 136.0L879.9 133.9Q879.9 131.8 881.3 130.3Q882.7 128.9 886.3 128.9L886.3 128.9Q889.9 128.9 891.3 130.3Q892.7 131.8 892.7 133.9L892.7 133.9L892.7 136.0Q892.7 138.1 891.3 139.6Q889.9 141.0 886.3 141.0ZM869.2 183.0L869.2 174.7L881.0 174.7L881.0 154.1L869.2 154.1L869.2 145.8L891.6 145.8L891.6 174.7L902.6 174.7L902.6 183.0L869.2 183.0ZM920.9 183.0L910.3 183.0L910.3 145.8L920.9 145.8L920.9 152.6L921.4 152.6Q922.0 151.0 923.0 149.6Q923.9 148.2 925.2 147.2Q926.6 146.2 928.3 145.5Q930.1 144.9 932.3 144.9L932.3 144.9Q935.0 144.9 937.2 145.8Q939.4 146.7 941.0 148.5Q942.6 150.3 943.5 152.9Q944.4 155.5 944.4 158.9L944.4 158.9L944.4 183.0L933.8 183.0L933.8 160.3Q933.8 153.1 927.5 153.1L927.5 153.1Q926.3 153.1 925.1 153.5Q923.9 153.8 923.0 154.5Q922.0 155.2 921.5 156.2Q920.9 157.2 920.9 158.5L920.9 158.5L920.9 183.0Z M170.8 276.6L159.3 276.6L156.2 264.5L142.4 264.5L139.3 276.6L128.4 276.6L142.0 226.3L157.2 226.3L170.8 276.6ZM154.5 255.7L149.6 236.7L149.0 236.7L144.1 255.7L154.5 255.7ZM192.4 277.4L192.4 277.4Q186.2 277.4 181.6 275.5Q177.0 273.7 174.7 270.4L174.7 270.4L180.7 264.9Q182.9 267.3 185.8 268.6Q188.7 269.9 192.4 269.9L192.4 269.9Q195.6 269.9 197.4 269.0Q199.2 268.0 199.2 266.0L199.2 266.0Q199.2 264.4 198.0 263.8Q196.8 263.2 194.6 262.8L194.6 262.8L188.6 261.9Q186.1 261.5 183.9 260.7Q181.8 260.0 180.2 258.7Q178.6 257.4 177.7 255.5Q176.7 253.7 176.7 251.0L176.7 251.0Q176.7 245.2 181.2 241.8Q185.7 238.5 193.7 238.5L193.7 238.5Q199.2 238.5 203.1 240.0Q206.9 241.5 209.2 244.2L209.2 244.2L203.9 250.3Q202.2 248.5 199.6 247.2Q197.0 246.0 193.4 246.0L193.4 246.0Q187.2 246.0 187.2 249.8L187.2 249.8Q187.2 251.4 188.4 252.0Q189.6 252.6 191.8 253.0L191.8 253.0L197.7 253.9Q200.2 254.3 202.4 255.1Q204.5 255.8 206.2 257.1Q207.8 258.4 208.7 260.3Q209.6 262.2 209.6 264.8L209.6 264.8Q209.6 270.6 205.1 274.0Q200.6 277.4 192.4 277.4ZM252.6 276.6L238.9 276.6Q233.1 276.6 230.3 273.5Q227.5 270.5 227.5 265.8L227.5 265.8L227.5 247.7L217.4 247.7L217.4 239.4L224.0 239.4Q226.4 239.4 227.4 238.5Q228.4 237.5 228.4 235.0L228.4 235.0L228.4 226.3L238.2 226.3L238.2 239.4L252.6 239.4L252.6 247.7L238.2 247.7L238.2 268.3L252.6 268.3L252.6 276.6ZM262.9 276.6L262.9 268.3L271.5 268.3L271.5 247.7L262.9 247.7L262.9 239.4L282.2 239.4L282.2 249.9L282.7 249.9Q283.2 247.9 284.1 246.0Q285.0 244.1 286.4 242.6Q287.8 241.1 289.8 240.3Q291.8 239.4 294.5 239.4L294.5 239.4L298.1 239.4L298.1 249.2L290.1 249.2Q286.2 249.2 284.2 251.5Q282.2 253.9 282.2 257.3L282.2 257.3L282.2 268.3L294.4 268.3L294.4 276.6L262.9 276.6ZM322.4 277.4L322.4 277.4Q318.1 277.4 314.6 276.1Q311.2 274.8 308.8 272.2Q306.3 269.7 305.0 266.1Q303.8 262.5 303.8 258.0L303.8 258.0Q303.8 253.4 305.0 249.8Q306.3 246.2 308.8 243.7Q311.2 241.2 314.6 239.9Q318.1 238.5 322.4 238.5L322.4 238.5Q326.7 238.5 330.2 239.9Q333.6 241.2 336.0 243.7Q338.5 246.2 339.8 249.8Q341.0 253.4 341.0 258.0L341.0 258.0Q341.0 262.5 339.8 266.1Q338.5 269.7 336.0 272.2Q333.6 274.8 330.2 276.1Q326.7 277.4 322.4 277.4ZM322.4 269.5L322.4 269.5Q326.0 269.5 328.0 267.3Q330.0 265.0 330.0 260.9L330.0 260.9L330.0 255.0Q330.0 250.9 328.0 248.7Q326.0 246.5 322.4 246.5L322.4 246.5Q318.8 246.5 316.8 248.7Q314.8 250.9 314.8 255.0L314.8 255.0L314.8 260.9Q314.8 265.0 316.8 267.3Q318.8 269.5 322.4 269.5ZM360.3 276.6L349.5 276.6L349.5 226.3L368.9 226.3Q372.6 226.3 375.5 227.4Q378.3 228.5 380.3 230.6Q382.3 232.7 383.3 235.7Q384.3 238.6 384.3 242.3L384.3 242.3Q384.3 246.0 383.3 248.9Q382.3 251.9 380.3 253.9Q378.3 256.0 375.5 257.1Q372.6 258.3 368.9 258.3L368.9 258.3L360.3 258.3L360.3 276.6ZM360.3 235.0L360.3 249.6L366.2 249.6Q370.0 249.6 371.5 248.1Q372.9 246.7 372.9 243.4L372.9 243.4L372.9 241.2Q372.9 237.9 371.5 236.4Q370.0 235.0 366.2 235.0L366.2 235.0L360.3 235.0ZM428.4 276.6L422.3 276.6Q419.0 276.6 416.9 274.9Q414.9 273.2 414.6 270.0L414.6 270.0L414.2 270.0Q413.2 273.7 410.2 275.5Q407.2 277.4 402.9 277.4L402.9 277.4Q397.5 277.4 394.2 274.5Q390.9 271.6 390.9 266.3L390.9 266.3Q390.9 260.5 395.2 257.7Q399.4 254.9 407.6 254.9L407.6 254.9L413.6 254.9L413.6 253.0Q413.6 249.7 412.1 248.0Q410.5 246.3 406.9 246.3L406.9 246.3Q403.5 246.3 401.4 247.6Q399.3 248.9 397.8 251.0L397.8 251.0L392.0 245.8Q393.8 242.6 397.8 240.6Q401.8 238.5 408.1 238.5L408.1 238.5Q415.7 238.5 420.0 242.0Q424.3 245.5 424.3 252.6L424.3 252.6L424.3 268.8L428.4 268.8L428.4 276.6ZM406.9 270.4L406.9 270.4Q409.7 270.4 411.7 269.1Q413.6 267.7 413.6 265.1L413.6 265.1L413.6 260.6L407.9 260.6Q401.4 260.6 401.4 265.0L401.4 265.0L401.4 266.5Q401.4 268.4 402.9 269.4Q404.4 270.4 406.9 270.4ZM434.6 291.0L434.6 239.4L445.3 239.4L445.3 246.2L445.8 246.2Q447.2 242.9 449.8 240.7Q452.4 238.5 456.8 238.5L456.8 238.5Q459.9 238.5 462.5 239.7Q465.0 240.8 466.9 243.2Q468.7 245.6 469.7 249.3Q470.8 252.9 470.8 258.0L470.8 258.0Q470.8 263.0 469.7 266.7Q468.7 270.4 466.9 272.7Q465.0 275.1 462.5 276.3Q459.9 277.4 456.8 277.4L456.8 277.4Q452.4 277.4 449.8 275.3Q447.2 273.2 445.8 269.8L445.8 269.8L445.3 269.8L445.3 291.0L434.6 291.0ZM452.2 269.1L452.2 269.1Q455.8 269.1 457.8 266.9Q459.7 264.7 459.7 260.9L459.7 260.9L459.7 255.1Q459.7 251.2 457.8 249.0Q455.8 246.8 452.2 246.8L452.2 246.8Q449.4 246.8 447.4 248.2Q445.3 249.6 445.3 252.5L445.3 252.5L445.3 263.4Q445.3 266.4 447.4 267.8Q449.4 269.1 452.2 269.1ZM496.2 277.4L496.2 277.4Q486.8 277.4 482.0 272.2Q477.2 267.0 477.2 258.1L477.2 258.1Q477.2 253.6 478.5 249.9Q479.7 246.3 482.1 243.8Q484.4 241.2 487.7 239.9Q491.1 238.5 495.3 238.5L495.3 238.5Q499.4 238.5 502.8 239.9Q506.1 241.2 508.4 243.6Q510.7 246.1 511.9 249.6Q513.2 253.1 513.2 257.4L513.2 257.4L513.2 260.6L487.8 260.6L487.8 261.2Q487.8 264.8 490.0 267.0Q492.2 269.2 496.6 269.2L496.6 269.2Q499.9 269.2 502.3 267.9Q504.6 266.7 506.4 264.6L506.4 264.6L512.1 270.9Q510.0 273.5 506.1 275.5Q502.2 277.4 496.2 277.4ZM495.3 246.2L495.3 246.2Q491.9 246.2 489.8 248.3Q487.8 250.4 487.8 254.0L487.8 254.0L487.8 254.6L502.8 254.6L502.8 254.0Q502.8 250.3 500.8 248.3Q498.8 246.2 495.3 246.2ZM522.1 276.6L522.1 268.3L530.7 268.3L530.7 247.7L522.1 247.7L522.1 239.4L541.4 239.4L541.4 249.9L541.9 249.9Q542.4 247.9 543.3 246.0Q544.2 244.1 545.6 242.6Q547.0 241.1 549.0 240.3Q551 239.4 553.7 239.4L553.7 239.4L557.3 239.4L557.3 249.2L549.3 249.2Q545.4 249.2 543.4 251.5Q541.4 253.9 541.4 257.3L541.4 257.3L541.4 268.3L553.6 268.3L553.6 276.6L522.1 276.6Z M641.4 276.6L627.7 276.6Q621.9 276.6 619.1 273.5Q616.3 270.5 616.3 265.8L616.3 265.8L616.3 247.7L606.2 247.7L606.2 239.4L612.8 239.4Q615.2 239.4 616.2 238.5Q617.2 237.5 617.2 235.0L617.2 235.0L617.2 226.3L627.0 226.3L627.0 239.4L641.4 239.4L641.4 247.7L627.0 247.7L627.0 268.3L641.4 268.3L641.4 276.6ZM651.1 276.6L651.1 223.3L661.7 223.3L661.7 246.2L662.2 246.2Q662.8 244.6 663.8 243.2Q664.7 241.8 666.0 240.8Q667.4 239.8 669.1 239.1Q670.9 238.5 673.1 238.5L673.1 238.5Q675.8 238.5 678.0 239.4Q680.2 240.3 681.8 242.1Q683.4 243.9 684.3 246.5Q685.2 249.1 685.2 252.5L685.2 252.5L685.2 276.6L674.6 276.6L674.6 253.9Q674.6 246.7 668.3 246.7L668.3 246.7Q667.1 246.7 665.9 247.1Q664.7 247.4 663.8 248.1Q662.8 248.8 662.3 249.8Q661.7 250.8 661.7 252.1L661.7 252.1L661.7 276.6L651.1 276.6ZM712.2 277.4L712.2 277.4Q702.8 277.4 698.0 272.2Q693.2 267.0 693.2 258.1L693.2 258.1Q693.2 253.6 694.5 249.9Q695.7 246.3 698.1 243.8Q700.4 241.2 703.7 239.9Q707.1 238.5 711.3 238.5L711.3 238.5Q715.4 238.5 718.8 239.9Q722.1 241.2 724.4 243.6Q726.7 246.1 727.9 249.6Q729.2 253.1 729.2 257.4L729.2 257.4L729.2 260.6L703.8 260.6L703.8 261.2Q703.8 264.8 706.0 267.0Q708.2 269.2 712.6 269.2L712.6 269.2Q715.9 269.2 718.3 267.9Q720.6 266.7 722.4 264.6L722.4 264.6L728.1 270.9Q726.0 273.5 722.1 275.5Q718.2 277.4 712.2 277.4ZM711.3 246.2L711.3 246.2Q707.9 246.2 705.8 248.3Q703.8 250.4 703.8 254.0L703.8 254.0L703.8 254.6L718.8 254.6L718.8 254.0Q718.8 250.3 716.8 248.3Q714.8 246.2 711.3 246.2ZM743.5 276.6L735.0 276.6L735.0 239.4L743.5 239.4L743.5 244.9L744.0 244.9Q744.9 242.3 746.5 240.4Q748.1 238.5 751.1 238.5L751.1 238.5Q756.5 238.5 757.7 244.9L757.7 244.9L758.1 244.9Q758.6 243.6 759.2 242.4Q759.9 241.3 760.8 240.4Q761.7 239.5 763.0 239.0Q764.3 238.5 766.1 238.5L766.1 238.5Q773.8 238.5 773.8 250.0L773.8 250.0L773.8 276.6L765.3 276.6L765.3 251.1Q765.3 248.5 764.4 247.4Q763.5 246.4 762.0 246.4L762.0 246.4Q760.7 246.4 759.7 247.3Q758.7 248.2 758.7 250.1L758.7 250.1L758.7 276.6L750.1 276.6L750.1 251.1Q750.1 248.5 749.3 247.4Q748.4 246.4 747.0 246.4L747.0 246.4Q745.5 246.4 744.5 247.3Q743.5 248.2 743.5 250.1L743.5 250.1L743.5 276.6ZM798.6 277.4L798.6 277.4Q789.2 277.4 784.4 272.2Q779.6 267.0 779.6 258.1L779.6 258.1Q779.6 253.6 780.9 249.9Q782.1 246.3 784.5 243.8Q786.8 241.2 790.1 239.9Q793.5 238.5 797.7 238.5L797.7 238.5Q801.8 238.5 805.2 239.9Q808.5 241.2 810.8 243.6Q813.1 246.1 814.3 249.6Q815.6 253.1 815.6 257.4L815.6 257.4L815.6 260.6L790.2 260.6L790.2 261.2Q790.2 264.8 792.4 267.0Q794.6 269.2 799.0 269.2L799.0 269.2Q802.3 269.2 804.7 267.9Q807.0 266.7 808.8 264.6L808.8 264.6L814.5 270.9Q812.4 273.5 808.5 275.5Q804.6 277.4 798.6 277.4ZM797.7 246.2L797.7 246.2Q794.3 246.2 792.2 248.3Q790.2 250.4 790.2 254.0L790.2 254.0L790.2 254.6L805.2 254.6L805.2 254.0Q805.2 250.3 803.2 248.3Q801.2 246.2 797.7 246.2Z " clip-path="url(#satori_cp-id-1-0-0)" mask="url(#satori_om-id-1-0-0)"/><path fill="black" d="M130.7 520.3L130.7 499.6L132.9 499.6L132.9 508.2L133.0 508.2Q134.4 505.5 137.5 505.5L137.5 505.5Q140.1 505.5 141.6 507.5Q143.1 509.5 143.1 513.0L143.1 513.0Q143.1 516.6 141.6 518.6Q140.1 520.6 137.5 520.6L137.5 520.6Q134.4 520.6 133.0 517.9L133.0 517.9L132.9 517.9L132.9 520.3L130.7 520.3ZM136.6 518.6L136.6 518.6Q138.6 518.6 139.6 517.4Q140.7 516.2 140.7 514.3L140.7 514.3L140.7 511.8Q140.7 509.9 139.6 508.7Q138.6 507.5 136.6 507.5L136.6 507.5Q135.8 507.5 135.2 507.7Q134.5 507.9 134.0 508.2Q133.5 508.6 133.2 509.2Q132.9 509.7 132.9 510.4L132.9 510.4L132.9 515.7Q132.9 516.4 133.2 516.9Q133.5 517.5 134.0 517.8Q134.5 518.2 135.2 518.4Q135.8 518.6 136.6 518.6ZM155.4 511.9L157.9 505.8L160.1 505.8L152.9 523.4Q152.7 524.1 152.4 524.5Q152.1 525.0 151.7 525.3Q151.2 525.6 150.7 525.7Q150.1 525.9 149.3 525.9L149.3 525.9L147.1 525.9L147.1 524.0L150.5 524.0L152.1 520.0L146.3 505.8L148.6 505.8L151.0 511.9L153.2 517.4L153.3 517.4L155.4 511.9Z "/><clipPath id="satori_cp-id-1-0-1-0-2"><rect x="178" y="489" width="151" height="36"/></clipPath><mask id="satori_om-id-1-0-1-0-2"><rect x="178" y="489" width="151" height="36" fill="#fff"/></mask><path fill="black" d="M186.1 520.4L186.1 520.4Q183.6 520.4 181.8 519.6Q180.0 518.8 178.9 517.4L178.9 517.4L181.3 514.7Q182.4 515.9 183.6 516.5Q184.9 517.0 186.2 517.0L186.2 517.0Q187.7 517.0 188.5 516.3Q189.3 515.7 189.3 514.4L189.3 514.4Q189.3 513.4 188.7 512.8Q188.1 512.3 186.7 512.1L186.7 512.1L184.6 511.7Q182.0 511.3 180.8 509.8Q179.7 508.3 179.7 506.1L179.7 506.1Q179.7 503.3 181.5 501.8Q183.3 500.2 186.7 500.2L186.7 500.2Q188.9 500.2 190.6 500.9Q192.3 501.6 193.3 502.8L193.3 502.8L191.0 505.5Q190.2 504.6 189.1 504.1Q188.1 503.6 186.7 503.6L186.7 503.6Q183.9 503.6 183.9 506.0L183.9 506.0Q183.9 507.0 184.5 507.5Q185.1 508.0 186.6 508.2L186.6 508.2L188.6 508.6Q191.0 509.0 192.3 510.4Q193.6 511.7 193.6 514.1L193.6 514.1Q193.6 515.4 193.1 516.6Q192.6 517.8 191.7 518.6Q190.7 519.5 189.3 520.0Q187.9 520.4 186.1 520.4ZM210.8 520.1L208.4 520.1Q207.1 520.1 206.4 519.4Q205.6 518.8 205.4 517.5L205.4 517.5L205.3 517.5Q204.9 519.0 203.7 519.7Q202.6 520.4 200.9 520.4L200.9 520.4Q198.8 520.4 197.5 519.3Q196.3 518.2 196.3 516.1L196.3 516.1Q196.3 513.8 197.9 512.8Q199.6 511.7 202.8 511.7L202.8 511.7L205.1 511.7L205.1 510.9Q205.1 509.6 204.5 509.0Q203.9 508.3 202.4 508.3L202.4 508.3Q201.1 508.3 200.3 508.8Q199.5 509.3 198.9 510.2L198.9 510.2L196.6 508.1Q197.4 506.9 198.9 506.1Q200.5 505.3 202.9 505.3L202.9 505.3Q205.9 505.3 207.6 506.7Q209.2 508.0 209.2 510.8L209.2 510.8L209.2 517.1L210.8 517.1L210.8 520.1ZM202.5 517.7L202.5 517.7Q203.6 517.7 204.3 517.2Q205.1 516.6 205.1 515.6L205.1 515.6L205.1 513.9L202.9 513.9Q200.3 513.9 200.3 515.6L200.3 515.6L200.3 516.2Q200.3 516.9 200.9 517.3Q201.5 517.7 202.5 517.7ZM226.5 520.1L221.1 520.1Q218.9 520.1 217.8 518.9Q216.7 517.7 216.7 515.9L216.7 515.9L216.7 508.9L212.8 508.9L212.8 505.6L215.3 505.6Q216.2 505.6 216.6 505.3Q217.0 504.9 217.0 503.9L217.0 503.9L217.0 500.5L220.8 500.5L220.8 505.6L226.5 505.6L226.5 508.9L220.8 508.9L220.8 516.9L226.5 516.9L226.5 520.1Z M255.3 520.1L250.8 507.1L250.5 507.1L250.5 520.1L246.9 520.1L246.9 500.5L251.9 500.5L256.4 513.5L256.7 513.5L256.7 500.5L260.3 500.5L260.3 520.1L255.3 520.1ZM278.0 520.1L275.6 520.1Q274.3 520.1 273.6 519.4Q272.8 518.8 272.6 517.5L272.6 517.5L272.5 517.5Q272.1 519.0 270.9 519.7Q269.8 520.4 268.1 520.4L268.1 520.4Q266.0 520.4 264.7 519.3Q263.5 518.2 263.5 516.1L263.5 516.1Q263.5 513.8 265.1 512.8Q266.8 511.7 270.0 511.7L270.0 511.7L272.3 511.7L272.3 510.9Q272.3 509.6 271.7 509.0Q271.1 508.3 269.6 508.3L269.6 508.3Q268.3 508.3 267.5 508.8Q266.7 509.3 266.1 510.2L266.1 510.2L263.8 508.1Q264.6 506.9 266.1 506.1Q267.7 505.3 270.1 505.3L270.1 505.3Q273.1 505.3 274.8 506.7Q276.4 508.0 276.4 510.8L276.4 510.8L276.4 517.1L278.0 517.1L278.0 520.1ZM269.7 517.7L269.7 517.7Q270.8 517.7 271.5 517.2Q272.3 516.6 272.3 515.6L272.3 515.6L272.3 513.9L270.1 513.9Q267.5 513.9 267.5 515.6L267.5 515.6L267.5 516.2Q267.5 516.9 268.1 517.3Q268.7 517.7 269.7 517.7ZM288.1 503.8L288.1 503.8Q286.7 503.8 286.2 503.2Q285.6 502.6 285.6 501.8L285.6 501.8L285.6 501.0Q285.6 500.2 286.2 499.6Q286.7 499.1 288.1 499.1L288.1 499.1Q289.5 499.1 290.0 499.6Q290.6 500.2 290.6 501.0L290.6 501.0L290.6 501.8Q290.6 502.6 290.0 503.2Q289.5 503.8 288.1 503.8ZM281.4 520.1L281.4 516.9L286.0 516.9L286.0 508.9L281.4 508.9L281.4 505.6L290.2 505.6L290.2 516.9L294.4 516.9L294.4 520.1L281.4 520.1ZM301.6 520.1L297.4 520.1L297.4 505.6L301.6 505.6L301.6 508.3L301.7 508.3Q302.0 507.7 302.3 507.1Q302.7 506.6 303.2 506.2Q303.7 505.8 304.4 505.5Q305.1 505.3 306.0 505.3L306.0 505.3Q307.0 505.3 307.9 505.7Q308.8 506.0 309.4 506.7Q310.0 507.4 310.3 508.4Q310.7 509.4 310.7 510.7L310.7 510.7L310.7 520.1L306.5 520.1L306.5 511.3Q306.5 508.5 304.1 508.5L304.1 508.5Q303.6 508.5 303.2 508.6Q302.7 508.8 302.3 509.0Q302.0 509.3 301.8 509.7Q301.6 510.1 301.6 510.6L301.6 510.6L301.6 520.1ZM328.7 521.5L328.7 521.5Q328.7 523.8 326.8 524.9Q324.9 526.0 320.7 526.0L320.7 526.0Q318.6 526.0 317.3 525.8Q316.0 525.6 315.2 525.1Q314.4 524.7 314.0 524.0Q313.7 523.4 313.7 522.7L313.7 522.7Q313.7 521.5 314.4 520.8Q315.2 520.2 316.5 519.9L316.5 519.9L316.5 519.7Q315.6 519.4 315.0 518.9Q314.5 518.4 314.5 517.4L314.5 517.4Q314.5 516.4 315.2 515.9Q315.9 515.4 317.1 515.1L317.1 515.1L317.1 514.9Q315.8 514.3 315.1 513.2Q314.4 512.1 314.4 510.5L314.4 510.5Q314.4 509.2 314.8 508.2Q315.3 507.3 316.1 506.6Q316.9 506.0 318.1 505.6Q319.2 505.3 320.6 505.3L320.6 505.3Q322.0 505.3 323.2 505.6L323.2 505.6L323.2 504.8Q323.2 504.0 323.8 503.4Q324.4 502.9 325.4 502.9L325.4 502.9L327.9 502.9L327.9 505.9L324.5 505.9L324.5 506.1Q325.6 506.8 326.3 507.8Q327.0 508.9 327.0 510.5L327.0 510.5Q327.0 511.7 326.5 512.7Q326.1 513.6 325.2 514.3Q324.4 514.9 323.2 515.3Q322.1 515.6 320.6 515.6L320.6 515.6Q320.0 515.6 319.4 515.5Q318.8 515.5 318.3 515.3L318.3 515.3Q318.0 515.5 317.8 515.8Q317.6 516.0 317.6 516.4L317.6 516.4Q317.6 516.7 317.7 516.9Q317.9 517.1 318.2 517.2Q318.5 517.3 318.9 517.3Q319.3 517.4 319.7 517.4L319.7 517.4L323.0 517.4Q324.5 517.4 325.6 517.7Q326.7 518.0 327.4 518.6Q328.1 519.1 328.4 519.9Q328.7 520.6 328.7 521.5ZM324.8 521.9L324.8 521.9Q324.8 521.3 324.4 521.0Q323.9 520.7 322.6 520.7L322.6 520.7L317.7 520.7Q317.1 521.1 317.1 521.8L317.1 521.8Q317.1 522.5 317.7 522.9Q318.3 523.4 319.7 523.4L319.7 523.4L322.1 523.4Q323.5 523.4 324.2 523.0Q324.8 522.6 324.8 521.9ZM320.6 513.0L320.6 513.0Q321.9 513.0 322.5 512.4Q323.0 511.7 323.0 510.8L323.0 510.8L323.0 510.1Q323.0 509.2 322.5 508.6Q321.9 507.9 320.6 507.9L320.6 507.9Q319.4 507.9 318.8 508.6Q318.3 509.2 318.3 510.1L318.3 510.1L318.3 510.8Q318.3 511.7 318.8 512.4Q319.4 513.0 320.6 513.0Z " clip-path="url(#satori_cp-id-1-0-1-0-2)" mask="url(#satori_om-id-1-0-1-0-2)"/><clipPath id="satori_cp-id-1-0-1-1"><rect x="903" y="489" width="168" height="36"/></clipPath><mask id="satori_om-id-1-0-1-1"><rect x="903" y="489" width="168" height="36" fill="#fff"/></mask><path fill="black" d="M919.7 520.1L915.2 520.1L913.9 515.4L908.6 515.4L907.4 520.1L903.1 520.1L908.4 500.5L914.4 500.5L919.7 520.1ZM913.3 512.0L911.4 504.6L911.2 504.6L909.3 512.0L913.3 512.0ZM928.0 520.4L928.0 520.4Q925.6 520.4 923.8 519.7Q922.1 519.0 921.2 517.7L921.2 517.7L923.5 515.6Q924.3 516.5 925.5 517.0Q926.6 517.5 928.1 517.5L928.1 517.5Q929.3 517.5 930.0 517.1Q930.7 516.8 930.7 516.0L930.7 516.0Q930.7 515.4 930.2 515.1Q929.7 514.9 928.9 514.7L928.9 514.7L926.6 514.4Q925.6 514.2 924.8 513.9Q923.9 513.7 923.3 513.1Q922.7 512.6 922.3 511.9Q922.0 511.2 922.0 510.2L922.0 510.2Q922.0 507.9 923.7 506.6Q925.4 505.3 928.6 505.3L928.6 505.3Q930.7 505.3 932.2 505.9Q933.7 506.5 934.6 507.5L934.6 507.5L932.5 509.9Q931.9 509.2 930.9 508.7Q929.9 508.2 928.4 508.2L928.4 508.2Q926.0 508.2 926.0 509.7L926.0 509.7Q926.0 510.3 926.5 510.6Q927.0 510.8 927.8 510.9L927.8 510.9L930.1 511.3Q931.1 511.4 931.9 511.7Q932.8 512.0 933.4 512.5Q934.0 513.0 934.4 513.8Q934.8 514.5 934.8 515.5L934.8 515.5Q934.8 517.8 933.0 519.1Q931.3 520.4 928.0 520.4ZM951.5 520.1L946.1 520.1Q943.9 520.1 942.8 518.9Q941.7 517.7 941.7 515.9L941.7 515.9L941.7 508.9L937.8 508.9L937.8 505.6L940.3 505.6Q941.2 505.6 941.6 505.3Q942.0 504.9 942.0 503.9L942.0 503.9L942.0 500.5L945.8 500.5L945.8 505.6L951.5 505.6L951.5 508.9L945.8 508.9L945.8 516.9L951.5 516.9L951.5 520.1ZM955.5 520.1L955.5 516.9L958.8 516.9L958.8 508.9L955.5 508.9L955.5 505.6L962.9 505.6L962.9 509.7L963.1 509.7Q963.3 508.9 963.7 508.2Q964.0 507.5 964.6 506.9Q965.1 506.3 965.9 506.0Q966.7 505.6 967.8 505.6L967.8 505.6L969.1 505.6L969.1 509.5L966.1 509.5Q964.5 509.5 963.7 510.4Q962.9 511.3 962.9 512.6L962.9 512.6L962.9 516.9L967.7 516.9L967.7 520.1L955.5 520.1ZM978.6 520.4L978.6 520.4Q976.9 520.4 975.6 519.9Q974.2 519.4 973.3 518.4Q972.4 517.4 971.9 516.0Q971.3 514.6 971.3 512.9L971.3 512.9Q971.3 511.1 971.9 509.7Q972.4 508.3 973.3 507.3Q974.2 506.3 975.6 505.8Q976.9 505.3 978.6 505.3L978.6 505.3Q980.3 505.3 981.6 505.8Q983.0 506.3 983.9 507.3Q984.8 508.3 985.3 509.7Q985.9 511.1 985.9 512.9L985.9 512.9Q985.9 514.6 985.3 516.0Q984.8 517.4 983.9 518.4Q983.0 519.4 981.6 519.9Q980.3 520.4 978.6 520.4ZM978.6 517.3L978.6 517.3Q980.0 517.3 980.8 516.5Q981.6 515.6 981.6 514.0L981.6 514.0L981.6 511.7Q981.6 510.1 980.8 509.3Q980.0 508.4 978.6 508.4L978.6 508.4Q977.2 508.4 976.4 509.3Q975.6 510.1 975.6 511.7L975.6 511.7L975.6 514.0Q975.6 515.6 976.4 516.5Q977.2 517.3 978.6 517.3ZM993.4 520.1L989.1 520.1L989.1 500.5L996.7 500.5Q998.1 500.5 999.2 501.0Q1000.4 501.4 1001.1 502.2Q1001.9 503.0 1002.3 504.2Q1002.7 505.3 1002.7 506.8L1002.7 506.8Q1002.7 508.2 1002.3 509.3Q1001.9 510.5 1001.1 511.3Q1000.4 512.1 999.2 512.5Q998.1 513.0 996.7 513.0L996.7 513.0L993.4 513.0L993.4 520.1ZM993.4 503.9L993.4 509.6L995.6 509.6Q997.1 509.6 997.7 509.0Q998.3 508.5 998.3 507.2L998.3 507.2L998.3 506.3Q998.3 505.1 997.7 504.5Q997.1 503.9 995.6 503.9L995.6 503.9L993.4 503.9ZM1019.8 520.1L1017.4 520.1Q1016.1 520.1 1015.4 519.4Q1014.6 518.8 1014.4 517.5L1014.4 517.5L1014.3 517.5Q1013.9 519.0 1012.7 519.7Q1011.6 520.4 1009.9 520.4L1009.9 520.4Q1007.8 520.4 1006.5 519.3Q1005.3 518.2 1005.3 516.1L1005.3 516.1Q1005.3 513.8 1006.9 512.8Q1008.6 511.7 1011.8 511.7L1011.8 511.7L1014.1 511.7L1014.1 510.9Q1014.1 509.6 1013.5 509.0Q1012.9 508.3 1011.4 508.3L1011.4 508.3Q1010.1 508.3 1009.3 508.8Q1008.5 509.3 1007.9 510.2L1007.9 510.2L1005.6 508.1Q1006.4 506.9 1007.9 506.1Q1009.5 505.3 1011.9 505.3L1011.9 505.3Q1014.9 505.3 1016.6 506.7Q1018.2 508.0 1018.2 510.8L1018.2 510.8L1018.2 517.1L1019.8 517.1L1019.8 520.1ZM1011.5 517.7L1011.5 517.7Q1012.6 517.7 1013.3 517.2Q1014.1 516.6 1014.1 515.6L1014.1 515.6L1014.1 513.9L1011.9 513.9Q1009.3 513.9 1009.3 515.6L1009.3 515.6L1009.3 516.2Q1009.3 516.9 1009.9 517.3Q1010.5 517.7 1011.5 517.7ZM1022.3 525.7L1022.3 505.6L1026.4 505.6L1026.4 508.3L1026.6 508.3Q1027.1 507.0 1028.1 506.1Q1029.1 505.3 1030.9 505.3L1030.9 505.3Q1032.1 505.3 1033.1 505.8Q1034.1 506.2 1034.8 507.1Q1035.5 508.1 1035.9 509.5Q1036.3 510.9 1036.3 512.9L1036.3 512.9Q1036.3 514.8 1035.9 516.3Q1035.5 517.7 1034.8 518.6Q1034.1 519.5 1033.1 520.0Q1032.1 520.4 1030.9 520.4L1030.9 520.4Q1029.1 520.4 1028.1 519.6Q1027.1 518.8 1026.6 517.5L1026.6 517.5L1026.4 517.5L1026.4 525.7L1022.3 525.7ZM1029.1 517.2L1029.1 517.2Q1030.5 517.2 1031.2 516.4Q1032.0 515.5 1032.0 514.0L1032.0 514.0L1032.0 511.7Q1032.0 510.2 1031.2 509.4Q1030.5 508.5 1029.1 508.5L1029.1 508.5Q1028.0 508.5 1027.2 509.1Q1026.4 509.6 1026.4 510.7L1026.4 510.7L1026.4 515.0Q1026.4 516.1 1027.2 516.7Q1028.0 517.2 1029.1 517.2ZM1046.2 520.4L1046.2 520.4Q1042.6 520.4 1040.7 518.4Q1038.8 516.4 1038.8 512.9L1038.8 512.9Q1038.8 511.2 1039.3 509.7Q1039.8 508.3 1040.7 507.3Q1041.6 506.3 1042.9 505.8Q1044.2 505.3 1045.8 505.3L1045.8 505.3Q1047.5 505.3 1048.7 505.8Q1050.0 506.3 1050.9 507.3Q1051.8 508.2 1052.3 509.6Q1052.8 511.0 1052.8 512.6L1052.8 512.6L1052.8 513.9L1042.9 513.9L1042.9 514.1Q1042.9 515.5 1043.8 516.4Q1044.7 517.2 1046.3 517.2L1046.3 517.2Q1047.6 517.2 1048.5 516.7Q1049.5 516.3 1050.1 515.4L1050.1 515.4L1052.4 517.9Q1051.5 518.9 1050.0 519.7Q1048.5 520.4 1046.2 520.4ZM1045.9 508.3L1045.9 508.3Q1044.5 508.3 1043.7 509.1Q1042.9 509.9 1042.9 511.3L1042.9 511.3L1042.9 511.6L1048.7 511.6L1048.7 511.3Q1048.7 509.9 1048.0 509.1Q1047.2 508.3 1045.9 508.3ZM1056.3 520.1L1056.3 516.9L1059.6 516.9L1059.6 508.9L1056.3 508.9L1056.3 505.6L1063.7 505.6L1063.7 509.7L1063.9 509.7Q1064.1 508.9 1064.5 508.2Q1064.8 507.5 1065.4 506.9Q1065.9 506.3 1066.7 506.0Q1067.5 505.6 1068.6 505.6L1068.6 505.6L1069.9 505.6L1069.9 509.5L1066.9 509.5Q1065.3 509.5 1064.5 510.4Q1063.7 511.3 1063.7 512.6L1063.7 512.6L1063.7 516.9L1068.5 516.9L1068.5 520.1L1056.3 520.1Z " clip-path="url(#satori_cp-id-1-0-1-1)" mask="url(#satori_om-id-1-0-1-1)"/></svg>