<svg width="1200" height="630" viewBox="0 0 1200 630" xmlns="http://www.w3.org/2000/svg"><rect x="0" y="0" width="1200" height="630" fill="#fefbfb"/><defs><clipPath id="satori_bc-id-0"><path x="105" y="39" width="1056" height="504" d="M109,39 h1048 a4,4 0 0 1 4,4 v496 a4,4 0 0 1 -4,4 h-1048 a4,4 0 0 1 -4,-4 v-496 a4,4 0 0 1 4,-4"/></clipPath></defs><g opacity="0.9"><path x="105" y="39" width="1056" height="504" fill="#ecebeb" d="M109,39 h1048 a4,4 0 0 1 4,4 v496 a4,4 0 0 1 -4,4 h-1048 a4,4 0 0 1 -4,-4 v-496 a4,4 0 0 1 4,-4"/><path width="1056" height="504" clip-path="url(#satori_bc-id-0)" fill="none" stroke="#000" stroke-width="8" d="M106.172,40.172 A4,4 0 0 1 109,39 h1048 a4,4 0 0 1 4,4 v496 a4,4 0 0 1 -4,4 h-1048 a4,4 0 0 1 -4,-4 v-496 A4,4 0 0 1 106.172,40.172"/></g><defs><clipPath id="satori_bc-id-1"><path x="72" y="63" width="1056" height="504" d="M76,63 h1048 a4,4 0 0 1 4,4 v496 a4,4 0 0 1 -4,4 h-1048 a4,4 0 0 1 -4,-4 v-496 a4,4 0 0 1 4,-4"/></clipPath></defs><path x="72" y="63" width="1056" height="504" fill="#fefbfb" d="M76,63 h1048 a4,4 0 0 1 4,4 v496 a4,4 0 0 1 -4,4 h-1048 a4,4 0 0 1 -4,-4 v-496 a4,4 0 0 1 4,-4"/><path width="1056" height="504" clip-path="url(#satori_bc-id-1)" fill="none" stroke="#000" stroke-width="8" d="M73.172,64.172 A4,4 0 0 1 76,63 h1048 a4,4 0 0 1 4,4 v496 a4,4 0 0 1 -4,4 h-1048 a4,4 0 0 1 -4,-4 v-496 A4,4 0 0 1 73.172,64.172"/><clipPath id="satori_cp-id-1-0-0"><rect x="128" y="103" width="944" height="281"/></clipPath><mask id="satori_om-id-1-0-0"><rect x="128" y="103" width="944" height="281" fill="#fff"/></mask><path fill="black" d="M150.8 183.8L150.8 183.8Q140.7 183.8 135.8 177.0Q131.0 170.2 131.0 157.8L131.0 157.8Q131.0 145.4 135.8 138.6Q140.7 131.8 150.8 131.8L150.8 131.8Q154.6 131.8 157.6 132.9Q160.6 133.9 162.8 135.8Q164.9 137.7 166.3 140.3Q167.7 143.0 168.5 146.3L168.5 146.3L158.5 148.8Q158.0 147.0 157.4 145.4Q156.9 143.9 156.0 142.8Q155.1 141.8 153.7 141.2Q152.4 140.5 150.5 140.5L150.5 140.5Q146.1 140.5 144.3 144.0Q142.5 147.4 142.5 153.4L142.5 153.4L142.5 162.2Q142.5 168.3 144.3 171.7Q146.1 175.1 150.5 175.1L150.5 175.1Q154.3 175.1 156.0 172.8Q157.7 170.5 158.5 166.9L158.5 166.9L168.5 169.3Q167.7 172.7 166.3 175.3Q164.9 178.0 162.8 179.9Q160.6 181.8 157.6 182.8Q154.6 183.8 150.8 183.8ZM199.1 183.0L199.1 176.2L198.6 176.2Q197.4 179.4 194.8 181.6Q192.2 183.8 187.7 183.8L187.7 183.8Q185.0 183.8 182.8 182.9Q180.6 182.0 179.0 180.2Q177.4 178.4 176.5 175.8Q175.6 173.2 175.6 169.8L175.6 169.8L175.6 145.8L186.2 145.8L186.2 168.4Q186.2 175.6 192.5 175.6L192.5 175.6Q193.7 175.6 194.9 175.3Q196.1 175.0 197.0 174.3Q197.9 173.6 198.5 172.6Q199.1 171.6 199.1 170.2L199.1 170.2L199.1 145.8L209.7 145.8L209.7 183.0L199.1 183.0ZM235.6 183.8L235.6 183.8Q229.4 183.8 224.8 181.9Q220.2 180.1 217.9 176.8L217.9 176.8L223.9 171.3Q226.1 173.7 229.0 175.0Q231.9 176.3 235.6 176.3L235.6 176.3Q238.8 176.3 240.6 175.4Q242.4 174.4 242.4 172.4L242.4 172.4Q242.4 170.8 241.2 170.2Q240.0 169.6 237.8 169.2L237.8 169.2L231.8 168.3Q229.3 167.9 227.1 167.1Q225.0 166.4 223.4 165.1Q221.8 163.8 220.9 161.9Q219.9 160.1 219.9 157.4L219.9 157.4Q219.9 151.6 224.4 148.2Q228.9 144.9 236.9 144.9L236.9 144.9Q242.4 144.9 246.3 146.4Q250.1 147.9 252.4 150.6L252.4 150.6L247.1 156.7Q245.4 154.9 242.8 153.6Q240.2 152.4 236.6 152.4L236.6 152.4Q230.4 152.4 230.4 156.2L230.4 156.2Q230.4 157.8 231.6 158.4Q232.8 159.0 235.0 159.4L235.0 159.4L240.9 160.3Q243.4 160.7 245.6 161.5Q247.7 162.2 249.4 163.5Q251.0 164.8 251.9 166.7Q252.8 168.6 252.8 171.2L252.8 171.2Q252.8 177.0 248.3 180.4Q243.8 183.8 235.6 183.8ZM295.8 183.0L282.1 183.0Q276.3 183.0 273.5 179.9Q270.7 176.9 270.7 172.2L270.7 172.2L270.7 154.1L260.6 154.1L260.6 145.8L267.2 145.8Q269.6 145.8 270.6 144.9Q271.6 143.9 271.6 141.4L271.6 141.4L271.6 132.7L281.4 132.7L281.4 145.8L295.8 145.8L295.8 154.1L281.4 154.1L281.4 174.7L295.8 174.7L295.8 183.0ZM322.4 183.8L322.4 183.8Q318.1 183.8 314.6 182.5Q311.2 181.2 308.8 178.6Q306.3 176.1 305.0 172.5Q303.8 168.9 303.8 164.4L303.8 164.4Q303.8 159.8 305.0 156.2Q306.3 152.6 308.8 150.1Q311.2 147.6 314.6 146.3Q318.1 144.9 322.4 144.9L322.4 144.9Q326.7 144.9 330.2 146.3Q333.6 147.6 336.0 150.1Q338.5 152.6 339.8 156.2Q341.0 159.8 341.0 164.4L341.0 164.4Q341.0 168.9 339.8 172.5Q338.5 176.1 336.0 178.6Q333.6 181.2 330.2 182.5Q326.7 183.8 322.4 183.8ZM322.4 175.9L322.4 175.9Q326.0 175.9 328.0 173.7Q330.0 171.4 330.0 167.3L330.0 167.3L330.0 161.4Q330.0 157.3 328.0 155.1Q326.0 152.9 322.4 152.9L322.4 152.9Q318.8 152.9 316.8 155.1Q314.8 157.3 314.8 161.4L314.8 161.4L314.8 167.3Q314.8 171.4 316.8 173.7Q318.8 175.9 322.4 175.9ZM354.7 183.0L346.2 183.0L346.2 145.8L354.7 145.8L354.7 151.3L355.2 151.3Q356.1 148.7 357.7 146.8Q359.3 144.9 362.3 144.9L362.3 144.9Q367.7 144.9 368.9 151.3L368.9 151.3L369.3 151.3Q369.8 150.0 370.4 148.8Q371.1 147.7 372.0 146.8Q372.9 145.9 374.2 145.4Q375.5 144.9 377.3 144.9L377.3 144.9Q385.0 144.9 385.0 156.4L385.0 156.4L385.0 183.0L376.5 183.0L376.5 157.5Q376.5 154.9 375.6 153.8Q374.7 152.8 373.2 152.8L373.2 152.8Q371.9 152.8 370.9 153.7Q369.9 154.6 369.9 156.5L369.9 156.5L369.9 183.0L361.3 183.0L361.3 157.5Q361.3 154.9 360.5 153.8Q359.6 152.8 358.2 152.8L358.2 152.8Q356.7 152.8 355.7 153.7Q354.7 154.6 354.7 156.5L354.7 156.5L354.7 183.0ZM411.1 141.0L411.1 141.0Q407.5 141.0 406.1 139.6Q404.7 138.1 404.7 136.0L404.7 136.0L404.7 133.9Q404.7 131.8 406.1 130.3Q407.5 128.9 411.1 128.9L411.1 128.9Q414.7 128.9 416.1 130.3Q417.5 131.8 417.5 133.9L417.5 133.9L417.5 136.0Q417.5 138.1 416.1 139.6Q414.7 141.0 411.1 141.0ZM394.0 183.0L394.0 174.7L405.8 174.7L405.8 154.1L394.0 154.1L394.0 145.8L416.4 145.8L416.4 174.7L427.4 174.7L427.4 183.0L394.0 183.0ZM468.8 183.0L435.2 183.0L435.2 174.1L455.8 154.1L435.9 154.1L435.9 145.8L468.1 145.8L468.1 154.7L447.5 174.7L468.8 174.7L468.8 183.0ZM497.5 141.0L497.5 141.0Q493.9 141.0 492.5 139.6Q491.1 138.1 491.1 136.0L491.1 136.0L491.1 133.9Q491.1 131.8 492.5 130.3Q493.9 128.9 497.5 128.9L497.5 128.9Q501.1 128.9 502.5 130.3Q503.9 131.8 503.9 133.9L503.9 133.9L503.9 136.0Q503.9 138.1 502.5 139.6Q501.1 141.0 497.5 141.0ZM480.4 183.0L480.4 174.7L492.2 174.7L492.2 154.1L480.4 154.1L480.4 145.8L502.8 145.8L502.8 174.7L513.8 174.7L513.8 183.0L480.4 183.0ZM532.1 183.0L521.5 183.0L521.5 145.8L532.1 145.8L532.1 152.6L532.6 152.6Q533.2 151.0 534.2 149.6Q535.1 148.2 536.4 147.2Q537.8 146.2 539.5 145.5Q541.3 144.9 543.5 144.9L543.5 144.9Q546.2 144.9 548.4 145.8Q550.6 146.7 552.2 148.5Q553.8 150.3 554.7 152.9Q555.6 155.5 555.6 158.9L555.6 158.9L555.6 183.0L545.0 183.0L545.0 160.3Q545.0 153.1 538.7 153.1L538.7 153.1Q537.5 153.1 536.3 153.5Q535.1 153.8 534.2 154.5Q533.2 155.2 532.7 156.2Q532.1 157.2 532.1 158.5L532.1 158.5L532.1 183.0ZM602.0 186.7L602.0 186.7Q602.0 192.6 597.0 195.4Q592.0 198.2 581.4 198.2L581.4 198.2Q576.1 198.2 572.6 197.6Q569.1 197.0 567.1 195.8Q565.0 194.7 564.2 193.1Q563.4 191.5 563.4 189.6L563.4 189.6Q563.4 186.5 565.3 184.9Q567.1 183.2 570.5 182.4L570.5 182.4L570.5 181.9Q568.1 181.2 566.7 179.9Q565.3 178.6 565.3 176.1L565.3 176.1Q565.3 173.4 567.2 172.1Q569 170.8 572.0 170.1L572.0 170.1L572.0 169.6Q568.7 168.0 566.9 165.2Q565.0 162.3 565.0 158.2L565.0 158.2Q565.0 154.9 566.2 152.5Q567.3 150.0 569.5 148.3Q571.6 146.7 574.5 145.8Q577.5 144.9 581.2 144.9L581.2 144.9Q584.7 144.9 587.7 145.7L587.7 145.7L587.7 143.7Q587.7 141.6 589.2 140.1Q590.7 138.7 593.4 138.7L593.4 138.7L600.0 138.7L600.0 146.4L591.0 146.4L591.0 147.1Q594.1 148.7 595.7 151.5Q597.4 154.2 597.4 158.2L597.4 158.2Q597.4 161.4 596.3 163.9Q595.1 166.3 593.0 168.0Q590.8 169.7 587.8 170.6Q584.8 171.4 581.2 171.4L581.2 171.4Q579.5 171.4 578 171.3Q576.5 171.1 575.1 170.7L575.1 170.7Q574.3 171.1 573.8 171.8Q573.2 172.4 573.2 173.4L573.2 173.4Q573.2 174.3 573.7 174.8Q574.1 175.3 574.9 175.6Q575.6 175.8 576.6 175.9Q577.6 176.0 578.7 176.0L578.7 176.0L587.2 176.0Q591.2 176.0 594.0 176.8Q596.8 177.6 598.6 179.0Q600.4 180.4 601.2 182.4Q602.0 184.3 602.0 186.7ZM591.9 187.5L591.9 187.5Q591.9 186.0 590.7 185.2Q589.6 184.4 586.4 184.4L586.4 184.4L573.6 184.4Q572.2 185.6 572.2 187.4L572.2 187.4Q572.2 189.1 573.6 190.3Q575.1 191.4 578.6 191.4L578.6 191.4L584.9 191.4Q588.6 191.4 590.2 190.4Q591.9 189.4 591.9 187.5ZM581.2 164.7L581.2 164.7Q584.4 164.7 585.9 163.1Q587.4 161.5 587.4 159.0L587.4 159.0L587.4 157.3Q587.4 154.9 585.9 153.3Q584.4 151.7 581.2 151.7L581.2 151.7Q578 151.7 576.6 153.3Q575.1 154.9 575.1 157.3L575.1 157.3L575.1 159.0Q575.1 161.5 576.6 163.1Q578 164.7 581.2 164.7Z M170.8 276.6L159.3 276.6L156.2 264.5L142.4 264.5L139.3 276.6L128.4 276.6L142.0 226.3L157.2 226.3L170.8 276.6ZM154.5 255.7L149.6 236.7L149.0 236.7L144.1 255.7L154.5 255.7ZM192.4 277.4L192.4 277.4Q186.2 277.4 181.6 275.5Q177.0 273.7 174.7 270.4L174.7 270.4L180.7 264.9Q182.9 267.3 185.8 268.6Q188.7 269.9 192.4 269.9L192.4 269.9Q195.6 269.9 197.4 269.0Q199.2 268.0 199.2 266.0L199.2 266.0Q199.2 264.4 198.0 263.8Q196.8 263.2 194.6 262.8L194.6 262.8L188.6 261.9Q186.1 261.5 183.9 260.7Q181.8 260.0 180.2 258.7Q178.6 257.4 177.7 255.5Q176.7 253.7 176.7 251.0L176.7 251.0Q176.7 245.2 181.2 241.8Q185.7 238.5 193.7 238.5L193.7 238.5Q199.2 238.5 203.1 240.0Q206.9 241.5 209.2 244.2L209.2 244.2L203.9 250.3Q202.2 248.5 199.6 247.2Q197.0 246.0 193.4 246.0L193.4 246.0Q187.2 246.0 187.2 249.8L187.2 249.8Q187.2 251.4 188.4 252.0Q189.6 252.6 191.8 253.0L191.8 253.0L197.7 253.9Q200.2 254.3 202.4 255.1Q204.5 255.8 206.2 257.1Q207.8 258.4 208.7 260.3Q209.6 262.2 209.6 264.8L209.6 264.8Q209.6 270.6 205.1 274.0Q200.6 277.4 192.4 277.4ZM252.6 276.6L238.9 276.6Q233.1 276.6 230.3 273.5Q227.5 270.5 227.5 265.8L227.5 265.8L227.5 247.7L217.4 247.7L217.4 239.4L224.0 239.4Q226.4 239.4 227.4 238.5Q228.4 237.5 228.4 235.0L228.4 235.0L228.4 226.3L238.2 226.3L238.2 239.4L252.6 239.4L252.6 247.7L238.2 247.7L238.2 268.3L252.6 268.3L252.6 276.6ZM262.9 276.6L262.9 268.3L271.5 268.3L271.5 247.7L262.9 247.7L262.9 239.4L282.2 239.4L282.2 249.9L282.7 249.9Q283.2 247.9 284.1 246.0Q285.0 244.1 286.4 242.6Q287.8 241.1 289.8 240.3Q291.8 239.4 294.5 239.4L294.5 239.4L298.1 239.4L298.1 249.2L290.1 249.2Q286.2 249.2 284.2 251.5Q282.2 253.9 282.2 257.3L282.2 257.3L282.2 268.3L294.4 268.3L294.4 276.6L262.9 276.6ZM322.4 277.4L322.4 277.4Q318.1 277.4 314.6 276.1Q311.2 274.8 308.8 272.2Q306.3 269.7 305.0 266.1Q303.8 262.5 303.8 258.0L303.8 258.0Q303.8 253.4 305.0 249.8Q306.3 246.2 308.8 243.7Q311.2 241.2 314.6 239.9Q318.1 238.5 322.4 238.5L322.4 238.5Q326.7 238.5 330.2 239.9Q333.6 241.2 336.0 243.7Q338.5 246.2 339.8 249.8Q341.0 253.4 341.0 258.0L341.0 258.0Q341.0 262.5 339.8 266.1Q338.5 269.7 336.0 272.2Q333.6 274.8 330.2 276.1Q326.7 277.4 322.4 277.4ZM322.4 269.5L322.4 269.5Q326.0 269.5 328.0 267.3Q330.0 265.0 330.0 260.9L330.0 260.9L330.0 255.0Q330.0 250.9 328.0 248.7Q326.0 246.5 322.4 246.5L322.4 246.5Q318.8 246.5 316.8 248.7Q314.8 250.9 314.8 255.0L314.8 255.0L314.8 260.9Q314.8 265.0 316.8 267.3Q318.8 269.5 322.4 269.5ZM360.3 276.6L349.5 276.6L349.5 226.3L368.9 226.3Q372.6 226.3 375.5 227.4Q378.3 228.5 380.3 230.6Q382.3 232.7 383.3 235.7Q384.3 238.6 384.3 242.3L384.3 242.3Q384.3 246.0 383.3 248.9Q382.3 251.9 380.3 253.9Q378.3 256.0 375.5 257.1Q372.6 258.3 368.9 258.3L368.9 258.3L360.3 258.3L360.3 276.6ZM360.3 235.0L360.3 249.6L366.2 249.6Q370.0 249.6 371.5 248.1Q372.9 246.7 372.9 243.4L372.9 243.4L372.9 241.2Q372.9 237.9 371.5 236.4Q370.0 235.0 366.2 235.0L366.2 235.0L360.3 235.0ZM428.4 276.6L422.3 276.6Q419.0 276.6 416.9 274.9Q414.9 273.2 414.6 270.0L414.6 270.0L414.2 270.0Q413.2 273.7 410.2 275.5Q407.2 277.4 402.9 277.4L402.9 277.4Q397.5 277.4 394.2 274.5Q390.9 271.6 390.9 266.3L390.9 266.3Q390.9 260.5 395.2 257.7Q399.4 254.9 407.6 254.9L407.6 254.9L413.6 254.9L413.6 253.0Q413.6 249.7 412.1 248.0Q410.5 246.3 406.9 246.3L406.9 246.3Q403.5 246.3 401.4 247.6Q399.3 248.9 397.8 251.0L397.8 251.0L392.0 245.8Q393.8 242.6 397.8 240.6Q401.8 238.5 408.1 238.5L408.1 238.5Q415.7 238.5 420.0 242.0Q424.3 245.5 424.3 252.6L424.3 252.6L424.3 268.8L428.4 268.8L428.4 276.6ZM406.9 270.4L406.9 270.4Q409.7 270.4 411.7 269.1Q413.6 267.7 413.6 265.1L413.6 265.1L413.6 260.6L407.9 260.6Q401.4 260.6 401.4 265.0L401.4 265.0L401.4 266.5Q401.4 268.4 402.9 269.4Q404.4 270.4 406.9 270.4ZM434.6 291.0L434.6 239.4L445.3 239.4L445.3 246.2L445.8 246.2Q447.2 242.9 449.8 240.7Q452.4 238.5 456.8 238.5L456.8 238.5Q459.9 238.5 462.5 239.7Q465.0 240.8 466.9 243.2Q468.7 245.6 469.7 249.3Q470.8 252.9 470.8 258.0L470.8 258.0Q470.8 263.0 469.7 266.7Q468.7 270.4 466.9 272.7Q465.0 275.1 462.5 276.3Q459.9 277.4 456.8 277.4L456.8 277.4Q452.4 277.4 449.8 275.3Q447.2 273.2 445.8 269.8L445.8 269.8L445.3 269.8L445.3 291.0L434.6 291.0ZM452.2 269.1L452.2 269.1Q455.8 269.1 457.8 266.9Q459.7 264.7 459.7 260.9L459.7 260.9L459.7 255.1Q459.7 251.2 457.8 249.0Q455.8 246.8 452.2 246.8L452.2 246.8Q449.4 246.8 447.4 248.2Q445.3 249.6 445.3 252.5L445.3 252.5L445.3 263.4Q445.3 266.4 447.4 267.8Q449.4 269.1 452.2 269.1ZM496.2 277.4L496.2 277.4Q486.8 277.4 482.0 272.2Q477.2 267.0 477.2 258.1L477.2 258.1Q477.2 253.6 478.5 249.9Q479.7 246.3 482.1 243.8Q484.4 241.2 487.7 239.9Q491.1 238.5 495.3 238.5L495.3 238.5Q499.4 238.5 502.8 239.9Q506.1 241.2 508.4 243.6Q510.7 246.1 511.9 249.6Q513.2 253.1 513.2 257.4L513.2 257.4L513.2 260.6L487.8 260.6L487.8 261.2Q487.8 264.8 490.0 267.0Q492.2 269.2 496.6 269.2L496.6 269.2Q499.9 269.2 502.3 267.9Q504.6 266.7 506.4 264.6L506.4 264.6L512.1 270.9Q510.0 273.5 506.1 275.5Q502.2 277.4 496.2 277.4ZM495.3 246.2L495.3 246.2Q491.9 246.2 489.8 248.3Q487.8 250.4 487.8 254.0L487.8 254.0L487.8 254.6L502.8 254.6L502.8 254.0Q502.8 250.3 500.8 248.3Q498.8 246.2 495.3 246.2ZM522.1 276.6L522.1 268.3L530.7 268.3L530.7 247.7L522.1 247.7L522.1 239.4L541.4 239.4L541.4 249.9L541.9 249.9Q542.4 247.9 543.3 246.0Q544.2 244.1 545.6 242.6Q547.0 241.1 549.0 240.3Q551 239.4 553.7 239.4L553.7 239.4L557.3 239.4L557.3 249.2L549.3 249.2Q545.4 249.2 543.4 251.5Q541.4 253.9 541.4 257.3L541.4 257.3L541.4 268.3L553.6 268.3L553.6 276.6L522.1 276.6Z M641.4 276.6L627.7 276.6Q621.9 276.6 619.1 273.5Q616.3 270.5 616.3 265.8L616.3 265.8L616.3 247.7L606.2 247.7L606.2 239.4L612.8 239.4Q615.2 239.4 616.2 238.5Q617.2 237.5 617.2 235.0L617.2 235.0L617.2 226.3L627.0 226.3L627.0 239.4L641.4 239.4L641.4 247.7L627.0 247.7L627.0 268.3L641.4 268.3L641.4 276.6ZM651.1 276.6L651.1 223.3L661.7 223.3L661.7 246.2L662.2 246.2Q662.8 244.6 663.8 243.2Q664.7 241.8 666.0 240.8Q667.4 239.8 669.1 239.1Q670.9 238.5 673.1 238.5L673.1 238.5Q675.8 238.5 678.0 239.4Q680.2 240.3 681.8 242.1Q683.4 243.9 684.3 246.5Q685.2 249.1 685.2 252.5L685.2 252.5L685.2 276.6L674.6 276.6L674.6 253.9Q674.6 246.7 668.3 246.7L668.3 246.7Q667.1 246.7 665.9 247.1Q664.7 247.4 663.8 248.1Q662.8 248.8 662.3 249.8Q661.7 250.8 661.7 252.1L661.7 252.1L661.7 276.6L651.1 276.6ZM712.2 277.4L712.2 277.4Q702.8 277.4 698.0 272.2Q693.2 267.0 693.2 258.1L693.2 258.1Q693.2 253.6 694.5 249.9Q695.7 246.3 698.1 243.8Q700.4 241.2 703.7 239.9Q707.1 238.5 711.3 238.5L711.3 238.5Q715.4 238.5 718.8 239.9Q722.1 241.2 724.4 243.6Q726.7 246.1 727.9 249.6Q729.2 253.1 729.2 257.4L729.2 257.4L729.2 260.6L703.8 260.6L703.8 261.2Q703.8 264.8 706.0 267.0Q708.2 269.2 712.6 269.2L712.6 269.2Q715.9 269.2 718.3 267.9Q720.6 266.7 722.4 264.6L722.4 264.6L728.1 270.9Q726.0 273.5 722.1 275.5Q718.2 277.4 712.2 277.4ZM711.3 246.2L711.3 246.2Q707.9 246.2 705.8 248.3Q703.8 250.4 703.8 254.0L703.8 254.0L703.8 254.6L718.8 254.6L718.8 254.0Q718.8 250.3 716.8 248.3Q714.8 246.2 711.3 246.2ZM743.5 276.6L735.0 276.6L735.0 239.4L743.5 239.4L743.5 244.9L744.0 244.9Q744.9 242.3 746.5 240.4Q748.1 238.5 751.1 238.5L751.1 238.5Q756.5 238.5 757.7 244.9L757.7 244.9L758.1 244.9Q758.6 243.6 759.2 242.4Q759.9 241.3 760.8 240.4Q761.7 239.5 763.0 239.0Q764.3 238.5 766.1 238.5L766.1 238.5Q773.8 238.5 773.8 250.0L773.8 250.0L773.8 276.6L765.3 276.6L765.3 251.1Q765.3 248.5 764.4 247.4Q763.5 246.4 762.0 246.4L762.0 246.4Q760.7 246.4 759.7 247.3Q758.7 248.2 758.7 250.1L758.7 250.1L758.7 276.6L750.1 276.6L750.1 251.1Q750.1 248.5 749.3 247.4Q748.4 246.4 747.0 246.4L747.0 246.4Q745.5 246.4 744.5 247.3Q743.5 248.2 743.5 250.1L743.5 250.1L743.5 276.6ZM798.6 277.4L798.6 277.4Q789.2 277.4 784.4 272.2Q779.6 267.0 779.6 258.1L779.6 258.1Q779.6 253.6 780.9 249.9Q782.1 246.3 784.5 243.8Q786.8 241.2 790.1 239.9Q793.5 238.5 797.7 238.5L797.7 238.5Q801.8 238.5 805.2 239.9Q808.5 241.2 810.8 243.6Q813.1 246.1 814.3 249.6Q815.6 253.1 815.6 257.4L815.6 257.4L815.6 260.6L790.2 260.6L790.2 261.2Q790.2 264.8 792.4 267.0Q794.6 269.2 799.0 269.2L799.0 269.2Q802.3 269.2 804.7 267.9Q807.0 266.7 808.8 264.6L808.8 264.6L814.5 270.9Q812.4 273.5 808.5 275.5Q804.6 277.4 798.6 277.4ZM797.7 246.2L797.7 246.2Q794.3 246.2 792.2 248.3Q790.2 250.4 790.2 254.0L790.2 254.0L790.2 254.6L805.2 254.6L805.2 254.0Q805.2 250.3 803.2 248.3Q801.2 246.2 797.7 246.2Z M151.1 371.0L151.1 371.0Q146.7 371.0 143.2 369.7Q139.7 368.4 137.3 365.8Q134.9 363.3 133.6 359.7Q132.3 356.1 132.3 351.6L132.3 351.6Q132.3 347.0 133.6 343.4Q134.9 339.8 137.3 337.3Q139.7 334.8 143.2 333.5Q146.7 332.1 151.0 332.1L151.0 332.1Q157.2 332.1 160.9 334.6Q164.6 337.1 166.5 341.2L166.5 341.2L158.3 345.7Q157.3 343.5 155.7 342.1Q154.1 340.6 151.0 340.6L151.0 340.6Q147.4 340.6 145.4 342.8Q143.4 344.9 143.4 348.6L143.4 348.6L143.4 354.6Q143.4 358.3 145.4 360.4Q147.4 362.5 151.2 362.5L151.2 362.5Q154.3 362.5 156.0 361.1Q157.8 359.6 159.0 357.3L159.0 357.3L167.1 361.9Q165.1 366.0 161.2 368.5Q157.4 371.0 151.1 371.0ZM192.8 371.0L192.8 371.0Q188.5 371.0 185.0 369.7Q181.6 368.4 179.2 365.8Q176.7 363.3 175.4 359.7Q174.2 356.1 174.2 351.6L174.2 351.6Q174.2 347.0 175.4 343.4Q176.7 339.8 179.2 337.3Q181.6 334.8 185.0 333.5Q188.5 332.1 192.8 332.1L192.8 332.1Q197.1 332.1 200.6 333.5Q204.0 334.8 206.4 337.3Q208.9 339.8 210.2 343.4Q211.4 347.0 211.4 351.6L211.4 351.6Q211.4 356.1 210.2 359.7Q208.9 363.3 206.4 365.8Q204.0 368.4 200.6 369.7Q197.1 371.0 192.8 371.0ZM192.8 363.1L192.8 363.1Q196.4 363.1 198.4 360.9Q200.4 358.6 200.4 354.5L200.4 354.5L200.4 348.6Q200.4 344.5 198.4 342.3Q196.4 340.1 192.8 340.1L192.8 340.1Q189.2 340.1 187.2 342.3Q185.2 344.5 185.2 348.6L185.2 348.6L185.2 354.5Q185.2 358.6 187.2 360.9Q189.2 363.1 192.8 363.1ZM219.3 370.2L219.3 361.9L230.7 361.9L230.7 325.2L219.3 325.2L219.3 316.9L241.3 316.9L241.3 361.9L252.7 361.9L252.7 370.2L219.3 370.2ZM279.2 371.0L279.2 371.0Q274.9 371.0 271.4 369.7Q268.0 368.4 265.6 365.8Q263.1 363.3 261.8 359.7Q260.6 356.1 260.6 351.6L260.6 351.6Q260.6 347.0 261.8 343.4Q263.1 339.8 265.6 337.3Q268.0 334.8 271.4 333.5Q274.9 332.1 279.2 332.1L279.2 332.1Q283.5 332.1 287.0 333.5Q290.4 334.8 292.8 337.3Q295.3 339.8 296.6 343.4Q297.8 347.0 297.8 351.6L297.8 351.6Q297.8 356.1 296.6 359.7Q295.3 363.3 292.8 365.8Q290.4 368.4 287.0 369.7Q283.5 371.0 279.2 371.0ZM279.2 363.1L279.2 363.1Q282.8 363.1 284.8 360.9Q286.8 358.6 286.8 354.5L286.8 354.5L286.8 348.6Q286.8 344.5 284.8 342.3Q282.8 340.1 279.2 340.1L279.2 340.1Q275.6 340.1 273.6 342.3Q271.6 344.5 271.6 348.6L271.6 348.6L271.6 354.5Q271.6 358.6 273.6 360.9Q275.6 363.1 279.2 363.1ZM306.1 370.2L306.1 361.9L314.7 361.9L314.7 341.3L306.1 341.3L306.1 333.0L325.4 333.0L325.4 343.5L325.9 343.5Q326.4 341.5 327.3 339.6Q328.2 337.7 329.6 336.2Q331.0 334.7 333.0 333.9Q335.0 333.0 337.7 333.0L337.7 333.0L341.3 333.0L341.3 342.8L333.3 342.8Q329.4 342.8 327.4 345.1Q325.4 347.5 325.4 350.9L325.4 350.9L325.4 361.9L337.6 361.9L337.6 370.2L306.1 370.2Z M408.4 371.0L408.4 371.0Q402.2 371.0 397.6 369.1Q393.0 367.3 390.7 364.0L390.7 364.0L396.7 358.5Q398.9 360.9 401.8 362.2Q404.7 363.5 408.4 363.5L408.4 363.5Q411.6 363.5 413.4 362.6Q415.2 361.6 415.2 359.6L415.2 359.6Q415.2 358.0 414.0 357.4Q412.8 356.8 410.6 356.4L410.6 356.4L404.6 355.5Q402.1 355.1 399.9 354.3Q397.8 353.6 396.2 352.3Q394.6 351.0 393.7 349.1Q392.7 347.3 392.7 344.6L392.7 344.6Q392.7 338.8 397.2 335.4Q401.7 332.1 409.7 332.1L409.7 332.1Q415.2 332.1 419.1 333.6Q422.9 335.1 425.2 337.8L425.2 337.8L419.9 343.9Q418.2 342.1 415.6 340.8Q413.0 339.6 409.4 339.6L409.4 339.6Q403.2 339.6 403.2 343.4L403.2 343.4Q403.2 345.0 404.4 345.6Q405.6 346.2 407.8 346.6L407.8 346.6L413.7 347.5Q416.2 347.9 418.4 348.7Q420.5 349.4 422.2 350.7Q423.8 352.0 424.7 353.9Q425.6 355.8 425.6 358.4L425.6 358.4Q425.6 364.2 421.1 367.6Q416.6 371.0 408.4 371.0ZM453.5 371.0L453.5 371.0Q449.1 371.0 445.6 369.7Q442.1 368.4 439.7 365.8Q437.3 363.3 436.0 359.7Q434.7 356.1 434.7 351.6L434.7 351.6Q434.7 347.0 436.0 343.4Q437.3 339.8 439.7 337.3Q442.1 334.8 445.6 333.5Q449.1 332.1 453.4 332.1L453.4 332.1Q459.6 332.1 463.3 334.6Q467.0 337.1 468.9 341.2L468.9 341.2L460.7 345.7Q459.7 343.5 458.1 342.1Q456.5 340.6 453.4 340.6L453.4 340.6Q449.8 340.6 447.8 342.8Q445.8 344.9 445.8 348.6L445.8 348.6L445.8 354.6Q445.8 358.3 447.8 360.4Q449.8 362.5 453.6 362.5L453.6 362.5Q456.7 362.5 458.4 361.1Q460.2 359.6 461.4 357.3L461.4 357.3L469.5 361.9Q467.5 366.0 463.6 368.5Q459.8 371.0 453.5 371.0ZM478.3 370.2L478.3 316.9L488.9 316.9L488.9 339.8L489.4 339.8Q490.0 338.2 491.0 336.8Q491.9 335.4 493.2 334.4Q494.6 333.4 496.3 332.7Q498.1 332.1 500.3 332.1L500.3 332.1Q503.0 332.1 505.2 333.0Q507.4 333.9 509.0 335.7Q510.6 337.5 511.5 340.1Q512.4 342.7 512.4 346.1L512.4 346.1L512.4 370.2L501.8 370.2L501.8 347.5Q501.8 340.3 495.5 340.3L495.5 340.3Q494.3 340.3 493.1 340.7Q491.9 341.0 491.0 341.7Q490.0 342.4 489.5 343.4Q488.9 344.4 488.9 345.7L488.9 345.7L488.9 370.2L478.3 370.2ZM539.4 371.0L539.4 371.0Q530.0 371.0 525.2 365.8Q520.4 360.6 520.4 351.7L520.4 351.7Q520.4 347.2 521.7 343.5Q522.9 339.9 525.3 337.4Q527.6 334.8 530.9 333.5Q534.3 332.1 538.5 332.1L538.5 332.1Q542.6 332.1 546.0 333.5Q549.3 334.8 551.6 337.2Q553.9 339.7 555.1 343.2Q556.4 346.7 556.4 351.0L556.4 351.0L556.4 354.2L531.0 354.2L531.0 354.8Q531.0 358.4 533.2 360.6Q535.4 362.8 539.8 362.8L539.8 362.8Q543.1 362.8 545.5 361.5Q547.8 360.3 549.6 358.2L549.6 358.2L555.3 364.5Q553.2 367.1 549.3 369.1Q545.4 371.0 539.4 371.0ZM538.5 339.8L538.5 339.8Q535.1 339.8 533.0 341.9Q531.0 344.0 531.0 347.6L531.0 347.6L531.0 348.2L546.0 348.2L546.0 347.6Q546.0 343.9 544.0 341.9Q542 339.8 538.5 339.8ZM570.7 370.2L562.2 370.2L562.2 333.0L570.7 333.0L570.7 338.5L571.2 338.5Q572.1 335.9 573.7 334.0Q575.3 332.1 578.3 332.1L578.3 332.1Q583.7 332.1 584.9 338.5L584.9 338.5L585.3 338.5Q585.8 337.2 586.4 336.0Q587.1 334.9 588.0 334.0Q588.9 333.1 590.2 332.6Q591.5 332.1 593.3 332.1L593.3 332.1Q601.0 332.1 601.0 343.6L601.0 343.6L601.0 370.2L592.5 370.2L592.5 344.7Q592.5 342.1 591.6 341.0Q590.7 340.0 589.2 340.0L589.2 340.0Q587.9 340.0 586.9 340.9Q585.9 341.8 585.9 343.7L585.9 343.7L585.9 370.2L577.3 370.2L577.3 344.7Q577.3 342.1 576.5 341.0Q575.6 340.0 574.2 340.0L574.2 340.0Q572.7 340.0 571.7 340.9Q570.7 341.8 570.7 343.7L570.7 343.7L570.7 370.2ZM625.8 371.0L625.8 371.0Q616.4 371.0 611.6 365.8Q606.8 360.6 606.8 351.7L606.8 351.7Q606.8 347.2 608.1 343.5Q609.3 339.9 611.7 337.4Q614 334.8 617.3 333.5Q620.7 332.1 624.9 332.1L624.9 332.1Q629.0 332.1 632.4 333.5Q635.7 334.8 638.0 337.2Q640.3 339.7 641.5 343.2Q642.8 346.7 642.8 351.0L642.8 351.0L642.8 354.2L617.4 354.2L617.4 354.8Q617.4 358.4 619.6 360.6Q621.8 362.8 626.2 362.8L626.2 362.8Q629.5 362.8 631.9 361.5Q634.2 360.3 636.0 358.2L636.0 358.2L641.7 364.5Q639.6 367.1 635.7 369.1Q631.8 371.0 625.8 371.0ZM624.9 339.8L624.9 339.8Q621.5 339.8 619.4 341.9Q617.4 344.0 617.4 347.6L617.4 347.6L617.4 348.2L632.4 348.2L632.4 347.6Q632.4 343.9 630.4 341.9Q628.4 339.8 624.9 339.8ZM667.6 371.0L667.6 371.0Q661.4 371.0 656.8 369.1Q652.2 367.3 649.9 364.0L649.9 364.0L655.9 358.5Q658.1 360.9 661.0 362.2Q663.9 363.5 667.6 363.5L667.6 363.5Q670.8 363.5 672.6 362.6Q674.4 361.6 674.4 359.6L674.4 359.6Q674.4 358.0 673.2 357.4Q672.0 356.8 669.8 356.4L669.8 356.4L663.8 355.5Q661.3 355.1 659.1 354.3Q657.0 353.6 655.4 352.3Q653.8 351.0 652.9 349.1Q651.9 347.3 651.9 344.6L651.9 344.6Q651.9 338.8 656.4 335.4Q660.9 332.1 668.9 332.1L668.9 332.1Q674.4 332.1 678.3 333.6Q682.1 335.1 684.4 337.8L684.4 337.8L679.1 343.9Q677.4 342.1 674.8 340.8Q672.2 339.6 668.6 339.6L668.6 339.6Q662.4 339.6 662.4 343.4L662.4 343.4Q662.4 345.0 663.6 345.6Q664.8 346.2 667.0 346.6L667.0 346.6L672.9 347.5Q675.4 347.9 677.6 348.7Q679.7 349.4 681.4 350.7Q683.0 352.0 683.9 353.9Q684.8 355.8 684.8 358.4L684.8 358.4Q684.8 364.2 680.3 367.6Q675.8 371.0 667.6 371.0Z " clip-path="url(#satori_cp-id-1-0-0)" mask="url(#satori_om-id-1-0-0)"/><path fill="black" d="M130.7 520.3L130.7 499.6L132.9 499.6L132.9 508.2L133.0 508.2Q134.4 505.5 137.5 505.5L137.5 505.5Q140.1 505.5 141.6 507.5Q143.1 509.5 143.1 513.0L143.1 513.0Q143.1 516.6 141.6 518.6Q140.1 520.6 137.5 520.6L137.5 520.6Q134.4 520.6 133.0 517.9L133.0 517.9L132.9 517.9L132.9 520.3L130.7 520.3ZM136.6 518.6L136.6 518.6Q138.6 518.6 139.6 517.4Q140.7 516.2 140.7 514.3L140.7 514.3L140.7 511.8Q140.7 509.9 139.6 508.7Q138.6 507.5 136.6 507.5L136.6 507.5Q135.8 507.5 135.2 507.7Q134.5 507.9 134.0 508.2Q133.5 508.6 133.2 509.2Q132.9 509.7 132.9 510.4L132.9 510.4L132.9 515.7Q132.9 516.4 133.2 516.9Q133.5 517.5 134.0 517.8Q134.5 518.2 135.2 518.4Q135.8 518.6 136.6 518.6ZM155.4 511.9L157.9 505.8L160.1 505.8L152.9 523.4Q152.7 524.1 152.4 524.5Q152.1 525.0 151.7 525.3Q151.2 525.6 150.7 525.7Q150.1 525.9 149.3 525.9L149.3 525.9L147.1 525.9L147.1 524.0L150.5 524.0L152.1 520.0L146.3 505.8L148.6 505.8L151.0 511.9L153.2 517.4L153.3 517.4L155.4 511.9Z "/><clipPath id="satori_cp-id-1-0-1-0-2"><rect x="178" y="489" width="151" height="36"/></clipPath><mask id="satori_om-id-1-0-1-0-2"><rect x="178" y="489" width="151" height="36" fill="#fff"/></mask><path fill="black" d="M186.1 520.4L186.1 520.4Q183.6 520.4 181.8 519.6Q180.0 518.8 178.9 517.4L178.9 517.4L181.3 514.7Q182.4 515.9 183.6 516.5Q184.9 517.0 186.2 517.0L186.2 517.0Q187.7 517.0 188.5 516.3Q189.3 515.7 189.3 514.4L189.3 514.4Q189.3 513.4 188.7 512.8Q188.1 512.3 186.7 512.1L186.7 512.1L184.6 511.7Q182.0 511.3 180.8 509.8Q179.7 508.3 179.7 506.1L179.7 506.1Q179.7 503.3 181.5 501.8Q183.3 500.2 186.7 500.2L186.7 500.2Q188.9 500.2 190.6 500.9Q192.3 501.6 193.3 502.8L193.3 502.8L191.0 505.5Q190.2 504.6 189.1 504.1Q188.1 503.6 186.7 503.6L186.7 503.6Q183.9 503.6 183.9 506.0L183.9 506.0Q183.9 507.0 184.5 507.5Q185.1 508.0 186.6 508.2L186.6 508.2L188.6 508.6Q191.0 509.0 192.3 510.4Q193.6 511.7 193.6 514.1L193.6 514.1Q193.6 515.4 193.1 516.6Q192.6 517.8 191.7 518.6Q190.7 519.5 189.3 520.0Q187.9 520.4 186.1 520.4ZM210.8 520.1L208.4 520.1Q207.1 520.1 206.4 519.4Q205.6 518.8 205.4 517.5L205.4 517.5L205.3 517.5Q204.9 519.0 203.7 519.7Q202.6 520.4 200.9 520.4L200.9 520.4Q198.8 520.4 197.5 519.3Q196.3 518.2 196.3 516.1L196.3 516.1Q196.3 513.8 197.9 512.8Q199.6 511.7 202.8 511.7L202.8 511.7L205.1 511.7L205.1 510.9Q205.1 509.6 204.5 509.0Q203.9 508.3 202.4 508.3L202.4 508.3Q201.1 508.3 200.3 508.8Q199.5 509.3 198.9 510.2L198.9 510.2L196.6 508.1Q197.4 506.9 198.9 506.1Q200.5 505.3 202.9 505.3L202.9 505.3Q205.9 505.3 207.6 506.7Q209.2 508.0 209.2 510.8L209.2 510.8L209.2 517.1L210.8 517.1L210.8 520.1ZM202.5 517.7L202.5 517.7Q203.6 517.7 204.3 517.2Q205.1 516.6 205.1 515.6L205.1 515.6L205.1 513.9L202.9 513.9Q200.3 513.9 200.3 515.6L200.3 515.6L200.3 516.2Q200.3 516.9 200.9 517.3Q201.5 517.7 202.5 517.7ZM226.5 520.1L221.1 520.1Q218.9 520.1 217.8 518.9Q216.7 517.7 216.7 515.9L216.7 515.9L216.7 508.9L212.8 508.9L212.8 505.6L215.3 505.6Q216.2 505.6 216.6 505.3Q217.0 504.9 217.0 503.9L217.0 503.9L217.0 500.5L220.8 500.5L220.8 505.6L226.5 505.6L226.5 508.9L220.8 508.9L220.8 516.9L226.5 516.9L226.5 520.1Z M255.3 520.1L250.8 507.1L250.5 507.1L250.5 520.1L246.9 520.1L246.9 500.5L251.9 500.5L256.4 513.5L256.7 513.5L256.7 500.5L260.3 500.5L260.3 520.1L255.3 520.1ZM278.0 520.1L275.6 520.1Q274.3 520.1 273.6 519.4Q272.8 518.8 272.6 517.5L272.6 517.5L272.5 517.5Q272.1 519.0 270.9 519.7Q269.8 520.4 268.1 520.4L268.1 520.4Q266.0 520.4 264.7 519.3Q263.5 518.2 263.5 516.1L263.5 516.1Q263.5 513.8 265.1 512.8Q266.8 511.7 270.0 511.7L270.0 511.7L272.3 511.7L272.3 510.9Q272.3 509.6 271.7 509.0Q271.1 508.3 269.6 508.3L269.6 508.3Q268.3 508.3 267.5 508.8Q266.7 509.3 266.1 510.2L266.1 510.2L263.8 508.1Q264.6 506.9 266.1 506.1Q267.7 505.3 270.1 505.3L270.1 505.3Q273.1 505.3 274.8 506.7Q276.4 508.0 276.4 510.8L276.4 510.8L276.4 517.1L278.0 517.1L278.0 520.1ZM269.7 517.7L269.7 517.7Q270.8 517.7 271.5 517.2Q272.3 516.6 272.3 515.6L272.3 515.6L272.3 513.9L270.1 513.9Q267.5 513.9 267.5 515.6L267.5 515.6L267.5 516.2Q267.5 516.9 268.1 517.3Q268.7 517.7 269.7 517.7ZM288.1 503.8L288.1 503.8Q286.7 503.8 286.2 503.2Q285.6 502.6 285.6 501.8L285.6 501.8L285.6 501.0Q285.6 500.2 286.2 499.6Q286.7 499.1 288.1 499.1L288.1 499.1Q289.5 499.1 290.0 499.6Q290.6 500.2 290.6 501.0L290.6 501.0L290.6 501.8Q290.6 502.6 290.0 503.2Q289.5 503.8 288.1 503.8ZM281.4 520.1L281.4 516.9L286.0 516.9L286.0 508.9L281.4 508.9L281.4 505.6L290.2 505.6L290.2 516.9L294.4 516.9L294.4 520.1L281.4 520.1ZM301.6 520.1L297.4 520.1L297.4 505.6L301.6 505.6L301.6 508.3L301.7 508.3Q302.0 507.7 302.3 507.1Q302.7 506.6 303.2 506.2Q303.7 505.8 304.4 505.5Q305.1 505.3 306.0 505.3L306.0 505.3Q307.0 505.3 307.9 505.7Q308.8 506.0 309.4 506.7Q310.0 507.4 310.3 508.4Q310.7 509.4 310.7 510.7L310.7 510.7L310.7 520.1L306.5 520.1L306.5 511.3Q306.5 508.5 304.1 508.5L304.1 508.5Q303.6 508.5 303.2 508.6Q302.7 508.8 302.3 509.0Q302.0 509.3 301.8 509.7Q301.6 510.1 301.6 510.6L301.6 510.6L301.6 520.1ZM328.7 521.5L328.7 521.5Q328.7 523.8 326.8 524.9Q324.9 526.0 320.7 526.0L320.7 526.0Q318.6 526.0 317.3 525.8Q316.0 525.6 315.2 525.1Q314.4 524.7 314.0 524.0Q313.7 523.4 313.7 522.7L313.7 522.7Q313.7 521.5 314.4 520.8Q315.2 520.2 316.5 519.9L316.5 519.9L316.5 519.7Q315.6 519.4 315.0 518.9Q314.5 518.4 314.5 517.4L314.5 517.4Q314.5 516.4 315.2 515.9Q315.9 515.4 317.1 515.1L317.1 515.1L317.1 514.9Q315.8 514.3 315.1 513.2Q314.4 512.1 314.4 510.5L314.4 510.5Q314.4 509.2 314.8 508.2Q315.3 507.3 316.1 506.6Q316.9 506.0 318.1 505.6Q319.2 505.3 320.6 505.3L320.6 505.3Q322.0 505.3 323.2 505.6L323.2 505.6L323.2 504.8Q323.2 504.0 323.8 503.4Q324.4 502.9 325.4 502.9L325.4 502.9L327.9 502.9L327.9 505.9L324.5 505.9L324.5 506.1Q325.6 506.8 326.3 507.8Q327.0 508.9 327.0 510.5L327.0 510.5Q327.0 511.7 326.5 512.7Q326.1 513.6 325.2 514.3Q324.4 514.9 323.2 515.3Q322.1 515.6 320.6 515.6L320.6 515.6Q320.0 515.6 319.4 515.5Q318.8 515.5 318.3 515.3L318.3 515.3Q318.0 515.5 317.8 515.8Q317.6 516.0 317.6 516.4L317.6 516.4Q317.6 516.7 317.7 516.9Q317.9 517.1 318.2 517.2Q318.5 517.3 318.9 517.3Q319.3 517.4 319.7 517.4L319.7 517.4L323.0 517.4Q324.5 517.4 325.6 517.7Q326.7 518.0 327.4 518.6Q328.1 519.1 328.4 519.9Q328.7 520.6 328.7 521.5ZM324.8 521.9L324.8 521.9Q324.8 521.3 324.4 521.0Q323.9 520.7 322.6 520.7L322.6 520.7L317.7 520.7Q317.1 521.1 317.1 521.8L317.1 521.8Q317.1 522.5 317.7 522.9Q318.3 523.4 319.7 523.4L319.7 523.4L322.1 523.4Q323.5 523.4 324.2 523.0Q324.8 522.6 324.8 521.9ZM320.6 513.0L320.6 513.0Q321.9 513.0 322.5 512.4Q323.0 511.7 323.0 510.8L323.0 510.8L323.0 510.1Q323.0 509.2 322.5 508.6Q321.9 507.9 320.6 507.9L320.6 507.9Q319.4 507.9 318.8 508.6Q318.3 509.2 318.3 510.1L318.3 510.1L318.3 510.8Q318.3 511.7 318.8 512.4Q319.4 513.0 320.6 513.0Z " clip-path="url(#satori_cp-id-1-0-1-0-2)" mask="url(#satori_om-id-1-0-1-0-2)"/><clipPath id="satori_cp-id-1-0-1-1"><rect x="903" y="489" width="168" height="36"/></clipPath><mask id="satori_om-id-1-0-1-1"><rect x="903" y="489" width="168" height="36" fill="#fff"/></mask><path fill="black" d="M919.7 520.1L915.2 520.1L913.9 515.4L908.6 515.4L907.4 520.1L903.1 520.1L908.4 500.5L914.4 500.5L919.7 520.1ZM913.3 512.0L911.4 504.6L911.2 504.6L909.3 512.0L913.3 512.0ZM928.0 520.4L928.0 520.4Q925.6 520.4 923.8 519.7Q922.1 519.0 921.2 517.7L921.2 517.7L923.5 515.6Q924.3 516.5 925.5 517.0Q926.6 517.5 928.1 517.5L928.1 517.5Q929.3 517.5 930.0 517.1Q930.7 516.8 930.7 516.0L930.7 516.0Q930.7 515.4 930.2 515.1Q929.7 514.9 928.9 514.7L928.9 514.7L926.6 514.4Q925.6 514.2 924.8 513.9Q923.9 513.7 923.3 513.1Q922.7 512.6 922.3 511.9Q922.0 511.2 922.0 510.2L922.0 510.2Q922.0 507.9 923.7 506.6Q925.4 505.3 928.6 505.3L928.6 505.3Q930.7 505.3 932.2 505.9Q933.7 506.5 934.6 507.5L934.6 507.5L932.5 509.9Q931.9 509.2 930.9 508.7Q929.9 508.2 928.4 508.2L928.4 508.2Q926.0 508.2 926.0 509.7L926.0 509.7Q926.0 510.3 926.5 510.6Q927.0 510.8 927.8 510.9L927.8 510.9L930.1 511.3Q931.1 511.4 931.9 511.7Q932.8 512.0 933.4 512.5Q934.0 513.0 934.4 513.8Q934.8 514.5 934.8 515.5L934.8 515.5Q934.8 517.8 933.0 519.1Q931.3 520.4 928.0 520.4ZM951.5 520.1L946.1 520.1Q943.9 520.1 942.8 518.9Q941.7 517.7 941.7 515.9L941.7 515.9L941.7 508.9L937.8 508.9L937.8 505.6L940.3 505.6Q941.2 505.6 941.6 505.3Q942.0 504.9 942.0 503.9L942.0 503.9L942.0 500.5L945.8 500.5L945.8 505.6L951.5 505.6L951.5 508.9L945.8 508.9L945.8 516.9L951.5 516.9L951.5 520.1ZM955.5 520.1L955.5 516.9L958.8 516.9L958.8 508.9L955.5 508.9L955.5 505.6L962.9 505.6L962.9 509.7L963.1 509.7Q963.3 508.9 963.7 508.2Q964.0 507.5 964.6 506.9Q965.1 506.3 965.9 506.0Q966.7 505.6 967.8 505.6L967.8 505.6L969.1 505.6L969.1 509.5L966.1 509.5Q964.5 509.5 963.7 510.4Q962.9 511.3 962.9 512.6L962.9 512.6L962.9 516.9L967.7 516.9L967.7 520.1L955.5 520.1ZM978.6 520.4L978.6 520.4Q976.9 520.4 975.6 519.9Q974.2 519.4 973.3 518.4Q972.4 517.4 971.9 516.0Q971.3 514.6 971.3 512.9L971.3 512.9Q971.3 511.1 971.9 509.7Q972.4 508.3 973.3 507.3Q974.2 506.3 975.6 505.8Q976.9 505.3 978.6 505.3L978.6 505.3Q980.3 505.3 981.6 505.8Q983.0 506.3 983.9 507.3Q984.8 508.3 985.3 509.7Q985.9 511.1 985.9 512.9L985.9 512.9Q985.9 514.6 985.3 516.0Q984.8 517.4 983.9 518.4Q983.0 519.4 981.6 519.9Q980.3 520.4 978.6 520.4ZM978.6 517.3L978.6 517.3Q980.0 517.3 980.8 516.5Q981.6 515.6 981.6 514.0L981.6 514.0L981.6 511.7Q981.6 510.1 980.8 509.3Q980.0 508.4 978.6 508.4L978.6 508.4Q977.2 508.4 976.4 509.3Q975.6 510.1 975.6 511.7L975.6 511.7L975.6 514.0Q975.6 515.6 976.4 516.5Q977.2 517.3 978.6 517.3ZM993.4 520.1L989.1 520.1L989.1 500.5L996.7 500.5Q998.1 500.5 999.2 501.0Q1000.4 501.4 1001.1 502.2Q1001.9 503.0 1002.3 504.2Q1002.7 505.3 1002.7 506.8L1002.7 506.8Q1002.7 508.2 1002.3 509.3Q1001.9 510.5 1001.1 511.3Q1000.4 512.1 999.2 512.5Q998.1 513.0 996.7 513.0L996.7 513.0L993.4 513.0L993.4 520.1ZM993.4 503.9L993.4 509.6L995.6 509.6Q997.1 509.6 997.7 509.0Q998.3 508.5 998.3 507.2L998.3 507.2L998.3 506.3Q998.3 505.1 997.7 504.5Q997.1 503.9 995.6 503.9L995.6 503.9L993.4 503.9ZM1019.8 520.1L1017.4 520.1Q1016.1 520.1 1015.4 519.4Q1014.6 518.8 1014.4 517.5L1014.4 517.5L1014.3 517.5Q1013.9 519.0 1012.7 519.7Q1011.6 520.4 1009.9 520.4L1009.9 520.4Q1007.8 520.4 1006.5 519.3Q1005.3 518.2 1005.3 516.1L1005.3 516.1Q1005.3 513.8 1006.9 512.8Q1008.6 511.7 1011.8 511.7L1011.8 511.7L1014.1 511.7L1014.1 510.9Q1014.1 509.6 1013.5 509.0Q1012.9 508.3 1011.4 508.3L1011.4 508.3Q1010.1 508.3 1009.3 508.8Q1008.5 509.3 1007.9 510.2L1007.9 510.2L1005.6 508.1Q1006.4 506.9 1007.9 506.1Q1009.5 505.3 1011.9 505.3L1011.9 505.3Q1014.9 505.3 1016.6 506.7Q1018.2 508.0 1018.2 510.8L1018.2 510.8L1018.2 517.1L1019.8 517.1L1019.8 520.1ZM1011.5 517.7L1011.5 517.7Q1012.6 517.7 1013.3 517.2Q1014.1 516.6 1014.1 515.6L1014.1 515.6L1014.1 513.9L1011.9 513.9Q1009.3 513.9 1009.3 515.6L1009.3 515.6L1009.3 516.2Q1009.3 516.9 1009.9 517.3Q1010.5 517.7 1011.5 517.7ZM1022.3 525.7L1022.3 505.6L1026.4 505.6L1026.4 508.3L1026.6 508.3Q1027.1 507.0 1028.1 506.1Q1029.1 505.3 1030.9 505.3L1030.9 505.3Q1032.1 505.3 1033.1 505.8Q1034.1 506.2 1034.8 507.1Q1035.5 508.1 1035.9 509.5Q1036.3 510.9 1036.3 512.9L1036.3 512.9Q1036.3 514.8 1035.9 516.3Q1035.5 517.7 1034.8 518.6Q1034.1 519.5 1033.1 520.0Q1032.1 520.4 1030.9 520.4L1030.9 520.4Q1029.1 520.4 1028.1 519.6Q1027.1 518.8 1026.6 517.5L1026.6 517.5L1026.4 517.5L1026.4 525.7L1022.3 525.7ZM1029.1 517.2L1029.1 517.2Q1030.5 517.2 1031.2 516.4Q1032.0 515.5 1032.0 514.0L1032.0 514.0L1032.0 511.7Q1032.0 510.2 1031.2 509.4Q1030.5 508.5 1029.1 508.5L1029.1 508.5Q1028.0 508.5 1027.2 509.1Q1026.4 509.6 1026.4 510.7L1026.4 510.7L1026.4 515.0Q1026.4 516.1 1027.2 516.7Q1028.0 517.2 1029.1 517.2ZM1046.2 520.4L1046.2 520.4Q1042.6 520.4 1040.7 518.4Q1038.8 516.4 1038.8 512.9L1038.8 512.9Q1038.8 511.2 1039.3 509.7Q1039.8 508.3 1040.7 507.3Q1041.6 506.3 1042.9 505.8Q1044.2 505.3 1045.8 505.3L1045.8 505.3Q1047.5 505.3 1048.7 505.8Q1050.0 506.3 1050.9 507.3Q1051.8 508.2 1052.3 509.6Q1052.8 511.0 1052.8 512.6L1052.8 512.6L1052.8 513.9L1042.9 513.9L1042.9 514.1Q1042.9 515.5 1043.8 516.4Q1044.7 517.2 1046.3 517.2L1046.3 517.2Q1047.6 517.2 1048.5 516.7Q1049.5 516.3 1050.1 515.4L1050.1 515.4L1052.4 517.9Q1051.5 518.9 1050.0 519.7Q1048.5 520.4 1046.2 520.4ZM1045.9 508.3L1045.9 508.3Q1044.5 508.3 1043.7 509.1Q1042.9 509.9 1042.9 511.3L1042.9 511.3L1042.9 511.6L1048.7 511.6L1048.7 511.3Q1048.7 509.9 1048.0 509.1Q1047.2 508.3 1045.9 508.3ZM1056.3 520.1L1056.3 516.9L1059.6 516.9L1059.6 508.9L1056.3 508.9L1056.3 505.6L1063.7 505.6L1063.7 509.7L1063.9 509.7Q1064.1 508.9 1064.5 508.2Q1064.8 507.5 1065.4 506.9Q1065.9 506.3 1066.7 506.0Q1067.5 505.6 1068.6 505.6L1068.6 505.6L1069.9 505.6L1069.9 509.5L1066.9 509.5Q1065.3 509.5 1064.5 510.4Q1063.7 511.3 1063.7 512.6L1063.7 512.6L1063.7 516.9L1068.5 516.9L1068.5 520.1L1056.3 520.1Z " clip-path="url(#satori_cp-id-1-0-1-1)" mask="url(#satori_om-id-1-0-1-1)"/></svg>