<svg width="1200" height="630" viewBox="0 0 1200 630" xmlns="http://www.w3.org/2000/svg"><rect x="0" y="0" width="1200" height="630" fill="#fefbfb"/><defs><clipPath id="satori_bc-id-0"><path x="105" y="39" width="1056" height="504" d="M109,39 h1048 a4,4 0 0 1 4,4 v496 a4,4 0 0 1 -4,4 h-1048 a4,4 0 0 1 -4,-4 v-496 a4,4 0 0 1 4,-4"/></clipPath></defs><g opacity="0.9"><path x="105" y="39" width="1056" height="504" fill="#ecebeb" d="M109,39 h1048 a4,4 0 0 1 4,4 v496 a4,4 0 0 1 -4,4 h-1048 a4,4 0 0 1 -4,-4 v-496 a4,4 0 0 1 4,-4"/><path width="1056" height="504" clip-path="url(#satori_bc-id-0)" fill="none" stroke="#000" stroke-width="8" d="M106.172,40.172 A4,4 0 0 1 109,39 h1048 a4,4 0 0 1 4,4 v496 a4,4 0 0 1 -4,4 h-1048 a4,4 0 0 1 -4,-4 v-496 A4,4 0 0 1 106.172,40.172"/></g><defs><clipPath id="satori_bc-id-1"><path x="72" y="63" width="1056" height="504" d="M76,63 h1048 a4,4 0 0 1 4,4 v496 a4,4 0 0 1 -4,4 h-1048 a4,4 0 0 1 -4,-4 v-496 a4,4 0 0 1 4,-4"/></clipPath></defs><path x="72" y="63" width="1056" height="504" fill="#fefbfb" d="M76,63 h1048 a4,4 0 0 1 4,4 v496 a4,4 0 0 1 -4,4 h-1048 a4,4 0 0 1 -4,-4 v-496 a4,4 0 0 1 4,-4"/><path width="1056" height="504" clip-path="url(#satori_bc-id-1)" fill="none" stroke="#000" stroke-width="8" d="M73.172,64.172 A4,4 0 0 1 76,63 h1048 a4,4 0 0 1 4,4 v496 a4,4 0 0 1 -4,4 h-1048 a4,4 0 0 1 -4,-4 v-496 A4,4 0 0 1 73.172,64.172"/><clipPath id="satori_cp-id-1-0-0"><rect x="128" y="103" width="944" height="281"/></clipPath><mask id="satori_om-id-1-0-0"><rect x="128" y="103" width="944" height="281" fill="#fff"/></mask><path fill="black" d="M132.6 183.0L132.6 132.7L148.8 132.7Q159.0 132.7 163.9 139.2Q168.8 145.7 168.8 157.8L168.8 157.8Q168.8 170.0 163.9 176.5Q159.0 183.0 148.8 183.0L148.8 183.0L132.6 183.0ZM143.3 174.5L148.1 174.5Q152.9 174.5 155.1 171.4Q157.4 168.3 157.4 162.4L157.4 162.4L157.4 153.2Q157.4 147.4 155.1 144.3Q152.9 141.2 148.1 141.2L148.1 141.2L143.3 141.2L143.3 174.5ZM196.6 161.4L202.2 145.8L213.0 145.8L195.5 188.9Q193.9 193.0 191.1 195.2Q188.4 197.4 183.7 197.4L183.7 197.4L176.3 197.4L176.3 189.1L185.2 189.1L187.5 182.7L172.6 145.8L184.0 145.8L189.4 161.4L192.8 172.2L193.4 172.2L196.6 161.4ZM229.7 183.0L219.1 183.0L219.1 145.8L229.7 145.8L229.7 152.6L230.2 152.6Q230.8 151.0 231.8 149.6Q232.7 148.2 234.0 147.2Q235.4 146.2 237.1 145.5Q238.9 144.9 241.1 144.9L241.1 144.9Q243.8 144.9 246.0 145.8Q248.2 146.7 249.8 148.5Q251.4 150.3 252.3 152.9Q253.2 155.5 253.2 158.9L253.2 158.9L253.2 183.0L242.6 183.0L242.6 160.3Q242.6 153.1 236.3 153.1L236.3 153.1Q235.1 153.1 233.9 153.5Q232.7 153.8 231.8 154.5Q230.8 155.2 230.3 156.2Q229.7 157.2 229.7 158.5L229.7 158.5L229.7 183.0ZM298.8 183.0L292.7 183.0Q289.4 183.0 287.3 181.3Q285.3 179.6 285.0 176.4L285.0 176.4L284.6 176.4Q283.6 180.1 280.6 181.9Q277.6 183.8 273.3 183.8L273.3 183.8Q267.9 183.8 264.6 180.9Q261.3 178.0 261.3 172.7L261.3 172.7Q261.3 166.9 265.6 164.1Q269.8 161.3 278.0 161.3L278.0 161.3L284.0 161.3L284.0 159.4Q284.0 156.1 282.5 154.4Q280.9 152.7 277.3 152.7L277.3 152.7Q273.9 152.7 271.8 154.0Q269.7 155.3 268.2 157.4L268.2 157.4L262.4 152.2Q264.2 149.0 268.2 147.0Q272.2 144.9 278.5 144.9L278.5 144.9Q286.1 144.9 290.4 148.4Q294.7 151.9 294.7 159.0L294.7 159.0L294.7 175.2L298.8 175.2L298.8 183.0ZM277.3 176.8L277.3 176.8Q280.1 176.8 282.1 175.5Q284.0 174.1 284.0 171.5L284.0 171.5L284.0 167.0L278.3 167.0Q271.8 167.0 271.8 171.4L271.8 171.4L271.8 172.9Q271.8 174.8 273.3 175.8Q274.8 176.8 277.3 176.8ZM311.5 183.0L303.0 183.0L303.0 145.8L311.5 145.8L311.5 151.3L312.0 151.3Q312.9 148.7 314.5 146.8Q316.1 144.9 319.1 144.9L319.1 144.9Q324.5 144.9 325.7 151.3L325.7 151.3L326.1 151.3Q326.6 150.0 327.2 148.8Q327.9 147.7 328.8 146.8Q329.7 145.9 331.0 145.4Q332.3 144.9 334.1 144.9L334.1 144.9Q341.8 144.9 341.8 156.4L341.8 156.4L341.8 183.0L333.3 183.0L333.3 157.5Q333.3 154.9 332.4 153.8Q331.5 152.8 330.0 152.8L330.0 152.8Q328.7 152.8 327.7 153.7Q326.7 154.6 326.7 156.5L326.7 156.5L326.7 183.0L318.1 183.0L318.1 157.5Q318.1 154.9 317.3 153.8Q316.4 152.8 315.0 152.8L315.0 152.8Q313.5 152.8 312.5 153.7Q311.5 154.6 311.5 156.5L311.5 156.5L311.5 183.0ZM367.9 141.0L367.9 141.0Q364.3 141.0 362.9 139.6Q361.5 138.1 361.5 136.0L361.5 136.0L361.5 133.9Q361.5 131.8 362.9 130.3Q364.3 128.9 367.9 128.9L367.9 128.9Q371.5 128.9 372.9 130.3Q374.3 131.8 374.3 133.9L374.3 133.9L374.3 136.0Q374.3 138.1 372.9 139.6Q371.5 141.0 367.9 141.0ZM350.8 183.0L350.8 174.7L362.6 174.7L362.6 154.1L350.8 154.1L350.8 145.8L373.2 145.8L373.2 174.7L384.2 174.7L384.2 183.0L350.8 183.0ZM410.3 183.8L410.3 183.8Q405.9 183.8 402.4 182.5Q398.9 181.2 396.5 178.6Q394.1 176.1 392.8 172.5Q391.5 168.9 391.5 164.4L391.5 164.4Q391.5 159.8 392.8 156.2Q394.1 152.6 396.5 150.1Q398.9 147.6 402.4 146.3Q405.9 144.9 410.2 144.9L410.2 144.9Q416.4 144.9 420.1 147.4Q423.8 149.9 425.7 154.0L425.7 154.0L417.5 158.5Q416.5 156.3 414.9 154.9Q413.3 153.4 410.2 153.4L410.2 153.4Q406.6 153.4 404.6 155.6Q402.6 157.7 402.6 161.4L402.6 161.4L402.6 167.4Q402.6 171.1 404.6 173.2Q406.6 175.3 410.4 175.3L410.4 175.3Q413.5 175.3 415.2 173.9Q417.0 172.4 418.2 170.1L418.2 170.1L426.3 174.7Q424.3 178.8 420.4 181.3Q416.6 183.8 410.3 183.8Z M495.2 183.8L495.2 183.8Q485.1 183.8 480.3 177.0Q475.5 170.1 475.5 157.8L475.5 157.8Q475.5 145.5 480.3 138.7Q485.1 131.8 495.2 131.8L495.2 131.8Q505.3 131.8 510.1 138.7Q514.9 145.5 514.9 157.8L514.9 157.8Q514.9 170.1 510.1 177.0Q505.3 183.8 495.2 183.8ZM495.2 175.1L495.2 175.1Q499.8 175.1 501.6 171.7Q503.3 168.3 503.3 162.1L503.3 162.1L503.3 153.4Q503.3 147.4 501.6 144.0Q499.8 140.5 495.2 140.5L495.2 140.5Q490.6 140.5 488.8 144.0Q487.1 147.4 487.1 153.4L487.1 153.4L487.1 162.2Q487.1 168.3 488.8 171.7Q490.6 175.1 495.2 175.1ZM546.4 183.0L546.4 175.8L545.7 175.8Q545.1 177.4 544.2 178.8Q543.2 180.3 541.9 181.4Q540.5 182.5 538.7 183.2Q536.8 183.8 534.5 183.8L534.5 183.8Q530.8 183.8 528.0 182.1Q525.2 180.4 523.2 177.0Q521.3 173.7 520.3 169.0Q519.3 164.2 519.3 158.3L519.3 158.3Q519.3 145.4 524.0 138.6Q528.7 131.8 538.5 131.8L538.5 131.8Q542.4 131.8 545.3 132.9Q548.3 133.9 550.4 135.8Q552.5 137.7 553.9 140.4Q555.2 143.1 556.0 146.3L556.0 146.3L546.0 148.8Q545.5 147.2 545.0 145.7Q544.4 144.2 543.6 143.1Q542.7 141.9 541.4 141.2Q540.1 140.5 538.3 140.5L538.3 140.5Q534.2 140.5 532.5 143.9Q530.8 147.3 530.8 153.4L530.8 153.4L530.8 161.6Q530.8 167.8 532.6 171.4Q534.4 175.1 539.1 175.1L539.1 175.1Q542.8 175.1 544.6 172.9Q546.4 170.8 546.4 167.4L546.4 167.4L546.4 163.7L537.8 163.7L537.8 156.1L556.0 156.1L556.0 183.0L546.4 183.0Z M627.1 141.0L627.1 141.0Q623.5 141.0 622.1 139.6Q620.7 138.1 620.7 136.0L620.7 136.0L620.7 133.9Q620.7 131.8 622.1 130.3Q623.5 128.9 627.1 128.9L627.1 128.9Q630.7 128.9 632.1 130.3Q633.5 131.8 633.5 133.9L633.5 133.9L633.5 136.0Q633.5 138.1 632.1 139.6Q630.7 141.0 627.1 141.0ZM610.0 183.0L610.0 174.7L621.8 174.7L621.8 154.1L610.0 154.1L610.0 145.8L632.4 145.8L632.4 174.7L643.4 174.7L643.4 183.0L610.0 183.0ZM657.1 183.0L648.6 183.0L648.6 145.8L657.1 145.8L657.1 151.3L657.6 151.3Q658.5 148.7 660.1 146.8Q661.7 144.9 664.7 144.9L664.7 144.9Q670.1 144.9 671.3 151.3L671.3 151.3L671.7 151.3Q672.2 150.0 672.8 148.8Q673.5 147.7 674.4 146.8Q675.3 145.9 676.6 145.4Q677.9 144.9 679.7 144.9L679.7 144.9Q687.4 144.9 687.4 156.4L687.4 156.4L687.4 183.0L678.9 183.0L678.9 157.5Q678.9 154.9 678.0 153.8Q677.1 152.8 675.6 152.8L675.6 152.8Q674.3 152.8 673.3 153.7Q672.3 154.6 672.3 156.5L672.3 156.5L672.3 183.0L663.7 183.0L663.7 157.5Q663.7 154.9 662.9 153.8Q662.0 152.8 660.6 152.8L660.6 152.8Q659.1 152.8 658.1 153.7Q657.1 154.6 657.1 156.5L657.1 156.5L657.1 183.0ZM730.8 183.0L724.7 183.0Q721.4 183.0 719.3 181.3Q717.3 179.6 717.0 176.4L717.0 176.4L716.6 176.4Q715.6 180.1 712.6 181.9Q709.6 183.8 705.3 183.8L705.3 183.8Q699.9 183.8 696.6 180.9Q693.3 178.0 693.3 172.7L693.3 172.7Q693.3 166.9 697.6 164.1Q701.8 161.3 710.0 161.3L710.0 161.3L716.0 161.3L716.0 159.4Q716.0 156.1 714.5 154.4Q712.9 152.7 709.3 152.7L709.3 152.7Q705.9 152.7 703.8 154.0Q701.7 155.3 700.2 157.4L700.2 157.4L694.4 152.2Q696.2 149.0 700.2 147.0Q704.2 144.9 710.5 144.9L710.5 144.9Q718.1 144.9 722.4 148.4Q726.7 151.9 726.7 159.0L726.7 159.0L726.7 175.2L730.8 175.2L730.8 183.0ZM709.3 176.8L709.3 176.8Q712.1 176.8 714.1 175.5Q716.0 174.1 716.0 171.5L716.0 171.5L716.0 167.0L710.3 167.0Q703.8 167.0 703.8 171.4L703.8 171.4L703.8 172.9Q703.8 174.8 705.3 175.8Q706.8 176.8 709.3 176.8ZM774.8 186.7L774.8 186.7Q774.8 192.6 769.8 195.4Q764.8 198.2 754.2 198.2L754.2 198.2Q748.9 198.2 745.4 197.6Q741.9 197.0 739.9 195.8Q737.8 194.7 737.0 193.1Q736.2 191.5 736.2 189.6L736.2 189.6Q736.2 186.5 738.1 184.9Q739.9 183.2 743.3 182.4L743.3 182.4L743.3 181.9Q740.9 181.2 739.5 179.9Q738.1 178.6 738.1 176.1L738.1 176.1Q738.1 173.4 740.0 172.1Q741.8 170.8 744.8 170.1L744.8 170.1L744.8 169.6Q741.5 168.0 739.7 165.2Q737.8 162.3 737.8 158.2L737.8 158.2Q737.8 154.9 739.0 152.5Q740.1 150.0 742.3 148.3Q744.4 146.7 747.3 145.8Q750.3 144.9 754.0 144.9L754.0 144.9Q757.5 144.9 760.5 145.7L760.5 145.7L760.5 143.7Q760.5 141.6 762.0 140.1Q763.5 138.7 766.2 138.7L766.2 138.7L772.8 138.7L772.8 146.4L763.8 146.4L763.8 147.1Q766.9 148.7 768.5 151.5Q770.2 154.2 770.2 158.2L770.2 158.2Q770.2 161.4 769.1 163.9Q767.9 166.3 765.8 168.0Q763.6 169.7 760.6 170.6Q757.6 171.4 754.0 171.4L754.0 171.4Q752.3 171.4 750.8 171.3Q749.3 171.1 747.9 170.7L747.9 170.7Q747.1 171.1 746.6 171.8Q746.0 172.4 746.0 173.4L746.0 173.4Q746.0 174.3 746.5 174.8Q746.9 175.3 747.7 175.6Q748.4 175.8 749.4 175.9Q750.4 176.0 751.5 176.0L751.5 176.0L760.0 176.0Q764.0 176.0 766.8 176.8Q769.6 177.6 771.4 179.0Q773.2 180.4 774.0 182.4Q774.8 184.3 774.8 186.7ZM764.7 187.5L764.7 187.5Q764.7 186.0 763.5 185.2Q762.4 184.4 759.2 184.4L759.2 184.4L746.4 184.4Q745.0 185.6 745.0 187.4L745.0 187.4Q745.0 189.1 746.4 190.3Q747.9 191.4 751.4 191.4L751.4 191.4L757.7 191.4Q761.4 191.4 763.0 190.4Q764.7 189.4 764.7 187.5ZM754.0 164.7L754.0 164.7Q757.2 164.7 758.7 163.1Q760.2 161.5 760.2 159.0L760.2 159.0L760.2 157.3Q760.2 154.9 758.7 153.3Q757.2 151.7 754.0 151.7L754.0 151.7Q750.8 151.7 749.4 153.3Q747.9 154.9 747.9 157.3L747.9 157.3L747.9 159.0Q747.9 161.5 749.4 163.1Q750.8 164.7 754.0 164.7ZM798.6 183.8L798.6 183.8Q789.2 183.8 784.4 178.6Q779.6 173.4 779.6 164.5L779.6 164.5Q779.6 160.0 780.9 156.3Q782.1 152.7 784.5 150.2Q786.8 147.6 790.1 146.3Q793.5 144.9 797.7 144.9L797.7 144.9Q801.8 144.9 805.2 146.3Q808.5 147.6 810.8 150.0Q813.1 152.5 814.3 156.0Q815.6 159.5 815.6 163.8L815.6 163.8L815.6 167.0L790.2 167.0L790.2 167.6Q790.2 171.2 792.4 173.4Q794.6 175.6 799.0 175.6L799.0 175.6Q802.3 175.6 804.7 174.3Q807.0 173.1 808.8 171.0L808.8 171.0L814.5 177.3Q812.4 179.9 808.5 181.9Q804.6 183.8 798.6 183.8ZM797.7 152.6L797.7 152.6Q794.3 152.6 792.2 154.7Q790.2 156.8 790.2 160.4L790.2 160.4L790.2 161.0L805.2 161.0L805.2 160.4Q805.2 156.7 803.2 154.7Q801.2 152.6 797.7 152.6Z M170.0 280.3L170.0 280.3Q170.0 286.2 165.0 289.0Q160.0 291.8 149.4 291.8L149.4 291.8Q144.1 291.8 140.6 291.2Q137.1 290.6 135.1 289.4Q133.0 288.3 132.2 286.7Q131.4 285.1 131.4 283.2L131.4 283.2Q131.4 280.1 133.3 278.5Q135.1 276.8 138.5 276.0L138.5 276.0L138.5 275.5Q136.1 274.8 134.7 273.5Q133.3 272.2 133.3 269.7L133.3 269.7Q133.3 267.0 135.2 265.7Q137 264.4 140.0 263.7L140.0 263.7L140.0 263.2Q136.7 261.6 134.9 258.8Q133.0 255.9 133.0 251.8L133.0 251.8Q133.0 248.5 134.2 246.1Q135.3 243.6 137.5 241.9Q139.6 240.3 142.5 239.4Q145.5 238.5 149.2 238.5L149.2 238.5Q152.7 238.5 155.7 239.3L155.7 239.3L155.7 237.3Q155.7 235.2 157.2 233.7Q158.7 232.3 161.4 232.3L161.4 232.3L168.0 232.3L168.0 240.0L159.0 240.0L159.0 240.7Q162.1 242.3 163.7 245.1Q165.4 247.8 165.4 251.8L165.4 251.8Q165.4 255.0 164.3 257.5Q163.1 259.9 161.0 261.6Q158.8 263.3 155.8 264.2Q152.8 265.0 149.2 265.0L149.2 265.0Q147.5 265.0 146 264.9Q144.5 264.7 143.1 264.3L143.1 264.3Q142.3 264.7 141.8 265.4Q141.2 266.0 141.2 267.0L141.2 267.0Q141.2 267.9 141.7 268.4Q142.1 268.9 142.9 269.2Q143.6 269.4 144.6 269.5Q145.6 269.6 146.7 269.6L146.7 269.6L155.2 269.6Q159.2 269.6 162.0 270.4Q164.8 271.2 166.6 272.6Q168.4 274.0 169.2 276.0Q170.0 277.9 170.0 280.3ZM159.9 281.1L159.9 281.1Q159.9 279.6 158.7 278.8Q157.6 278.0 154.4 278.0L154.4 278.0L141.6 278.0Q140.2 279.2 140.2 281.0L140.2 281.0Q140.2 282.7 141.6 283.9Q143.1 285.0 146.6 285.0L146.6 285.0L152.9 285.0Q156.6 285.0 158.2 284.0Q159.9 283.0 159.9 281.1ZM149.2 258.3L149.2 258.3Q152.4 258.3 153.9 256.7Q155.4 255.1 155.4 252.6L155.4 252.6L155.4 250.9Q155.4 248.5 153.9 246.9Q152.4 245.3 149.2 245.3L149.2 245.3Q146 245.3 144.6 246.9Q143.1 248.5 143.1 250.9L143.1 250.9L143.1 252.6Q143.1 255.1 144.6 256.7Q146 258.3 149.2 258.3ZM193.8 277.4L193.8 277.4Q184.4 277.4 179.6 272.2Q174.8 267.0 174.8 258.1L174.8 258.1Q174.8 253.6 176.1 249.9Q177.3 246.3 179.7 243.8Q182 241.2 185.3 239.9Q188.7 238.5 192.9 238.5L192.9 238.5Q197.0 238.5 200.4 239.9Q203.7 241.2 206.0 243.6Q208.3 246.1 209.5 249.6Q210.8 253.1 210.8 257.4L210.8 257.4L210.8 260.6L185.4 260.6L185.4 261.2Q185.4 264.8 187.6 267.0Q189.8 269.2 194.2 269.2L194.2 269.2Q197.5 269.2 199.9 267.9Q202.2 266.7 204.0 264.6L204.0 264.6L209.7 270.9Q207.6 273.5 203.7 275.5Q199.8 277.4 193.8 277.4ZM192.9 246.2L192.9 246.2Q189.5 246.2 187.4 248.3Q185.4 250.4 185.4 254.0L185.4 254.0L185.4 254.6L200.4 254.6L200.4 254.0Q200.4 250.3 198.4 248.3Q196.4 246.2 192.9 246.2ZM229.7 276.6L219.1 276.6L219.1 239.4L229.7 239.4L229.7 246.2L230.2 246.2Q230.8 244.6 231.8 243.2Q232.7 241.8 234.0 240.8Q235.4 239.8 237.1 239.1Q238.9 238.5 241.1 238.5L241.1 238.5Q243.8 238.5 246.0 239.4Q248.2 240.3 249.8 242.1Q251.4 243.9 252.3 246.5Q253.2 249.1 253.2 252.5L253.2 252.5L253.2 276.6L242.6 276.6L242.6 253.9Q242.6 246.7 236.3 246.7L236.3 246.7Q235.1 246.7 233.9 247.1Q232.7 247.4 231.8 248.1Q230.8 248.8 230.3 249.8Q229.7 250.8 229.7 252.1L229.7 252.1L229.7 276.6ZM280.2 277.4L280.2 277.4Q270.8 277.4 266.0 272.2Q261.2 267.0 261.2 258.1L261.2 258.1Q261.2 253.6 262.5 249.9Q263.7 246.3 266.1 243.8Q268.4 241.2 271.7 239.9Q275.1 238.5 279.3 238.5L279.3 238.5Q283.4 238.5 286.8 239.9Q290.1 241.2 292.4 243.6Q294.7 246.1 295.9 249.6Q297.2 253.1 297.2 257.4L297.2 257.4L297.2 260.6L271.8 260.6L271.8 261.2Q271.8 264.8 274.0 267.0Q276.2 269.2 280.6 269.2L280.6 269.2Q283.9 269.2 286.3 267.9Q288.6 266.7 290.4 264.6L290.4 264.6L296.1 270.9Q294.0 273.5 290.1 275.5Q286.2 277.4 280.2 277.4ZM279.3 246.2L279.3 246.2Q275.9 246.2 273.8 248.3Q271.8 250.4 271.8 254.0L271.8 254.0L271.8 254.6L286.8 254.6L286.8 254.0Q286.8 250.3 284.8 248.3Q282.8 246.2 279.3 246.2ZM306.1 276.6L306.1 268.3L314.7 268.3L314.7 247.7L306.1 247.7L306.1 239.4L325.4 239.4L325.4 249.9L325.9 249.9Q326.4 247.9 327.3 246.0Q328.2 244.1 329.6 242.6Q331.0 241.1 333.0 240.3Q335.0 239.4 337.7 239.4L337.7 239.4L341.3 239.4L341.3 249.2L333.3 249.2Q329.4 249.2 327.4 251.5Q325.4 253.9 325.4 257.3L325.4 257.3L325.4 268.3L337.6 268.3L337.6 276.6L306.1 276.6ZM385.2 276.6L379.1 276.6Q375.8 276.6 373.7 274.9Q371.7 273.2 371.4 270.0L371.4 270.0L371.0 270.0Q370.0 273.7 367.0 275.5Q364.0 277.4 359.7 277.4L359.7 277.4Q354.3 277.4 351.0 274.5Q347.7 271.6 347.7 266.3L347.7 266.3Q347.7 260.5 352.0 257.7Q356.2 254.9 364.4 254.9L364.4 254.9L370.4 254.9L370.4 253.0Q370.4 249.7 368.9 248.0Q367.3 246.3 363.7 246.3L363.7 246.3Q360.3 246.3 358.2 247.6Q356.1 248.9 354.6 251.0L354.6 251.0L348.8 245.8Q350.6 242.6 354.6 240.6Q358.6 238.5 364.9 238.5L364.9 238.5Q372.5 238.5 376.8 242.0Q381.1 245.5 381.1 252.6L381.1 252.6L381.1 268.8L385.2 268.8L385.2 276.6ZM363.7 270.4L363.7 270.4Q366.5 270.4 368.5 269.1Q370.4 267.7 370.4 265.1L370.4 265.1L370.4 260.6L364.7 260.6Q358.2 260.6 358.2 265.0L358.2 265.0L358.2 266.5Q358.2 268.4 359.7 269.4Q361.2 270.4 363.7 270.4ZM425.4 276.6L411.7 276.6Q405.9 276.6 403.1 273.5Q400.3 270.5 400.3 265.8L400.3 265.8L400.3 247.7L390.2 247.7L390.2 239.4L396.8 239.4Q399.2 239.4 400.2 238.5Q401.2 237.5 401.2 235.0L401.2 235.0L401.2 226.3L411.0 226.3L411.0 239.4L425.4 239.4L425.4 247.7L411.0 247.7L411.0 268.3L425.4 268.3L425.4 276.6ZM454.3 234.6L454.3 234.6Q450.7 234.6 449.3 233.2Q447.9 231.7 447.9 229.6L447.9 229.6L447.9 227.5Q447.9 225.4 449.3 223.9Q450.7 222.5 454.3 222.5L454.3 222.5Q457.9 222.5 459.3 223.9Q460.7 225.4 460.7 227.5L460.7 227.5L460.7 229.6Q460.7 231.7 459.3 233.2Q457.9 234.6 454.3 234.6ZM437.2 276.6L437.2 268.3L449.0 268.3L449.0 247.7L437.2 247.7L437.2 239.4L459.6 239.4L459.6 268.3L470.6 268.3L470.6 276.6L437.2 276.6ZM495.2 277.4L495.2 277.4Q490.9 277.4 487.4 276.1Q484.0 274.8 481.6 272.2Q479.1 269.7 477.8 266.1Q476.6 262.5 476.6 258.0L476.6 258.0Q476.6 253.4 477.8 249.8Q479.1 246.2 481.6 243.7Q484.0 241.2 487.4 239.9Q490.9 238.5 495.2 238.5L495.2 238.5Q499.5 238.5 503.0 239.9Q506.4 241.2 508.8 243.7Q511.3 246.2 512.6 249.8Q513.8 253.4 513.8 258.0L513.8 258.0Q513.8 262.5 512.6 266.1Q511.3 269.7 508.8 272.2Q506.4 274.8 503.0 276.1Q499.5 277.4 495.2 277.4ZM495.2 269.5L495.2 269.5Q498.8 269.5 500.8 267.3Q502.8 265.0 502.8 260.9L502.8 260.9L502.8 255.0Q502.8 250.9 500.8 248.7Q498.8 246.5 495.2 246.5L495.2 246.5Q491.6 246.5 489.6 248.7Q487.6 250.9 487.6 255.0L487.6 255.0L487.6 260.9Q487.6 265.0 489.6 267.3Q491.6 269.5 495.2 269.5ZM532.1 276.6L521.5 276.6L521.5 239.4L532.1 239.4L532.1 246.2L532.6 246.2Q533.2 244.6 534.2 243.2Q535.1 241.8 536.4 240.8Q537.8 239.8 539.5 239.1Q541.3 238.5 543.5 238.5L543.5 238.5Q546.2 238.5 548.4 239.4Q550.6 240.3 552.2 242.1Q553.8 243.9 554.7 246.5Q555.6 249.1 555.6 252.5L555.6 252.5L555.6 276.6L545.0 276.6L545.0 253.9Q545.0 246.7 538.7 246.7L538.7 246.7Q537.5 246.7 536.3 247.1Q535.1 247.4 534.2 248.1Q533.2 248.8 532.7 249.8Q532.1 250.8 532.1 252.1L532.1 252.1L532.1 276.6Z M627.1 234.6L627.1 234.6Q623.5 234.6 622.1 233.2Q620.7 231.7 620.7 229.6L620.7 229.6L620.7 227.5Q620.7 225.4 622.1 223.9Q623.5 222.5 627.1 222.5L627.1 222.5Q630.7 222.5 632.1 223.9Q633.5 225.4 633.5 227.5L633.5 227.5L633.5 229.6Q633.5 231.7 632.1 233.2Q630.7 234.6 627.1 234.6ZM610.0 276.6L610.0 268.3L621.8 268.3L621.8 247.7L610.0 247.7L610.0 239.4L632.4 239.4L632.4 268.3L643.4 268.3L643.4 276.6L610.0 276.6ZM661.7 276.6L651.1 276.6L651.1 239.4L661.7 239.4L661.7 246.2L662.2 246.2Q662.8 244.6 663.8 243.2Q664.7 241.8 666.0 240.8Q667.4 239.8 669.1 239.1Q670.9 238.5 673.1 238.5L673.1 238.5Q675.8 238.5 678.0 239.4Q680.2 240.3 681.8 242.1Q683.4 243.9 684.3 246.5Q685.2 249.1 685.2 252.5L685.2 252.5L685.2 276.6L674.6 276.6L674.6 253.9Q674.6 246.7 668.3 246.7L668.3 246.7Q667.1 246.7 665.9 247.1Q664.7 247.4 663.8 248.1Q662.8 248.8 662.3 249.8Q661.7 250.8 661.7 252.1L661.7 252.1L661.7 276.6Z M170.8 370.2L159.3 370.2L156.2 358.1L142.4 358.1L139.3 370.2L128.4 370.2L142.0 319.9L157.2 319.9L170.8 370.2ZM154.5 349.3L149.6 330.3L149.0 330.3L144.1 349.3L154.5 349.3ZM192.4 371.0L192.4 371.0Q186.2 371.0 181.6 369.1Q177.0 367.3 174.7 364.0L174.7 364.0L180.7 358.5Q182.9 360.9 185.8 362.2Q188.7 363.5 192.4 363.5L192.4 363.5Q195.6 363.5 197.4 362.6Q199.2 361.6 199.2 359.6L199.2 359.6Q199.2 358.0 198.0 357.4Q196.8 356.8 194.6 356.4L194.6 356.4L188.6 355.5Q186.1 355.1 183.9 354.3Q181.8 353.6 180.2 352.3Q178.6 351.0 177.7 349.1Q176.7 347.3 176.7 344.6L176.7 344.6Q176.7 338.8 181.2 335.4Q185.7 332.1 193.7 332.1L193.7 332.1Q199.2 332.1 203.1 333.6Q206.9 335.1 209.2 337.8L209.2 337.8L203.9 343.9Q202.2 342.1 199.6 340.8Q197.0 339.6 193.4 339.6L193.4 339.6Q187.2 339.6 187.2 343.4L187.2 343.4Q187.2 345.0 188.4 345.6Q189.6 346.2 191.8 346.6L191.8 346.6L197.7 347.5Q200.2 347.9 202.4 348.7Q204.5 349.4 206.2 350.7Q207.8 352.0 208.7 353.9Q209.6 355.8 209.6 358.4L209.6 358.4Q209.6 364.2 205.1 367.6Q200.6 371.0 192.4 371.0ZM252.6 370.2L238.9 370.2Q233.1 370.2 230.3 367.1Q227.5 364.1 227.5 359.4L227.5 359.4L227.5 341.3L217.4 341.3L217.4 333.0L224.0 333.0Q226.4 333.0 227.4 332.1Q228.4 331.1 228.4 328.6L228.4 328.6L228.4 319.9L238.2 319.9L238.2 333.0L252.6 333.0L252.6 341.3L238.2 341.3L238.2 361.9L252.6 361.9L252.6 370.2ZM262.9 370.2L262.9 361.9L271.5 361.9L271.5 341.3L262.9 341.3L262.9 333.0L282.2 333.0L282.2 343.5L282.7 343.5Q283.2 341.5 284.1 339.6Q285.0 337.7 286.4 336.2Q287.8 334.7 289.8 333.9Q291.8 333.0 294.5 333.0L294.5 333.0L298.1 333.0L298.1 342.8L290.1 342.8Q286.2 342.8 284.2 345.1Q282.2 347.5 282.2 350.9L282.2 350.9L282.2 361.9L294.4 361.9L294.4 370.2L262.9 370.2ZM322.4 371.0L322.4 371.0Q318.1 371.0 314.6 369.7Q311.2 368.4 308.8 365.8Q306.3 363.3 305.0 359.7Q303.8 356.1 303.8 351.6L303.8 351.6Q303.8 347.0 305.0 343.4Q306.3 339.8 308.8 337.3Q311.2 334.8 314.6 333.5Q318.1 332.1 322.4 332.1L322.4 332.1Q326.7 332.1 330.2 333.5Q333.6 334.8 336.0 337.3Q338.5 339.8 339.8 343.4Q341.0 347.0 341.0 351.6L341.0 351.6Q341.0 356.1 339.8 359.7Q338.5 363.3 336.0 365.8Q333.6 368.4 330.2 369.7Q326.7 371.0 322.4 371.0ZM322.4 363.1L322.4 363.1Q326.0 363.1 328.0 360.9Q330.0 358.6 330.0 354.5L330.0 354.5L330.0 348.6Q330.0 344.5 328.0 342.3Q326.0 340.1 322.4 340.1L322.4 340.1Q318.8 340.1 316.8 342.3Q314.8 344.5 314.8 348.6L314.8 348.6L314.8 354.5Q314.8 358.6 316.8 360.9Q318.8 363.1 322.4 363.1ZM360.3 370.2L349.5 370.2L349.5 319.9L368.9 319.9Q372.6 319.9 375.5 321.0Q378.3 322.1 380.3 324.2Q382.3 326.3 383.3 329.3Q384.3 332.2 384.3 335.9L384.3 335.9Q384.3 339.6 383.3 342.5Q382.3 345.5 380.3 347.5Q378.3 349.6 375.5 350.7Q372.6 351.9 368.9 351.9L368.9 351.9L360.3 351.9L360.3 370.2ZM360.3 328.6L360.3 343.2L366.2 343.2Q370.0 343.2 371.5 341.7Q372.9 340.3 372.9 337.0L372.9 337.0L372.9 334.8Q372.9 331.5 371.5 330.0Q370.0 328.6 366.2 328.6L366.2 328.6L360.3 328.6ZM428.4 370.2L422.3 370.2Q419.0 370.2 416.9 368.5Q414.9 366.8 414.6 363.6L414.6 363.6L414.2 363.6Q413.2 367.3 410.2 369.1Q407.2 371.0 402.9 371.0L402.9 371.0Q397.5 371.0 394.2 368.1Q390.9 365.2 390.9 359.9L390.9 359.9Q390.9 354.1 395.2 351.3Q399.4 348.5 407.6 348.5L407.6 348.5L413.6 348.5L413.6 346.6Q413.6 343.3 412.1 341.6Q410.5 339.9 406.9 339.9L406.9 339.9Q403.5 339.9 401.4 341.2Q399.3 342.5 397.8 344.6L397.8 344.6L392.0 339.4Q393.8 336.2 397.8 334.2Q401.8 332.1 408.1 332.1L408.1 332.1Q415.7 332.1 420.0 335.6Q424.3 339.1 424.3 346.2L424.3 346.2L424.3 362.4L428.4 362.4L428.4 370.2ZM406.9 364.0L406.9 364.0Q409.7 364.0 411.7 362.7Q413.6 361.3 413.6 358.7L413.6 358.7L413.6 354.2L407.9 354.2Q401.4 354.2 401.4 358.6L401.4 358.6L401.4 360.1Q401.4 362.0 402.9 363.0Q404.4 364.0 406.9 364.0ZM434.6 384.6L434.6 333.0L445.3 333.0L445.3 339.8L445.8 339.8Q447.2 336.5 449.8 334.3Q452.4 332.1 456.8 332.1L456.8 332.1Q459.9 332.1 462.5 333.3Q465.0 334.4 466.9 336.8Q468.7 339.2 469.7 342.9Q470.8 346.5 470.8 351.6L470.8 351.6Q470.8 356.6 469.7 360.3Q468.7 364.0 466.9 366.3Q465.0 368.7 462.5 369.9Q459.9 371.0 456.8 371.0L456.8 371.0Q452.4 371.0 449.8 368.9Q447.2 366.8 445.8 363.4L445.8 363.4L445.3 363.4L445.3 384.6L434.6 384.6ZM452.2 362.7L452.2 362.7Q455.8 362.7 457.8 360.5Q459.7 358.3 459.7 354.5L459.7 354.5L459.7 348.7Q459.7 344.8 457.8 342.6Q455.8 340.4 452.2 340.4L452.2 340.4Q449.4 340.4 447.4 341.8Q445.3 343.2 445.3 346.1L445.3 346.1L445.3 357.0Q445.3 360.0 447.4 361.4Q449.4 362.7 452.2 362.7ZM496.2 371.0L496.2 371.0Q486.8 371.0 482.0 365.8Q477.2 360.6 477.2 351.7L477.2 351.7Q477.2 347.2 478.5 343.5Q479.7 339.9 482.1 337.4Q484.4 334.8 487.7 333.5Q491.1 332.1 495.3 332.1L495.3 332.1Q499.4 332.1 502.8 333.5Q506.1 334.8 508.4 337.2Q510.7 339.7 511.9 343.2Q513.2 346.7 513.2 351.0L513.2 351.0L513.2 354.2L487.8 354.2L487.8 354.8Q487.8 358.4 490.0 360.6Q492.2 362.8 496.6 362.8L496.6 362.8Q499.9 362.8 502.3 361.5Q504.6 360.3 506.4 358.2L506.4 358.2L512.1 364.5Q510.0 367.1 506.1 369.1Q502.2 371.0 496.2 371.0ZM495.3 339.8L495.3 339.8Q491.9 339.8 489.8 341.9Q487.8 344.0 487.8 347.6L487.8 347.6L487.8 348.2L502.8 348.2L502.8 347.6Q502.8 343.9 500.8 341.9Q498.8 339.8 495.3 339.8ZM522.1 370.2L522.1 361.9L530.7 361.9L530.7 341.3L522.1 341.3L522.1 333.0L541.4 333.0L541.4 343.5L541.9 343.5Q542.4 341.5 543.3 339.6Q544.2 337.7 545.6 336.2Q547.0 334.7 549.0 333.9Q551 333.0 553.7 333.0L553.7 333.0L557.3 333.0L557.3 342.8L549.3 342.8Q545.4 342.8 543.4 345.1Q541.4 347.5 541.4 350.9L541.4 350.9L541.4 361.9L553.6 361.9L553.6 370.2L522.1 370.2Z M607.4 370.2L607.4 316.9L618.1 316.9L618.1 339.8L618.6 339.8Q620.0 336.5 622.6 334.3Q625.2 332.1 629.6 332.1L629.6 332.1Q632.7 332.1 635.3 333.3Q637.8 334.4 639.7 336.8Q641.5 339.2 642.5 342.9Q643.6 346.5 643.6 351.6L643.6 351.6Q643.6 356.6 642.5 360.3Q641.5 364.0 639.7 366.3Q637.8 368.7 635.3 369.9Q632.7 371.0 629.6 371.0L629.6 371.0Q625.2 371.0 622.6 368.9Q620.0 366.8 618.6 363.4L618.6 363.4L618.1 363.4L618.1 370.2L607.4 370.2ZM625.0 362.7L625.0 362.7Q628.6 362.7 630.6 360.5Q632.5 358.3 632.5 354.5L632.5 354.5L632.5 348.7Q632.5 344.8 630.6 342.6Q628.6 340.4 625.0 340.4L625.0 340.4Q622.2 340.4 620.2 341.8Q618.1 343.2 618.1 346.1L618.1 346.1L618.1 357.0Q618.1 360.0 620.2 361.4Q622.2 362.7 625.0 362.7ZM651.3 370.2L651.3 361.9L662.7 361.9L662.7 325.2L651.3 325.2L651.3 316.9L673.3 316.9L673.3 361.9L684.7 361.9L684.7 370.2L651.3 370.2ZM711.2 371.0L711.2 371.0Q706.9 371.0 703.4 369.7Q700.0 368.4 697.6 365.8Q695.1 363.3 693.8 359.7Q692.6 356.1 692.6 351.6L692.6 351.6Q692.6 347.0 693.8 343.4Q695.1 339.8 697.6 337.3Q700.0 334.8 703.4 333.5Q706.9 332.1 711.2 332.1L711.2 332.1Q715.5 332.1 719.0 333.5Q722.4 334.8 724.8 337.3Q727.3 339.8 728.6 343.4Q729.8 347.0 729.8 351.6L729.8 351.6Q729.8 356.1 728.6 359.7Q727.3 363.3 724.8 365.8Q722.4 368.4 719.0 369.7Q715.5 371.0 711.2 371.0ZM711.2 363.1L711.2 363.1Q714.8 363.1 716.8 360.9Q718.8 358.6 718.8 354.5L718.8 354.5L718.8 348.6Q718.8 344.5 716.8 342.3Q714.8 340.1 711.2 340.1L711.2 340.1Q707.6 340.1 705.6 342.3Q703.6 344.5 703.6 348.6L703.6 348.6L703.6 354.5Q703.6 358.6 705.6 360.9Q707.6 363.1 711.2 363.1ZM774.8 373.9L774.8 373.9Q774.8 379.8 769.8 382.6Q764.8 385.4 754.2 385.4L754.2 385.4Q748.9 385.4 745.4 384.8Q741.9 384.2 739.9 383.0Q737.8 381.9 737.0 380.3Q736.2 378.7 736.2 376.8L736.2 376.8Q736.2 373.7 738.1 372.1Q739.9 370.4 743.3 369.6L743.3 369.6L743.3 369.1Q740.9 368.4 739.5 367.1Q738.1 365.8 738.1 363.3L738.1 363.3Q738.1 360.6 740.0 359.3Q741.8 358.0 744.8 357.3L744.8 357.3L744.8 356.8Q741.5 355.2 739.7 352.4Q737.8 349.5 737.8 345.4L737.8 345.4Q737.8 342.1 739.0 339.7Q740.1 337.2 742.3 335.5Q744.4 333.9 747.3 333.0Q750.3 332.1 754.0 332.1L754.0 332.1Q757.5 332.1 760.5 332.9L760.5 332.9L760.5 330.9Q760.5 328.8 762.0 327.3Q763.5 325.9 766.2 325.9L766.2 325.9L772.8 325.9L772.8 333.6L763.8 333.6L763.8 334.3Q766.9 335.9 768.5 338.7Q770.2 341.4 770.2 345.4L770.2 345.4Q770.2 348.6 769.1 351.1Q767.9 353.5 765.8 355.2Q763.6 356.9 760.6 357.8Q757.6 358.6 754.0 358.6L754.0 358.6Q752.3 358.6 750.8 358.5Q749.3 358.3 747.9 357.9L747.9 357.9Q747.1 358.3 746.6 359.0Q746.0 359.6 746.0 360.6L746.0 360.6Q746.0 361.5 746.5 362.0Q746.9 362.5 747.7 362.8Q748.4 363.0 749.4 363.1Q750.4 363.2 751.5 363.2L751.5 363.2L760.0 363.2Q764.0 363.2 766.8 364.0Q769.6 364.8 771.4 366.2Q773.2 367.6 774.0 369.6Q774.8 371.5 774.8 373.9ZM764.7 374.7L764.7 374.7Q764.7 373.2 763.5 372.4Q762.4 371.6 759.2 371.6L759.2 371.6L746.4 371.6Q745.0 372.8 745.0 374.6L745.0 374.6Q745.0 376.3 746.4 377.5Q747.9 378.6 751.4 378.6L751.4 378.6L757.7 378.6Q761.4 378.6 763.0 377.6Q764.7 376.6 764.7 374.7ZM754.0 351.9L754.0 351.9Q757.2 351.9 758.7 350.3Q760.2 348.7 760.2 346.2L760.2 346.2L760.2 344.5Q760.2 342.1 758.7 340.5Q757.2 338.9 754.0 338.9L754.0 338.9Q750.8 338.9 749.4 340.5Q747.9 342.1 747.9 344.5L747.9 344.5L747.9 346.2Q747.9 348.7 749.4 350.3Q750.8 351.9 754.0 351.9Z M823.4 384.6L823.4 333.0L834.1 333.0L834.1 339.8L834.6 339.8Q836.0 336.5 838.6 334.3Q841.2 332.1 845.6 332.1L845.6 332.1Q848.7 332.1 851.3 333.3Q853.8 334.4 855.7 336.8Q857.5 339.2 858.5 342.9Q859.6 346.5 859.6 351.6L859.6 351.6Q859.6 356.6 858.5 360.3Q857.5 364.0 855.7 366.3Q853.8 368.7 851.3 369.9Q848.7 371.0 845.6 371.0L845.6 371.0Q841.2 371.0 838.6 368.9Q836.0 366.8 834.6 363.4L834.6 363.4L834.1 363.4L834.1 384.6L823.4 384.6ZM841.0 362.7L841.0 362.7Q844.6 362.7 846.6 360.5Q848.5 358.3 848.5 354.5L848.5 354.5L848.5 348.7Q848.5 344.8 846.6 342.6Q844.6 340.4 841.0 340.4L841.0 340.4Q838.2 340.4 836.2 341.8Q834.1 343.2 834.1 346.1L834.1 346.1L834.1 357.0Q834.1 360.0 836.2 361.4Q838.2 362.7 841.0 362.7ZM884.0 371.0L884.0 371.0Q879.7 371.0 876.2 369.7Q872.8 368.4 870.4 365.8Q867.9 363.3 866.6 359.7Q865.4 356.1 865.4 351.6L865.4 351.6Q865.4 347.0 866.6 343.4Q867.9 339.8 870.4 337.3Q872.8 334.8 876.2 333.5Q879.7 332.1 884.0 332.1L884.0 332.1Q888.3 332.1 891.8 333.5Q895.2 334.8 897.6 337.3Q900.1 339.8 901.4 343.4Q902.6 347.0 902.6 351.6L902.6 351.6Q902.6 356.1 901.4 359.7Q900.1 363.3 897.6 365.8Q895.2 368.4 891.8 369.7Q888.3 371.0 884.0 371.0ZM884.0 363.1L884.0 363.1Q887.6 363.1 889.6 360.9Q891.6 358.6 891.6 354.5L891.6 354.5L891.6 348.6Q891.6 344.5 889.6 342.3Q887.6 340.1 884.0 340.1L884.0 340.1Q880.4 340.1 878.4 342.3Q876.4 344.5 876.4 348.6L876.4 348.6L876.4 354.5Q876.4 358.6 878.4 360.9Q880.4 363.1 884.0 363.1ZM926.8 371.0L926.8 371.0Q920.6 371.0 916.0 369.1Q911.4 367.3 909.1 364.0L909.1 364.0L915.1 358.5Q917.3 360.9 920.2 362.2Q923.1 363.5 926.8 363.5L926.8 363.5Q930.0 363.5 931.8 362.6Q933.6 361.6 933.6 359.6L933.6 359.6Q933.6 358.0 932.4 357.4Q931.2 356.8 929.0 356.4L929.0 356.4L923.0 355.5Q920.5 355.1 918.3 354.3Q916.2 353.6 914.6 352.3Q913.0 351.0 912.1 349.1Q911.1 347.3 911.1 344.6L911.1 344.6Q911.1 338.8 915.6 335.4Q920.1 332.1 928.1 332.1L928.1 332.1Q933.6 332.1 937.5 333.6Q941.3 335.1 943.6 337.8L943.6 337.8L938.3 343.9Q936.6 342.1 934.0 340.8Q931.4 339.6 927.8 339.6L927.8 339.6Q921.6 339.6 921.6 343.4L921.6 343.4Q921.6 345.0 922.8 345.6Q924.0 346.2 926.2 346.6L926.2 346.6L932.1 347.5Q934.6 347.9 936.8 348.7Q938.9 349.4 940.6 350.7Q942.2 352.0 943.1 353.9Q944.0 355.8 944.0 358.4L944.0 358.4Q944.0 364.2 939.5 367.6Q935.0 371.0 926.8 371.0ZM987.0 370.2L973.3 370.2Q967.5 370.2 964.7 367.1Q961.9 364.1 961.9 359.4L961.9 359.4L961.9 341.3L951.8 341.3L951.8 333.0L958.4 333.0Q960.8 333.0 961.8 332.1Q962.8 331.1 962.8 328.6L962.8 328.6L962.8 319.9L972.6 319.9L972.6 333.0L987.0 333.0L987.0 341.3L972.6 341.3L972.6 361.9L987.0 361.9L987.0 370.2ZM1013.2 371.0L1013.2 371.0Q1007.0 371.0 1002.4 369.1Q997.8 367.3 995.5 364.0L995.5 364.0L1001.5 358.5Q1003.7 360.9 1006.6 362.2Q1009.5 363.5 1013.2 363.5L1013.2 363.5Q1016.4 363.5 1018.2 362.6Q1020.0 361.6 1020.0 359.6L1020.0 359.6Q1020.0 358.0 1018.8 357.4Q1017.6 356.8 1015.4 356.4L1015.4 356.4L1009.4 355.5Q1006.9 355.1 1004.7 354.3Q1002.6 353.6 1001.0 352.3Q999.4 351.0 998.5 349.1Q997.5 347.3 997.5 344.6L997.5 344.6Q997.5 338.8 1002.0 335.4Q1006.5 332.1 1014.5 332.1L1014.5 332.1Q1020.0 332.1 1023.9 333.6Q1027.7 335.1 1030.0 337.8L1030.0 337.8L1024.7 343.9Q1023.0 342.1 1020.4 340.8Q1017.8 339.6 1014.2 339.6L1014.2 339.6Q1008.0 339.6 1008.0 343.4L1008.0 343.4Q1008.0 345.0 1009.2 345.6Q1010.4 346.2 1012.6 346.6L1012.6 346.6L1018.5 347.5Q1021.0 347.9 1023.2 348.7Q1025.3 349.4 1027.0 350.7Q1028.6 352.0 1029.5 353.9Q1030.4 355.8 1030.4 358.4L1030.4 358.4Q1030.4 364.2 1025.9 367.6Q1021.4 371.0 1013.2 371.0Z " clip-path="url(#satori_cp-id-1-0-0)" mask="url(#satori_om-id-1-0-0)"/><path fill="black" d="M130.7 520.3L130.7 499.6L132.9 499.6L132.9 508.2L133.0 508.2Q134.4 505.5 137.5 505.5L137.5 505.5Q140.1 505.5 141.6 507.5Q143.1 509.5 143.1 513.0L143.1 513.0Q143.1 516.6 141.6 518.6Q140.1 520.6 137.5 520.6L137.5 520.6Q134.4 520.6 133.0 517.9L133.0 517.9L132.9 517.9L132.9 520.3L130.7 520.3ZM136.6 518.6L136.6 518.6Q138.6 518.6 139.6 517.4Q140.7 516.2 140.7 514.3L140.7 514.3L140.7 511.8Q140.7 509.9 139.6 508.7Q138.6 507.5 136.6 507.5L136.6 507.5Q135.8 507.5 135.2 507.7Q134.5 507.9 134.0 508.2Q133.5 508.6 133.2 509.2Q132.9 509.7 132.9 510.4L132.9 510.4L132.9 515.7Q132.9 516.4 133.2 516.9Q133.5 517.5 134.0 517.8Q134.5 518.2 135.2 518.4Q135.8 518.6 136.6 518.6ZM155.4 511.9L157.9 505.8L160.1 505.8L152.9 523.4Q152.7 524.1 152.4 524.5Q152.1 525.0 151.7 525.3Q151.2 525.6 150.7 525.7Q150.1 525.9 149.3 525.9L149.3 525.9L147.1 525.9L147.1 524.0L150.5 524.0L152.1 520.0L146.3 505.8L148.6 505.8L151.0 511.9L153.2 517.4L153.3 517.4L155.4 511.9Z "/><clipPath id="satori_cp-id-1-0-1-0-2"><rect x="178" y="489" width="151" height="36"/></clipPath><mask id="satori_om-id-1-0-1-0-2"><rect x="178" y="489" width="151" height="36" fill="#fff"/></mask><path fill="black" d="M186.1 520.4L186.1 520.4Q183.6 520.4 181.8 519.6Q180.0 518.8 178.9 517.4L178.9 517.4L181.3 514.7Q182.4 515.9 183.6 516.5Q184.9 517.0 186.2 517.0L186.2 517.0Q187.7 517.0 188.5 516.3Q189.3 515.7 189.3 514.4L189.3 514.4Q189.3 513.4 188.7 512.8Q188.1 512.3 186.7 512.1L186.7 512.1L184.6 511.7Q182.0 511.3 180.8 509.8Q179.7 508.3 179.7 506.1L179.7 506.1Q179.7 503.3 181.5 501.8Q183.3 500.2 186.7 500.2L186.7 500.2Q188.9 500.2 190.6 500.9Q192.3 501.6 193.3 502.8L193.3 502.8L191.0 505.5Q190.2 504.6 189.1 504.1Q188.1 503.6 186.7 503.6L186.7 503.6Q183.9 503.6 183.9 506.0L183.9 506.0Q183.9 507.0 184.5 507.5Q185.1 508.0 186.6 508.2L186.6 508.2L188.6 508.6Q191.0 509.0 192.3 510.4Q193.6 511.7 193.6 514.1L193.6 514.1Q193.6 515.4 193.1 516.6Q192.6 517.8 191.7 518.6Q190.7 519.5 189.3 520.0Q187.9 520.4 186.1 520.4ZM210.8 520.1L208.4 520.1Q207.1 520.1 206.4 519.4Q205.6 518.8 205.4 517.5L205.4 517.5L205.3 517.5Q204.9 519.0 203.7 519.7Q202.6 520.4 200.9 520.4L200.9 520.4Q198.8 520.4 197.5 519.3Q196.3 518.2 196.3 516.1L196.3 516.1Q196.3 513.8 197.9 512.8Q199.6 511.7 202.8 511.7L202.8 511.7L205.1 511.7L205.1 510.9Q205.1 509.6 204.5 509.0Q203.9 508.3 202.4 508.3L202.4 508.3Q201.1 508.3 200.3 508.8Q199.5 509.3 198.9 510.2L198.9 510.2L196.6 508.1Q197.4 506.9 198.9 506.1Q200.5 505.3 202.9 505.3L202.9 505.3Q205.9 505.3 207.6 506.7Q209.2 508.0 209.2 510.8L209.2 510.8L209.2 517.1L210.8 517.1L210.8 520.1ZM202.5 517.7L202.5 517.7Q203.6 517.7 204.3 517.2Q205.1 516.6 205.1 515.6L205.1 515.6L205.1 513.9L202.9 513.9Q200.3 513.9 200.3 515.6L200.3 515.6L200.3 516.2Q200.3 516.9 200.9 517.3Q201.5 517.7 202.5 517.7ZM226.5 520.1L221.1 520.1Q218.9 520.1 217.8 518.9Q216.7 517.7 216.7 515.9L216.7 515.9L216.7 508.9L212.8 508.9L212.8 505.6L215.3 505.6Q216.2 505.6 216.6 505.3Q217.0 504.9 217.0 503.9L217.0 503.9L217.0 500.5L220.8 500.5L220.8 505.6L226.5 505.6L226.5 508.9L220.8 508.9L220.8 516.9L226.5 516.9L226.5 520.1Z M255.3 520.1L250.8 507.1L250.5 507.1L250.5 520.1L246.9 520.1L246.9 500.5L251.9 500.5L256.4 513.5L256.7 513.5L256.7 500.5L260.3 500.5L260.3 520.1L255.3 520.1ZM278.0 520.1L275.6 520.1Q274.3 520.1 273.6 519.4Q272.8 518.8 272.6 517.5L272.6 517.5L272.5 517.5Q272.1 519.0 270.9 519.7Q269.8 520.4 268.1 520.4L268.1 520.4Q266.0 520.4 264.7 519.3Q263.5 518.2 263.5 516.1L263.5 516.1Q263.5 513.8 265.1 512.8Q266.8 511.7 270.0 511.7L270.0 511.7L272.3 511.7L272.3 510.9Q272.3 509.6 271.7 509.0Q271.1 508.3 269.6 508.3L269.6 508.3Q268.3 508.3 267.5 508.8Q266.7 509.3 266.1 510.2L266.1 510.2L263.8 508.1Q264.6 506.9 266.1 506.1Q267.7 505.3 270.1 505.3L270.1 505.3Q273.1 505.3 274.8 506.7Q276.4 508.0 276.4 510.8L276.4 510.8L276.4 517.1L278.0 517.1L278.0 520.1ZM269.7 517.7L269.7 517.7Q270.8 517.7 271.5 517.2Q272.3 516.6 272.3 515.6L272.3 515.6L272.3 513.9L270.1 513.9Q267.5 513.9 267.5 515.6L267.5 515.6L267.5 516.2Q267.5 516.9 268.1 517.3Q268.7 517.7 269.7 517.7ZM288.1 503.8L288.1 503.8Q286.7 503.8 286.2 503.2Q285.6 502.6 285.6 501.8L285.6 501.8L285.6 501.0Q285.6 500.2 286.2 499.6Q286.7 499.1 288.1 499.1L288.1 499.1Q289.5 499.1 290.0 499.6Q290.6 500.2 290.6 501.0L290.6 501.0L290.6 501.8Q290.6 502.6 290.0 503.2Q289.5 503.8 288.1 503.8ZM281.4 520.1L281.4 516.9L286.0 516.9L286.0 508.9L281.4 508.9L281.4 505.6L290.2 505.6L290.2 516.9L294.4 516.9L294.4 520.1L281.4 520.1ZM301.6 520.1L297.4 520.1L297.4 505.6L301.6 505.6L301.6 508.3L301.7 508.3Q302.0 507.7 302.3 507.1Q302.7 506.6 303.2 506.2Q303.7 505.8 304.4 505.5Q305.1 505.3 306.0 505.3L306.0 505.3Q307.0 505.3 307.9 505.7Q308.8 506.0 309.4 506.7Q310.0 507.4 310.3 508.4Q310.7 509.4 310.7 510.7L310.7 510.7L310.7 520.1L306.5 520.1L306.5 511.3Q306.5 508.5 304.1 508.5L304.1 508.5Q303.6 508.5 303.2 508.6Q302.7 508.8 302.3 509.0Q302.0 509.3 301.8 509.7Q301.6 510.1 301.6 510.6L301.6 510.6L301.6 520.1ZM328.7 521.5L328.7 521.5Q328.7 523.8 326.8 524.9Q324.9 526.0 320.7 526.0L320.7 526.0Q318.6 526.0 317.3 525.8Q316.0 525.6 315.2 525.1Q314.4 524.7 314.0 524.0Q313.7 523.4 313.7 522.7L313.7 522.7Q313.7 521.5 314.4 520.8Q315.2 520.2 316.5 519.9L316.5 519.9L316.5 519.7Q315.6 519.4 315.0 518.9Q314.5 518.4 314.5 517.4L314.5 517.4Q314.5 516.4 315.2 515.9Q315.9 515.4 317.1 515.1L317.1 515.1L317.1 514.9Q315.8 514.3 315.1 513.2Q314.4 512.1 314.4 510.5L314.4 510.5Q314.4 509.2 314.8 508.2Q315.3 507.3 316.1 506.6Q316.9 506.0 318.1 505.6Q319.2 505.3 320.6 505.3L320.6 505.3Q322.0 505.3 323.2 505.6L323.2 505.6L323.2 504.8Q323.2 504.0 323.8 503.4Q324.4 502.9 325.4 502.9L325.4 502.9L327.9 502.9L327.9 505.9L324.5 505.9L324.5 506.1Q325.6 506.8 326.3 507.8Q327.0 508.9 327.0 510.5L327.0 510.5Q327.0 511.7 326.5 512.7Q326.1 513.6 325.2 514.3Q324.4 514.9 323.2 515.3Q322.1 515.6 320.6 515.6L320.6 515.6Q320.0 515.6 319.4 515.5Q318.8 515.5 318.3 515.3L318.3 515.3Q318.0 515.5 317.8 515.8Q317.6 516.0 317.6 516.4L317.6 516.4Q317.6 516.7 317.7 516.9Q317.9 517.1 318.2 517.2Q318.5 517.3 318.9 517.3Q319.3 517.4 319.7 517.4L319.7 517.4L323.0 517.4Q324.5 517.4 325.6 517.7Q326.7 518.0 327.4 518.6Q328.1 519.1 328.4 519.9Q328.7 520.6 328.7 521.5ZM324.8 521.9L324.8 521.9Q324.8 521.3 324.4 521.0Q323.9 520.7 322.6 520.7L322.6 520.7L317.7 520.7Q317.1 521.1 317.1 521.8L317.1 521.8Q317.1 522.5 317.7 522.9Q318.3 523.4 319.7 523.4L319.7 523.4L322.1 523.4Q323.5 523.4 324.2 523.0Q324.8 522.6 324.8 521.9ZM320.6 513.0L320.6 513.0Q321.9 513.0 322.5 512.4Q323.0 511.7 323.0 510.8L323.0 510.8L323.0 510.1Q323.0 509.2 322.5 508.6Q321.9 507.9 320.6 507.9L320.6 507.9Q319.4 507.9 318.8 508.6Q318.3 509.2 318.3 510.1L318.3 510.1L318.3 510.8Q318.3 511.7 318.8 512.4Q319.4 513.0 320.6 513.0Z " clip-path="url(#satori_cp-id-1-0-1-0-2)" mask="url(#satori_om-id-1-0-1-0-2)"/><clipPath id="satori_cp-id-1-0-1-1"><rect x="903" y="489" width="168" height="36"/></clipPath><mask id="satori_om-id-1-0-1-1"><rect x="903" y="489" width="168" height="36" fill="#fff"/></mask><path fill="black" d="M919.7 520.1L915.2 520.1L913.9 515.4L908.6 515.4L907.4 520.1L903.1 520.1L908.4 500.5L914.4 500.5L919.7 520.1ZM913.3 512.0L911.4 504.6L911.2 504.6L909.3 512.0L913.3 512.0ZM928.0 520.4L928.0 520.4Q925.6 520.4 923.8 519.7Q922.1 519.0 921.2 517.7L921.2 517.7L923.5 515.6Q924.3 516.5 925.5 517.0Q926.6 517.5 928.1 517.5L928.1 517.5Q929.3 517.5 930.0 517.1Q930.7 516.8 930.7 516.0L930.7 516.0Q930.7 515.4 930.2 515.1Q929.7 514.9 928.9 514.7L928.9 514.7L926.6 514.4Q925.6 514.2 924.8 513.9Q923.9 513.7 923.3 513.1Q922.7 512.6 922.3 511.9Q922.0 511.2 922.0 510.2L922.0 510.2Q922.0 507.9 923.7 506.6Q925.4 505.3 928.6 505.3L928.6 505.3Q930.7 505.3 932.2 505.9Q933.7 506.5 934.6 507.5L934.6 507.5L932.5 509.9Q931.9 509.2 930.9 508.7Q929.9 508.2 928.4 508.2L928.4 508.2Q926.0 508.2 926.0 509.7L926.0 509.7Q926.0 510.3 926.5 510.6Q927.0 510.8 927.8 510.9L927.8 510.9L930.1 511.3Q931.1 511.4 931.9 511.7Q932.8 512.0 933.4 512.5Q934.0 513.0 934.4 513.8Q934.8 514.5 934.8 515.5L934.8 515.5Q934.8 517.8 933.0 519.1Q931.3 520.4 928.0 520.4ZM951.5 520.1L946.1 520.1Q943.9 520.1 942.8 518.9Q941.7 517.7 941.7 515.9L941.7 515.9L941.7 508.9L937.8 508.9L937.8 505.6L940.3 505.6Q941.2 505.6 941.6 505.3Q942.0 504.9 942.0 503.9L942.0 503.9L942.0 500.5L945.8 500.5L945.8 505.6L951.5 505.6L951.5 508.9L945.8 508.9L945.8 516.9L951.5 516.9L951.5 520.1ZM955.5 520.1L955.5 516.9L958.8 516.9L958.8 508.9L955.5 508.9L955.5 505.6L962.9 505.6L962.9 509.7L963.1 509.7Q963.3 508.9 963.7 508.2Q964.0 507.5 964.6 506.9Q965.1 506.3 965.9 506.0Q966.7 505.6 967.8 505.6L967.8 505.6L969.1 505.6L969.1 509.5L966.1 509.5Q964.5 509.5 963.7 510.4Q962.9 511.3 962.9 512.6L962.9 512.6L962.9 516.9L967.7 516.9L967.7 520.1L955.5 520.1ZM978.6 520.4L978.6 520.4Q976.9 520.4 975.6 519.9Q974.2 519.4 973.3 518.4Q972.4 517.4 971.9 516.0Q971.3 514.6 971.3 512.9L971.3 512.9Q971.3 511.1 971.9 509.7Q972.4 508.3 973.3 507.3Q974.2 506.3 975.6 505.8Q976.9 505.3 978.6 505.3L978.6 505.3Q980.3 505.3 981.6 505.8Q983.0 506.3 983.9 507.3Q984.8 508.3 985.3 509.7Q985.9 511.1 985.9 512.9L985.9 512.9Q985.9 514.6 985.3 516.0Q984.8 517.4 983.9 518.4Q983.0 519.4 981.6 519.9Q980.3 520.4 978.6 520.4ZM978.6 517.3L978.6 517.3Q980.0 517.3 980.8 516.5Q981.6 515.6 981.6 514.0L981.6 514.0L981.6 511.7Q981.6 510.1 980.8 509.3Q980.0 508.4 978.6 508.4L978.6 508.4Q977.2 508.4 976.4 509.3Q975.6 510.1 975.6 511.7L975.6 511.7L975.6 514.0Q975.6 515.6 976.4 516.5Q977.2 517.3 978.6 517.3ZM993.4 520.1L989.1 520.1L989.1 500.5L996.7 500.5Q998.1 500.5 999.2 501.0Q1000.4 501.4 1001.1 502.2Q1001.9 503.0 1002.3 504.2Q1002.7 505.3 1002.7 506.8L1002.7 506.8Q1002.7 508.2 1002.3 509.3Q1001.9 510.5 1001.1 511.3Q1000.4 512.1 999.2 512.5Q998.1 513.0 996.7 513.0L996.7 513.0L993.4 513.0L993.4 520.1ZM993.4 503.9L993.4 509.6L995.6 509.6Q997.1 509.6 997.7 509.0Q998.3 508.5 998.3 507.2L998.3 507.2L998.3 506.3Q998.3 505.1 997.7 504.5Q997.1 503.9 995.6 503.9L995.6 503.9L993.4 503.9ZM1019.8 520.1L1017.4 520.1Q1016.1 520.1 1015.4 519.4Q1014.6 518.8 1014.4 517.5L1014.4 517.5L1014.3 517.5Q1013.9 519.0 1012.7 519.7Q1011.6 520.4 1009.9 520.4L1009.9 520.4Q1007.8 520.4 1006.5 519.3Q1005.3 518.2 1005.3 516.1L1005.3 516.1Q1005.3 513.8 1006.9 512.8Q1008.6 511.7 1011.8 511.7L1011.8 511.7L1014.1 511.7L1014.1 510.9Q1014.1 509.6 1013.5 509.0Q1012.9 508.3 1011.4 508.3L1011.4 508.3Q1010.1 508.3 1009.3 508.8Q1008.5 509.3 1007.9 510.2L1007.9 510.2L1005.6 508.1Q1006.4 506.9 1007.9 506.1Q1009.5 505.3 1011.9 505.3L1011.9 505.3Q1014.9 505.3 1016.6 506.7Q1018.2 508.0 1018.2 510.8L1018.2 510.8L1018.2 517.1L1019.8 517.1L1019.8 520.1ZM1011.5 517.7L1011.5 517.7Q1012.6 517.7 1013.3 517.2Q1014.1 516.6 1014.1 515.6L1014.1 515.6L1014.1 513.9L1011.9 513.9Q1009.3 513.9 1009.3 515.6L1009.3 515.6L1009.3 516.2Q1009.3 516.9 1009.9 517.3Q1010.5 517.7 1011.5 517.7ZM1022.3 525.7L1022.3 505.6L1026.4 505.6L1026.4 508.3L1026.6 508.3Q1027.1 507.0 1028.1 506.1Q1029.1 505.3 1030.9 505.3L1030.9 505.3Q1032.1 505.3 1033.1 505.8Q1034.1 506.2 1034.8 507.1Q1035.5 508.1 1035.9 509.5Q1036.3 510.9 1036.3 512.9L1036.3 512.9Q1036.3 514.8 1035.9 516.3Q1035.5 517.7 1034.8 518.6Q1034.1 519.5 1033.1 520.0Q1032.1 520.4 1030.9 520.4L1030.9 520.4Q1029.1 520.4 1028.1 519.6Q1027.1 518.8 1026.6 517.5L1026.6 517.5L1026.4 517.5L1026.4 525.7L1022.3 525.7ZM1029.1 517.2L1029.1 517.2Q1030.5 517.2 1031.2 516.4Q1032.0 515.5 1032.0 514.0L1032.0 514.0L1032.0 511.7Q1032.0 510.2 1031.2 509.4Q1030.5 508.5 1029.1 508.5L1029.1 508.5Q1028.0 508.5 1027.2 509.1Q1026.4 509.6 1026.4 510.7L1026.4 510.7L1026.4 515.0Q1026.4 516.1 1027.2 516.7Q1028.0 517.2 1029.1 517.2ZM1046.2 520.4L1046.2 520.4Q1042.6 520.4 1040.7 518.4Q1038.8 516.4 1038.8 512.9L1038.8 512.9Q1038.8 511.2 1039.3 509.7Q1039.8 508.3 1040.7 507.3Q1041.6 506.3 1042.9 505.8Q1044.2 505.3 1045.8 505.3L1045.8 505.3Q1047.5 505.3 1048.7 505.8Q1050.0 506.3 1050.9 507.3Q1051.8 508.2 1052.3 509.6Q1052.8 511.0 1052.8 512.6L1052.8 512.6L1052.8 513.9L1042.9 513.9L1042.9 514.1Q1042.9 515.5 1043.8 516.4Q1044.7 517.2 1046.3 517.2L1046.3 517.2Q1047.6 517.2 1048.5 516.7Q1049.5 516.3 1050.1 515.4L1050.1 515.4L1052.4 517.9Q1051.5 518.9 1050.0 519.7Q1048.5 520.4 1046.2 520.4ZM1045.9 508.3L1045.9 508.3Q1044.5 508.3 1043.7 509.1Q1042.9 509.9 1042.9 511.3L1042.9 511.3L1042.9 511.6L1048.7 511.6L1048.7 511.3Q1048.7 509.9 1048.0 509.1Q1047.2 508.3 1045.9 508.3ZM1056.3 520.1L1056.3 516.9L1059.6 516.9L1059.6 508.9L1056.3 508.9L1056.3 505.6L1063.7 505.6L1063.7 509.7L1063.9 509.7Q1064.1 508.9 1064.5 508.2Q1064.8 507.5 1065.4 506.9Q1065.9 506.3 1066.7 506.0Q1067.5 505.6 1068.6 505.6L1068.6 505.6L1069.9 505.6L1069.9 509.5L1066.9 509.5Q1065.3 509.5 1064.5 510.4Q1063.7 511.3 1063.7 512.6L1063.7 512.6L1063.7 516.9L1068.5 516.9L1068.5 520.1L1056.3 520.1Z " clip-path="url(#satori_cp-id-1-0-1-1)" mask="url(#satori_om-id-1-0-1-1)"/></svg>