<svg width="1200" height="630" viewBox="0 0 1200 630" xmlns="http://www.w3.org/2000/svg"><rect x="0" y="0" width="1200" height="630" fill="#fefbfb"/><defs><clipPath id="satori_bc-id-0"><path x="105" y="39" width="1056" height="504" d="M109,39 h1048 a4,4 0 0 1 4,4 v496 a4,4 0 0 1 -4,4 h-1048 a4,4 0 0 1 -4,-4 v-496 a4,4 0 0 1 4,-4"/></clipPath></defs><g opacity="0.9"><path x="105" y="39" width="1056" height="504" fill="#ecebeb" d="M109,39 h1048 a4,4 0 0 1 4,4 v496 a4,4 0 0 1 -4,4 h-1048 a4,4 0 0 1 -4,-4 v-496 a4,4 0 0 1 4,-4"/><path width="1056" height="504" clip-path="url(#satori_bc-id-0)" fill="none" stroke="#000" stroke-width="8" d="M106.172,40.172 A4,4 0 0 1 109,39 h1048 a4,4 0 0 1 4,4 v496 a4,4 0 0 1 -4,4 h-1048 a4,4 0 0 1 -4,-4 v-496 A4,4 0 0 1 106.172,40.172"/></g><defs><clipPath id="satori_bc-id-1"><path x="72" y="63" width="1056" height="504" d="M76,63 h1048 a4,4 0 0 1 4,4 v496 a4,4 0 0 1 -4,4 h-1048 a4,4 0 0 1 -4,-4 v-496 a4,4 0 0 1 4,-4"/></clipPath></defs><path x="72" y="63" width="1056" height="504" fill="#fefbfb" d="M76,63 h1048 a4,4 0 0 1 4,4 v496 a4,4 0 0 1 -4,4 h-1048 a4,4 0 0 1 -4,-4 v-496 a4,4 0 0 1 4,-4"/><path width="1056" height="504" clip-path="url(#satori_bc-id-1)" fill="none" stroke="#000" stroke-width="8" d="M73.172,64.172 A4,4 0 0 1 76,63 h1048 a4,4 0 0 1 4,4 v496 a4,4 0 0 1 -4,4 h-1048 a4,4 0 0 1 -4,-4 v-496 A4,4 0 0 1 73.172,64.172"/><clipPath id="satori_cp-id-1-0-0"><rect x="128" y="103" width="944" height="281"/></clipPath><mask id="satori_om-id-1-0-0"><rect x="128" y="103" width="944" height="281" fill="#fff"/></mask><path fill="black" d="M155.9 183.0L155.9 161.9L143.3 161.9L143.3 183.0L132.4 183.0L132.4 132.7L143.3 132.7L143.3 153.1L155.9 153.1L155.9 132.7L166.8 132.7L166.8 183.0L155.9 183.0ZM192.8 183.8L192.8 183.8Q188.5 183.8 185.0 182.5Q181.6 181.2 179.2 178.6Q176.7 176.1 175.4 172.5Q174.2 168.9 174.2 164.4L174.2 164.4Q174.2 159.8 175.4 156.2Q176.7 152.6 179.2 150.1Q181.6 147.6 185.0 146.3Q188.5 144.9 192.8 144.9L192.8 144.9Q197.1 144.9 200.6 146.3Q204.0 147.6 206.4 150.1Q208.9 152.6 210.2 156.2Q211.4 159.8 211.4 164.4L211.4 164.4Q211.4 168.9 210.2 172.5Q208.9 176.1 206.4 178.6Q204.0 181.2 200.6 182.5Q197.1 183.8 192.8 183.8ZM192.8 175.9L192.8 175.9Q196.4 175.9 198.4 173.7Q200.4 171.4 200.4 167.3L200.4 167.3L200.4 161.4Q200.4 157.3 198.4 155.1Q196.4 152.9 192.8 152.9L192.8 152.9Q189.2 152.9 187.2 155.1Q185.2 157.3 185.2 161.4L185.2 161.4L185.2 167.3Q185.2 171.4 187.2 173.7Q189.2 175.9 192.8 175.9ZM219.3 183.0L214.9 145.8L223.8 145.8L226.4 175.9L227.1 175.9L231.5 145.8L240.9 145.8L245.2 175.9L245.9 175.9L248.7 145.8L257.1 145.8L252.7 183.0L240.0 183.0L236.4 157.3L235.6 157.3L232.0 183.0L219.3 183.0Z M305.4 183.0L305.4 132.7L321.6 132.7Q331.8 132.7 336.7 139.2Q341.6 145.7 341.6 157.8L341.6 157.8Q341.6 170.0 336.7 176.5Q331.8 183.0 321.6 183.0L321.6 183.0L305.4 183.0ZM316.1 174.5L320.9 174.5Q325.7 174.5 327.9 171.4Q330.2 168.3 330.2 162.4L330.2 162.4L330.2 153.2Q330.2 147.4 327.9 144.3Q325.7 141.2 320.9 141.2L320.9 141.2L316.1 141.2L316.1 174.5ZM365.6 183.8L365.6 183.8Q361.3 183.8 357.8 182.5Q354.4 181.2 352.0 178.6Q349.5 176.1 348.2 172.5Q347.0 168.9 347.0 164.4L347.0 164.4Q347.0 159.8 348.2 156.2Q349.5 152.6 352.0 150.1Q354.4 147.6 357.8 146.3Q361.3 144.9 365.6 144.9L365.6 144.9Q369.9 144.9 373.4 146.3Q376.8 147.6 379.2 150.1Q381.7 152.6 383.0 156.2Q384.2 159.8 384.2 164.4L384.2 164.4Q384.2 168.9 383.0 172.5Q381.7 176.1 379.2 178.6Q376.8 181.2 373.4 182.5Q369.9 183.8 365.6 183.8ZM365.6 175.9L365.6 175.9Q369.2 175.9 371.2 173.7Q373.2 171.4 373.2 167.3L373.2 167.3L373.2 161.4Q373.2 157.3 371.2 155.1Q369.2 152.9 365.6 152.9L365.6 152.9Q362.0 152.9 360.0 155.1Q358.0 157.3 358.0 161.4L358.0 161.4L358.0 167.3Q358.0 171.4 360.0 173.7Q362.0 175.9 365.6 175.9Z M468.2 183.0L435.8 183.0L435.8 175.0L446.6 175.0L446.6 140.7L435.8 140.7L435.8 132.7L468.2 132.7L468.2 140.7L457.4 140.7L457.4 175.0L468.2 175.0L468.2 183.0Z M521.4 183.0L521.4 132.7L537.6 132.7Q547.8 132.7 552.7 139.2Q557.6 145.7 557.6 157.8L557.6 157.8Q557.6 170.0 552.7 176.5Q547.8 183.0 537.6 183.0L537.6 183.0L521.4 183.0ZM532.1 174.5L536.9 174.5Q541.7 174.5 543.9 171.4Q546.2 168.3 546.2 162.4L546.2 162.4L546.2 153.2Q546.2 147.4 543.9 144.3Q541.7 141.2 536.9 141.2L536.9 141.2L532.1 141.2L532.1 174.5ZM582.6 183.8L582.6 183.8Q573.2 183.8 568.4 178.6Q563.6 173.4 563.6 164.5L563.6 164.5Q563.6 160.0 564.9 156.3Q566.1 152.7 568.5 150.2Q570.8 147.6 574.1 146.3Q577.5 144.9 581.7 144.9L581.7 144.9Q585.8 144.9 589.2 146.3Q592.5 147.6 594.8 150.0Q597.1 152.5 598.3 156.0Q599.6 159.5 599.6 163.8L599.6 163.8L599.6 167.0L574.2 167.0L574.2 167.6Q574.2 171.2 576.4 173.4Q578.6 175.6 583.0 175.6L583.0 175.6Q586.3 175.6 588.7 174.3Q591.0 173.1 592.8 171.0L592.8 171.0L598.5 177.3Q596.4 179.9 592.5 181.9Q588.6 183.8 582.6 183.8ZM581.7 152.6L581.7 152.6Q578.3 152.6 576.2 154.7Q574.2 156.8 574.2 160.4L574.2 160.4L574.2 161.0L589.2 161.0L589.2 160.4Q589.2 156.7 587.2 154.7Q585.2 152.6 581.7 152.6ZM631.1 183.0L618.5 183.0L605.1 145.8L616.4 145.8L621.2 161.7L624.7 174.1L625.3 174.1L628.8 161.7L633.7 145.8L644.5 145.8L631.1 183.0ZM669.0 183.8L669.0 183.8Q659.6 183.8 654.8 178.6Q650.0 173.4 650.0 164.5L650.0 164.5Q650.0 160.0 651.3 156.3Q652.5 152.7 654.9 150.2Q657.2 147.6 660.5 146.3Q663.9 144.9 668.1 144.9L668.1 144.9Q672.2 144.9 675.6 146.3Q678.9 147.6 681.2 150.0Q683.5 152.5 684.7 156.0Q686.0 159.5 686.0 163.8L686.0 163.8L686.0 167.0L660.6 167.0L660.6 167.6Q660.6 171.2 662.8 173.4Q665.0 175.6 669.4 175.6L669.4 175.6Q672.7 175.6 675.1 174.3Q677.4 173.1 679.2 171.0L679.2 171.0L684.9 177.3Q682.8 179.9 678.9 181.9Q675.0 183.8 669.0 183.8ZM668.1 152.6L668.1 152.6Q664.7 152.6 662.6 154.7Q660.6 156.8 660.6 160.4L660.6 160.4L660.6 161.0L675.6 161.0L675.6 160.4Q675.6 156.7 673.6 154.7Q671.6 152.6 668.1 152.6ZM694.5 183.0L694.5 174.7L705.9 174.7L705.9 138.0L694.5 138.0L694.5 129.7L716.5 129.7L716.5 174.7L727.9 174.7L727.9 183.0L694.5 183.0ZM754.4 183.8L754.4 183.8Q750.1 183.8 746.6 182.5Q743.2 181.2 740.8 178.6Q738.3 176.1 737.0 172.5Q735.8 168.9 735.8 164.4L735.8 164.4Q735.8 159.8 737.0 156.2Q738.3 152.6 740.8 150.1Q743.2 147.6 746.6 146.3Q750.1 144.9 754.4 144.9L754.4 144.9Q758.7 144.9 762.2 146.3Q765.6 147.6 768.0 150.1Q770.5 152.6 771.8 156.2Q773.0 159.8 773.0 164.4L773.0 164.4Q773.0 168.9 771.8 172.5Q770.5 176.1 768.0 178.6Q765.6 181.2 762.2 182.5Q758.7 183.8 754.4 183.8ZM754.4 175.9L754.4 175.9Q758.0 175.9 760.0 173.7Q762.0 171.4 762.0 167.3L762.0 167.3L762.0 161.4Q762.0 157.3 760.0 155.1Q758.0 152.9 754.4 152.9L754.4 152.9Q750.8 152.9 748.8 155.1Q746.8 157.3 746.8 161.4L746.8 161.4L746.8 167.3Q746.8 171.4 748.8 173.7Q750.8 175.9 754.4 175.9ZM780.2 197.4L780.2 145.8L790.9 145.8L790.9 152.6L791.4 152.6Q792.8 149.3 795.4 147.1Q798.0 144.9 802.4 144.9L802.4 144.9Q805.5 144.9 808.1 146.1Q810.6 147.2 812.5 149.6Q814.3 152.0 815.3 155.7Q816.4 159.3 816.4 164.4L816.4 164.4Q816.4 169.4 815.3 173.1Q814.3 176.8 812.5 179.1Q810.6 181.5 808.1 182.7Q805.5 183.8 802.4 183.8L802.4 183.8Q798.0 183.8 795.4 181.7Q792.8 179.6 791.4 176.2L791.4 176.2L790.9 176.2L790.9 197.4L780.2 197.4ZM797.8 175.5L797.8 175.5Q801.4 175.5 803.4 173.3Q805.3 171.1 805.3 167.3L805.3 167.3L805.3 161.5Q805.3 157.6 803.4 155.4Q801.4 153.2 797.8 153.2L797.8 153.2Q795.0 153.2 793.0 154.6Q790.9 156.0 790.9 158.9L790.9 158.9L790.9 169.8Q790.9 172.8 793.0 174.2Q795.0 175.5 797.8 175.5Z M893.4 183.0L893.4 160.6L894.0 146.5L893.4 146.5L884.0 172.4L874.6 146.5L874.0 146.5L874.6 160.6L874.6 183.0L865.2 183.0L865.2 132.7L878.0 132.7L884.1 149.6L884.7 149.6L890.9 132.7L902.8 132.7L902.8 183.0L893.4 183.0ZM931.0 161.4L936.6 145.8L947.4 145.8L929.9 188.9Q928.3 193.0 925.5 195.2Q922.8 197.4 918.1 197.4L918.1 197.4L910.7 197.4L910.7 189.1L919.6 189.1L921.9 182.7L907.0 145.8L918.4 145.8L923.8 161.4L927.2 172.2L927.8 172.2L931.0 161.4Z M144.3 276.6L133.5 276.6L133.5 226.3L152.9 226.3Q156.6 226.3 159.5 227.4Q162.3 228.5 164.3 230.6Q166.3 232.7 167.3 235.7Q168.3 238.6 168.3 242.3L168.3 242.3Q168.3 246.0 167.3 248.9Q166.3 251.9 164.3 253.9Q162.3 256.0 159.5 257.1Q156.6 258.3 152.9 258.3L152.9 258.3L144.3 258.3L144.3 276.6ZM144.3 235.0L144.3 249.6L150.2 249.6Q154.0 249.6 155.5 248.1Q156.9 246.7 156.9 243.4L156.9 243.4L156.9 241.2Q156.9 237.9 155.5 236.4Q154.0 235.0 150.2 235.0L150.2 235.0L144.3 235.0ZM192.8 277.4L192.8 277.4Q188.5 277.4 185.0 276.1Q181.6 274.8 179.2 272.2Q176.7 269.7 175.4 266.1Q174.2 262.5 174.2 258.0L174.2 258.0Q174.2 253.4 175.4 249.8Q176.7 246.2 179.2 243.7Q181.6 241.2 185.0 239.9Q188.5 238.5 192.8 238.5L192.8 238.5Q197.1 238.5 200.6 239.9Q204.0 241.2 206.4 243.7Q208.9 246.2 210.2 249.8Q211.4 253.4 211.4 258.0L211.4 258.0Q211.4 262.5 210.2 266.1Q208.9 269.7 206.4 272.2Q204.0 274.8 200.6 276.1Q197.1 277.4 192.8 277.4ZM192.8 269.5L192.8 269.5Q196.4 269.5 198.4 267.3Q200.4 265.0 200.4 260.9L200.4 260.9L200.4 255.0Q200.4 250.9 198.4 248.7Q196.4 246.5 192.8 246.5L192.8 246.5Q189.2 246.5 187.2 248.7Q185.2 250.9 185.2 255.0L185.2 255.0L185.2 260.9Q185.2 265.0 187.2 267.3Q189.2 269.5 192.8 269.5ZM219.7 276.6L219.7 268.3L228.3 268.3L228.3 247.7L219.7 247.7L219.7 239.4L239.0 239.4L239.0 249.9L239.5 249.9Q240.0 247.9 240.9 246.0Q241.8 244.1 243.2 242.6Q244.6 241.1 246.6 240.3Q248.6 239.4 251.3 239.4L251.3 239.4L254.9 239.4L254.9 249.2L246.9 249.2Q243.0 249.2 241.0 251.5Q239.0 253.9 239.0 257.3L239.0 257.3L239.0 268.3L251.2 268.3L251.2 276.6L219.7 276.6ZM295.8 276.6L282.1 276.6Q276.3 276.6 273.5 273.5Q270.7 270.5 270.7 265.8L270.7 265.8L270.7 247.7L260.6 247.7L260.6 239.4L267.2 239.4Q269.6 239.4 270.6 238.5Q271.6 237.5 271.6 235.0L271.6 235.0L271.6 226.3L281.4 226.3L281.4 239.4L295.8 239.4L295.8 247.7L281.4 247.7L281.4 268.3L295.8 268.3L295.8 276.6ZM305.9 276.6L305.9 268.3L316.9 268.3L316.9 247.7L305.2 247.7L305.2 239.4L316.9 239.4L316.9 234.0Q316.9 229.2 319.6 226.3Q322.4 223.3 328.2 223.3L328.2 223.3L340.8 223.3L340.8 231.6L327.5 231.6L327.5 239.4L340.8 239.4L340.8 247.7L327.5 247.7L327.5 268.3L339.2 268.3L339.2 276.6L305.9 276.6ZM365.6 277.4L365.6 277.4Q361.3 277.4 357.8 276.1Q354.4 274.8 352.0 272.2Q349.5 269.7 348.2 266.1Q347.0 262.5 347.0 258.0L347.0 258.0Q347.0 253.4 348.2 249.8Q349.5 246.2 352.0 243.7Q354.4 241.2 357.8 239.9Q361.3 238.5 365.6 238.5L365.6 238.5Q369.9 238.5 373.4 239.9Q376.8 241.2 379.2 243.7Q381.7 246.2 383.0 249.8Q384.2 253.4 384.2 258.0L384.2 258.0Q384.2 262.5 383.0 266.1Q381.7 269.7 379.2 272.2Q376.8 274.8 373.4 276.1Q369.9 277.4 365.6 277.4ZM365.6 269.5L365.6 269.5Q369.2 269.5 371.2 267.3Q373.2 265.0 373.2 260.9L373.2 260.9L373.2 255.0Q373.2 250.9 371.2 248.7Q369.2 246.5 365.6 246.5L365.6 246.5Q362.0 246.5 360.0 248.7Q358.0 250.9 358.0 255.0L358.0 255.0L358.0 260.9Q358.0 265.0 360.0 267.3Q362.0 269.5 365.6 269.5ZM392.1 276.6L392.1 268.3L403.5 268.3L403.5 231.6L392.1 231.6L392.1 223.3L414.1 223.3L414.1 268.3L425.5 268.3L425.5 276.6L392.1 276.6ZM454.3 234.6L454.3 234.6Q450.7 234.6 449.3 233.2Q447.9 231.7 447.9 229.6L447.9 229.6L447.9 227.5Q447.9 225.4 449.3 223.9Q450.7 222.5 454.3 222.5L454.3 222.5Q457.9 222.5 459.3 223.9Q460.7 225.4 460.7 227.5L460.7 227.5L460.7 229.6Q460.7 231.7 459.3 233.2Q457.9 234.6 454.3 234.6ZM437.2 276.6L437.2 268.3L449.0 268.3L449.0 247.7L437.2 247.7L437.2 239.4L459.6 239.4L459.6 268.3L470.6 268.3L470.6 276.6L437.2 276.6ZM495.2 277.4L495.2 277.4Q490.9 277.4 487.4 276.1Q484.0 274.8 481.6 272.2Q479.1 269.7 477.8 266.1Q476.6 262.5 476.6 258.0L476.6 258.0Q476.6 253.4 477.8 249.8Q479.1 246.2 481.6 243.7Q484.0 241.2 487.4 239.9Q490.9 238.5 495.2 238.5L495.2 238.5Q499.5 238.5 503.0 239.9Q506.4 241.2 508.8 243.7Q511.3 246.2 512.6 249.8Q513.8 253.4 513.8 258.0L513.8 258.0Q513.8 262.5 512.6 266.1Q511.3 269.7 508.8 272.2Q506.4 274.8 503.0 276.1Q499.5 277.4 495.2 277.4ZM495.2 269.5L495.2 269.5Q498.8 269.5 500.8 267.3Q502.8 265.0 502.8 260.9L502.8 260.9L502.8 255.0Q502.8 250.9 500.8 248.7Q498.8 246.5 495.2 246.5L495.2 246.5Q491.6 246.5 489.6 248.7Q487.6 250.9 487.6 255.0L487.6 255.0L487.6 260.9Q487.6 265.0 489.6 267.3Q491.6 269.5 495.2 269.5Z M577.6 276.6L563.9 276.6L560.8 226.3L570.1 226.3L571.5 256.4L572.0 265.9L572.6 265.9L576.9 237.2L586.6 237.2L591.0 265.9L591.6 265.9L592.0 256.7L593.5 226.3L602.4 226.3L599.3 276.6L585.6 276.6L582.0 248.8L581.2 248.8L577.6 276.6ZM625.8 277.4L625.8 277.4Q616.4 277.4 611.6 272.2Q606.8 267.0 606.8 258.1L606.8 258.1Q606.8 253.6 608.1 249.9Q609.3 246.3 611.7 243.8Q614.0 241.2 617.3 239.9Q620.7 238.5 624.9 238.5L624.9 238.5Q629.0 238.5 632.4 239.9Q635.7 241.2 638.0 243.6Q640.3 246.1 641.5 249.6Q642.8 253.1 642.8 257.4L642.8 257.4L642.8 260.6L617.4 260.6L617.4 261.2Q617.4 264.8 619.6 267.0Q621.8 269.2 626.2 269.2L626.2 269.2Q629.5 269.2 631.9 267.9Q634.2 266.7 636.0 264.6L636.0 264.6L641.7 270.9Q639.6 273.5 635.7 275.5Q631.8 277.4 625.8 277.4ZM624.9 246.2L624.9 246.2Q621.5 246.2 619.4 248.3Q617.4 250.4 617.4 254.0L617.4 254.0L617.4 254.6L632.4 254.6L632.4 254.0Q632.4 250.3 630.4 248.3Q628.4 246.2 624.9 246.2ZM650.6 276.6L650.6 223.3L661.3 223.3L661.3 246.2L661.8 246.2Q663.2 242.9 665.8 240.7Q668.4 238.5 672.8 238.5L672.8 238.5Q675.9 238.5 678.5 239.7Q681.0 240.8 682.9 243.2Q684.7 245.6 685.7 249.3Q686.8 252.9 686.8 258.0L686.8 258.0Q686.8 263.0 685.7 266.7Q684.7 270.4 682.9 272.7Q681.0 275.1 678.5 276.3Q675.9 277.4 672.8 277.4L672.8 277.4Q668.4 277.4 665.8 275.3Q663.2 273.2 661.8 269.8L661.8 269.8L661.3 269.8L661.3 276.6L650.6 276.6ZM668.2 269.1L668.2 269.1Q671.8 269.1 673.8 266.9Q675.7 264.7 675.7 260.9L675.7 260.9L675.7 255.1Q675.7 251.2 673.8 249.0Q671.8 246.8 668.2 246.8L668.2 246.8Q665.4 246.8 663.4 248.2Q661.3 249.6 661.3 252.5L661.3 252.5L661.3 263.4Q661.3 266.4 663.4 267.8Q665.4 269.1 668.2 269.1ZM710.8 277.4L710.8 277.4Q704.6 277.4 700.0 275.5Q695.4 273.7 693.1 270.4L693.1 270.4L699.1 264.9Q701.3 267.3 704.2 268.6Q707.1 269.9 710.8 269.9L710.8 269.9Q714.0 269.9 715.8 269.0Q717.6 268.0 717.6 266.0L717.6 266.0Q717.6 264.4 716.4 263.8Q715.2 263.2 713 262.8L713 262.8L707.0 261.9Q704.5 261.5 702.3 260.7Q700.2 260.0 698.6 258.7Q697.0 257.4 696.1 255.5Q695.1 253.7 695.1 251.0L695.1 251.0Q695.1 245.2 699.6 241.8Q704.1 238.5 712.1 238.5L712.1 238.5Q717.6 238.5 721.5 240.0Q725.3 241.5 727.6 244.2L727.6 244.2L722.3 250.3Q720.6 248.5 718.0 247.2Q715.4 246.0 711.8 246.0L711.8 246.0Q705.6 246.0 705.6 249.8L705.6 249.8Q705.6 251.4 706.8 252.0Q708.0 252.6 710.2 253.0L710.2 253.0L716.1 253.9Q718.6 254.3 720.8 255.1Q722.9 255.8 724.6 257.1Q726.2 258.4 727.1 260.3Q728.0 262.2 728.0 264.8L728.0 264.8Q728.0 270.6 723.5 274.0Q719.0 277.4 710.8 277.4ZM756.7 234.6L756.7 234.6Q753.1 234.6 751.7 233.2Q750.3 231.7 750.3 229.6L750.3 229.6L750.3 227.5Q750.3 225.4 751.7 223.9Q753.1 222.5 756.7 222.5L756.7 222.5Q760.3 222.5 761.7 223.9Q763.1 225.4 763.1 227.5L763.1 227.5L763.1 229.6Q763.1 231.7 761.7 233.2Q760.3 234.6 756.7 234.6ZM739.6 276.6L739.6 268.3L751.4 268.3L751.4 247.7L739.6 247.7L739.6 239.4L762.0 239.4L762.0 268.3L773.0 268.3L773.0 276.6L739.6 276.6ZM814.2 276.6L800.5 276.6Q794.7 276.6 791.9 273.5Q789.1 270.5 789.1 265.8L789.1 265.8L789.1 247.7L779.0 247.7L779.0 239.4L785.6 239.4Q788.0 239.4 789.0 238.5Q790.0 237.5 790.0 235.0L790.0 235.0L790.0 226.3L799.8 226.3L799.8 239.4L814.2 239.4L814.2 247.7L799.8 247.7L799.8 268.3L814.2 268.3L814.2 276.6ZM841.8 277.4L841.8 277.4Q832.4 277.4 827.6 272.2Q822.8 267.0 822.8 258.1L822.8 258.1Q822.8 253.6 824.1 249.9Q825.3 246.3 827.7 243.8Q830.0 241.2 833.3 239.9Q836.7 238.5 840.9 238.5L840.9 238.5Q845.0 238.5 848.4 239.9Q851.7 241.2 854.0 243.6Q856.3 246.1 857.5 249.6Q858.8 253.1 858.8 257.4L858.8 257.4L858.8 260.6L833.4 260.6L833.4 261.2Q833.4 264.8 835.6 267.0Q837.8 269.2 842.2 269.2L842.2 269.2Q845.5 269.2 847.9 267.9Q850.2 266.7 852.0 264.6L852.0 264.6L857.7 270.9Q855.6 273.5 851.7 275.5Q847.8 277.4 841.8 277.4ZM840.9 246.2L840.9 246.2Q837.5 246.2 835.4 248.3Q833.4 250.4 833.4 254.0L833.4 254.0L833.4 254.6L848.4 254.6L848.4 254.0Q848.4 250.3 846.4 248.3Q844.4 246.2 840.9 246.2Z M920.5 277.4L920.5 277.4Q917.1 277.4 914.5 276.2Q911.9 275.0 910.2 273.1Q908.4 271.1 907.5 268.5Q906.6 265.8 906.6 262.9L906.6 262.9Q906.6 258.3 908.8 255.0Q910.9 251.6 915.1 249.1L915.1 249.1Q912.8 245.9 911.6 243.4Q910.4 240.8 910.4 238.1L910.4 238.1Q910.4 235.4 911.5 233.1Q912.5 230.8 914.4 229.1Q916.3 227.4 918.9 226.4Q921.4 225.4 924.5 225.4L924.5 225.4Q927.1 225.4 929.4 226.2Q931.7 226.9 933.5 228.2Q935.3 229.4 936.5 231.0Q937.6 232.6 938.2 234.4L938.2 234.4L930.9 238.3Q930.1 236.0 928.4 234.7Q926.8 233.4 924.6 233.4L924.6 233.4Q922.4 233.4 921.1 234.6Q919.8 235.9 919.8 238.0L919.8 238.0L919.8 238.4Q919.8 239.4 920.1 240.3Q920.4 241.2 921.1 242.3Q921.8 243.4 922.9 244.9Q924.0 246.4 925.8 248.5L925.8 248.5L929.9 253.7L933.3 259.1L933.8 259.1Q934.0 257.8 934.1 256.4Q934.3 254.9 934.4 253.3Q934.5 251.8 934.5 250.3Q934.5 248.8 934.5 247.6L934.5 247.6L947.4 247.6L947.4 255.5L942.3 255.5Q942.0 257.8 941.2 260.2Q940.5 262.7 939.4 265.2L939.4 265.2L948.7 276.6L937.4 276.6L931.6 269.6L931.1 269.6Q930.6 273.2 927.8 275.3Q925.0 277.4 920.5 277.4ZM923.2 269.3L923.2 269.3Q924.8 269.3 926.3 268.7Q927.7 268.1 928.7 266.4L928.7 266.4L919.4 254.6Q917.6 256.4 917.0 258.2Q916.4 260.1 916.4 262.2L916.4 262.2L916.4 262.3Q916.4 265.8 918.2 267.5Q920.1 269.3 923.2 269.3Z M133.5 370.2L133.5 319.9L151.2 319.9Q158.6 319.9 162.5 323.5Q166.4 327.1 166.4 333.3L166.4 333.3Q166.4 337.6 164.3 340.2Q162.2 342.7 158.2 343.9L158.2 343.9L158.2 344.3Q162.9 345.5 165.5 348.3Q168.0 351.2 168.0 356.3L168.0 356.3Q168.0 362.7 164.0 366.4Q160.0 370.2 152.8 370.2L152.8 370.2L133.5 370.2ZM144.1 362.6L149.5 362.6Q153.4 362.6 155.2 361.3Q157.0 360.0 157.0 356.5L157.0 356.5L157.0 354.5Q157.0 351.0 155.2 349.7Q153.4 348.4 149.5 348.4L149.5 348.4L144.1 348.4L144.1 362.6ZM144.1 341.2L148.2 341.2Q152.0 341.2 153.7 339.9Q155.4 338.7 155.4 335.4L155.4 335.4L155.4 333.2Q155.4 329.9 153.7 328.7Q152.0 327.5 148.2 327.5L148.2 327.5L144.1 327.5L144.1 341.2ZM176.1 370.2L176.1 361.9L187.5 361.9L187.5 325.2L176.1 325.2L176.1 316.9L198.1 316.9L198.1 361.9L209.5 361.9L209.5 370.2L176.1 370.2ZM236.0 371.0L236.0 371.0Q231.7 371.0 228.2 369.7Q224.8 368.4 222.4 365.8Q219.9 363.3 218.6 359.7Q217.4 356.1 217.4 351.6L217.4 351.6Q217.4 347.0 218.6 343.4Q219.9 339.8 222.4 337.3Q224.8 334.8 228.2 333.5Q231.7 332.1 236.0 332.1L236.0 332.1Q240.3 332.1 243.8 333.5Q247.2 334.8 249.6 337.3Q252.1 339.8 253.4 343.4Q254.6 347.0 254.6 351.6L254.6 351.6Q254.6 356.1 253.4 359.7Q252.1 363.3 249.6 365.8Q247.2 368.4 243.8 369.7Q240.3 371.0 236.0 371.0ZM236.0 363.1L236.0 363.1Q239.6 363.1 241.6 360.9Q243.6 358.6 243.6 354.5L243.6 354.5L243.6 348.6Q243.6 344.5 241.6 342.3Q239.6 340.1 236.0 340.1L236.0 340.1Q232.4 340.1 230.4 342.3Q228.4 344.5 228.4 348.6L228.4 348.6L228.4 354.5Q228.4 358.6 230.4 360.9Q232.4 363.1 236.0 363.1ZM299.6 373.9L299.6 373.9Q299.6 379.8 294.6 382.6Q289.6 385.4 279.0 385.4L279.0 385.4Q273.7 385.4 270.2 384.8Q266.7 384.2 264.7 383.0Q262.6 381.9 261.8 380.3Q261.0 378.7 261.0 376.8L261.0 376.8Q261.0 373.7 262.9 372.1Q264.7 370.4 268.1 369.6L268.1 369.6L268.1 369.1Q265.7 368.4 264.3 367.1Q262.9 365.8 262.9 363.3L262.9 363.3Q262.9 360.6 264.8 359.3Q266.6 358.0 269.6 357.3L269.6 357.3L269.6 356.8Q266.3 355.2 264.5 352.4Q262.6 349.5 262.6 345.4L262.6 345.4Q262.6 342.1 263.8 339.7Q264.9 337.2 267.1 335.5Q269.2 333.9 272.1 333.0Q275.1 332.1 278.8 332.1L278.8 332.1Q282.3 332.1 285.3 332.9L285.3 332.9L285.3 330.9Q285.3 328.8 286.8 327.3Q288.3 325.9 291.0 325.9L291.0 325.9L297.6 325.9L297.6 333.6L288.6 333.6L288.6 334.3Q291.7 335.9 293.3 338.7Q295.0 341.4 295.0 345.4L295.0 345.4Q295.0 348.6 293.9 351.1Q292.7 353.5 290.6 355.2Q288.4 356.9 285.4 357.8Q282.4 358.6 278.8 358.6L278.8 358.6Q277.1 358.6 275.6 358.5Q274.1 358.3 272.7 357.9L272.7 357.9Q271.9 358.3 271.4 359.0Q270.8 359.6 270.8 360.6L270.8 360.6Q270.8 361.5 271.3 362.0Q271.7 362.5 272.5 362.8Q273.2 363.0 274.2 363.1Q275.2 363.2 276.3 363.2L276.3 363.2L284.8 363.2Q288.8 363.2 291.6 364.0Q294.4 364.8 296.2 366.2Q298.0 367.6 298.8 369.6Q299.6 371.5 299.6 373.9ZM289.5 374.7L289.5 374.7Q289.5 373.2 288.3 372.4Q287.2 371.6 284.0 371.6L284.0 371.6L271.2 371.6Q269.8 372.8 269.8 374.6L269.8 374.6Q269.8 376.3 271.2 377.5Q272.7 378.6 276.2 378.6L276.2 378.6L282.5 378.6Q286.2 378.6 287.8 377.6Q289.5 376.6 289.5 374.7ZM278.8 351.9L278.8 351.9Q282.0 351.9 283.5 350.3Q285.0 348.7 285.0 346.2L285.0 346.2L285.0 344.5Q285.0 342.1 283.5 340.5Q282.0 338.9 278.8 338.9L278.8 338.9Q275.6 338.9 274.2 340.5Q272.7 342.1 272.7 344.5L272.7 344.5L272.7 346.2Q272.7 348.7 274.2 350.3Q275.6 351.9 278.8 351.9Z " clip-path="url(#satori_cp-id-1-0-0)" mask="url(#satori_om-id-1-0-0)"/><path fill="black" d="M130.7 520.3L130.7 499.6L132.9 499.6L132.9 508.2L133.0 508.2Q134.4 505.5 137.5 505.5L137.5 505.5Q140.1 505.5 141.6 507.5Q143.1 509.5 143.1 513.0L143.1 513.0Q143.1 516.6 141.6 518.6Q140.1 520.6 137.5 520.6L137.5 520.6Q134.4 520.6 133.0 517.9L133.0 517.9L132.9 517.9L132.9 520.3L130.7 520.3ZM136.6 518.6L136.6 518.6Q138.6 518.6 139.6 517.4Q140.7 516.2 140.7 514.3L140.7 514.3L140.7 511.8Q140.7 509.9 139.6 508.7Q138.6 507.5 136.6 507.5L136.6 507.5Q135.8 507.5 135.2 507.7Q134.5 507.9 134.0 508.2Q133.5 508.6 133.2 509.2Q132.9 509.7 132.9 510.4L132.9 510.4L132.9 515.7Q132.9 516.4 133.2 516.9Q133.5 517.5 134.0 517.8Q134.5 518.2 135.2 518.4Q135.8 518.6 136.6 518.6ZM155.4 511.9L157.9 505.8L160.1 505.8L152.9 523.4Q152.7 524.1 152.4 524.5Q152.1 525.0 151.7 525.3Q151.2 525.6 150.7 525.7Q150.1 525.9 149.3 525.9L149.3 525.9L147.1 525.9L147.1 524.0L150.5 524.0L152.1 520.0L146.3 505.8L148.6 505.8L151.0 511.9L153.2 517.4L153.3 517.4L155.4 511.9Z "/><clipPath id="satori_cp-id-1-0-1-0-2"><rect x="178" y="489" width="151" height="36"/></clipPath><mask id="satori_om-id-1-0-1-0-2"><rect x="178" y="489" width="151" height="36" fill="#fff"/></mask><path fill="black" d="M186.1 520.4L186.1 520.4Q183.6 520.4 181.8 519.6Q180.0 518.8 178.9 517.4L178.9 517.4L181.3 514.7Q182.4 515.9 183.6 516.5Q184.9 517.0 186.2 517.0L186.2 517.0Q187.7 517.0 188.5 516.3Q189.3 515.7 189.3 514.4L189.3 514.4Q189.3 513.4 188.7 512.8Q188.1 512.3 186.7 512.1L186.7 512.1L184.6 511.7Q182.0 511.3 180.8 509.8Q179.7 508.3 179.7 506.1L179.7 506.1Q179.7 503.3 181.5 501.8Q183.3 500.2 186.7 500.2L186.7 500.2Q188.9 500.2 190.6 500.9Q192.3 501.6 193.3 502.8L193.3 502.8L191.0 505.5Q190.2 504.6 189.1 504.1Q188.1 503.6 186.7 503.6L186.7 503.6Q183.9 503.6 183.9 506.0L183.9 506.0Q183.9 507.0 184.5 507.5Q185.1 508.0 186.6 508.2L186.6 508.2L188.6 508.6Q191.0 509.0 192.3 510.4Q193.6 511.7 193.6 514.1L193.6 514.1Q193.6 515.4 193.1 516.6Q192.6 517.8 191.7 518.6Q190.7 519.5 189.3 520.0Q187.9 520.4 186.1 520.4ZM210.8 520.1L208.4 520.1Q207.1 520.1 206.4 519.4Q205.6 518.8 205.4 517.5L205.4 517.5L205.3 517.5Q204.9 519.0 203.7 519.7Q202.6 520.4 200.9 520.4L200.9 520.4Q198.8 520.4 197.5 519.3Q196.3 518.2 196.3 516.1L196.3 516.1Q196.3 513.8 197.9 512.8Q199.6 511.7 202.8 511.7L202.8 511.7L205.1 511.7L205.1 510.9Q205.1 509.6 204.5 509.0Q203.9 508.3 202.4 508.3L202.4 508.3Q201.1 508.3 200.3 508.8Q199.5 509.3 198.9 510.2L198.9 510.2L196.6 508.1Q197.4 506.9 198.9 506.1Q200.5 505.3 202.9 505.3L202.9 505.3Q205.9 505.3 207.6 506.7Q209.2 508.0 209.2 510.8L209.2 510.8L209.2 517.1L210.8 517.1L210.8 520.1ZM202.5 517.7L202.5 517.7Q203.6 517.7 204.3 517.2Q205.1 516.6 205.1 515.6L205.1 515.6L205.1 513.9L202.9 513.9Q200.3 513.9 200.3 515.6L200.3 515.6L200.3 516.2Q200.3 516.9 200.9 517.3Q201.5 517.7 202.5 517.7ZM226.5 520.1L221.1 520.1Q218.9 520.1 217.8 518.9Q216.7 517.7 216.7 515.9L216.7 515.9L216.7 508.9L212.8 508.9L212.8 505.6L215.3 505.6Q216.2 505.6 216.6 505.3Q217.0 504.9 217.0 503.9L217.0 503.9L217.0 500.5L220.8 500.5L220.8 505.6L226.5 505.6L226.5 508.9L220.8 508.9L220.8 516.9L226.5 516.9L226.5 520.1Z M255.3 520.1L250.8 507.1L250.5 507.1L250.5 520.1L246.9 520.1L246.9 500.5L251.9 500.5L256.4 513.5L256.7 513.5L256.7 500.5L260.3 500.5L260.3 520.1L255.3 520.1ZM278.0 520.1L275.6 520.1Q274.3 520.1 273.6 519.4Q272.8 518.8 272.6 517.5L272.6 517.5L272.5 517.5Q272.1 519.0 270.9 519.7Q269.8 520.4 268.1 520.4L268.1 520.4Q266.0 520.4 264.7 519.3Q263.5 518.2 263.5 516.1L263.5 516.1Q263.5 513.8 265.1 512.8Q266.8 511.7 270.0 511.7L270.0 511.7L272.3 511.7L272.3 510.9Q272.3 509.6 271.7 509.0Q271.1 508.3 269.6 508.3L269.6 508.3Q268.3 508.3 267.5 508.8Q266.7 509.3 266.1 510.2L266.1 510.2L263.8 508.1Q264.6 506.9 266.1 506.1Q267.7 505.3 270.1 505.3L270.1 505.3Q273.1 505.3 274.8 506.7Q276.4 508.0 276.4 510.8L276.4 510.8L276.4 517.1L278.0 517.1L278.0 520.1ZM269.7 517.7L269.7 517.7Q270.8 517.7 271.5 517.2Q272.3 516.6 272.3 515.6L272.3 515.6L272.3 513.9L270.1 513.9Q267.5 513.9 267.5 515.6L267.5 515.6L267.5 516.2Q267.5 516.9 268.1 517.3Q268.7 517.7 269.7 517.7ZM288.1 503.8L288.1 503.8Q286.7 503.8 286.2 503.2Q285.6 502.6 285.6 501.8L285.6 501.8L285.6 501.0Q285.6 500.2 286.2 499.6Q286.7 499.1 288.1 499.1L288.1 499.1Q289.5 499.1 290.0 499.6Q290.6 500.2 290.6 501.0L290.6 501.0L290.6 501.8Q290.6 502.6 290.0 503.2Q289.5 503.8 288.1 503.8ZM281.4 520.1L281.4 516.9L286.0 516.9L286.0 508.9L281.4 508.9L281.4 505.6L290.2 505.6L290.2 516.9L294.4 516.9L294.4 520.1L281.4 520.1ZM301.6 520.1L297.4 520.1L297.4 505.6L301.6 505.6L301.6 508.3L301.7 508.3Q302.0 507.7 302.3 507.1Q302.7 506.6 303.2 506.2Q303.7 505.8 304.4 505.5Q305.1 505.3 306.0 505.3L306.0 505.3Q307.0 505.3 307.9 505.7Q308.8 506.0 309.4 506.7Q310.0 507.4 310.3 508.4Q310.7 509.4 310.7 510.7L310.7 510.7L310.7 520.1L306.5 520.1L306.5 511.3Q306.5 508.5 304.1 508.5L304.1 508.5Q303.6 508.5 303.2 508.6Q302.7 508.8 302.3 509.0Q302.0 509.3 301.8 509.7Q301.6 510.1 301.6 510.6L301.6 510.6L301.6 520.1ZM328.7 521.5L328.7 521.5Q328.7 523.8 326.8 524.9Q324.9 526.0 320.7 526.0L320.7 526.0Q318.6 526.0 317.3 525.8Q316.0 525.6 315.2 525.1Q314.4 524.7 314.0 524.0Q313.7 523.4 313.7 522.7L313.7 522.7Q313.7 521.5 314.4 520.8Q315.2 520.2 316.5 519.9L316.5 519.9L316.5 519.7Q315.6 519.4 315.0 518.9Q314.5 518.4 314.5 517.4L314.5 517.4Q314.5 516.4 315.2 515.9Q315.9 515.4 317.1 515.1L317.1 515.1L317.1 514.9Q315.8 514.3 315.1 513.2Q314.4 512.1 314.4 510.5L314.4 510.5Q314.4 509.2 314.8 508.2Q315.3 507.3 316.1 506.6Q316.9 506.0 318.1 505.6Q319.2 505.3 320.6 505.3L320.6 505.3Q322.0 505.3 323.2 505.6L323.2 505.6L323.2 504.8Q323.2 504.0 323.8 503.4Q324.4 502.9 325.4 502.9L325.4 502.9L327.9 502.9L327.9 505.9L324.5 505.9L324.5 506.1Q325.6 506.8 326.3 507.8Q327.0 508.9 327.0 510.5L327.0 510.5Q327.0 511.7 326.5 512.7Q326.1 513.6 325.2 514.3Q324.4 514.9 323.2 515.3Q322.1 515.6 320.6 515.6L320.6 515.6Q320.0 515.6 319.4 515.5Q318.8 515.5 318.3 515.3L318.3 515.3Q318.0 515.5 317.8 515.8Q317.6 516.0 317.6 516.4L317.6 516.4Q317.6 516.7 317.7 516.9Q317.9 517.1 318.2 517.2Q318.5 517.3 318.9 517.3Q319.3 517.4 319.7 517.4L319.7 517.4L323.0 517.4Q324.5 517.4 325.6 517.7Q326.7 518.0 327.4 518.6Q328.1 519.1 328.4 519.9Q328.7 520.6 328.7 521.5ZM324.8 521.9L324.8 521.9Q324.8 521.3 324.4 521.0Q323.9 520.7 322.6 520.7L322.6 520.7L317.7 520.7Q317.1 521.1 317.1 521.8L317.1 521.8Q317.1 522.5 317.7 522.9Q318.3 523.4 319.7 523.4L319.7 523.4L322.1 523.4Q323.5 523.4 324.2 523.0Q324.8 522.6 324.8 521.9ZM320.6 513.0L320.6 513.0Q321.9 513.0 322.5 512.4Q323.0 511.7 323.0 510.8L323.0 510.8L323.0 510.1Q323.0 509.2 322.5 508.6Q321.9 507.9 320.6 507.9L320.6 507.9Q319.4 507.9 318.8 508.6Q318.3 509.2 318.3 510.1L318.3 510.1L318.3 510.8Q318.3 511.7 318.8 512.4Q319.4 513.0 320.6 513.0Z " clip-path="url(#satori_cp-id-1-0-1-0-2)" mask="url(#satori_om-id-1-0-1-0-2)"/><clipPath id="satori_cp-id-1-0-1-1"><rect x="903" y="489" width="168" height="36"/></clipPath><mask id="satori_om-id-1-0-1-1"><rect x="903" y="489" width="168" height="36" fill="#fff"/></mask><path fill="black" d="M919.7 520.1L915.2 520.1L913.9 515.4L908.6 515.4L907.4 520.1L903.1 520.1L908.4 500.5L914.4 500.5L919.7 520.1ZM913.3 512.0L911.4 504.6L911.2 504.6L909.3 512.0L913.3 512.0ZM928.0 520.4L928.0 520.4Q925.6 520.4 923.8 519.7Q922.1 519.0 921.2 517.7L921.2 517.7L923.5 515.6Q924.3 516.5 925.5 517.0Q926.6 517.5 928.1 517.5L928.1 517.5Q929.3 517.5 930.0 517.1Q930.7 516.8 930.7 516.0L930.7 516.0Q930.7 515.4 930.2 515.1Q929.7 514.9 928.9 514.7L928.9 514.7L926.6 514.4Q925.6 514.2 924.8 513.9Q923.9 513.7 923.3 513.1Q922.7 512.6 922.3 511.9Q922.0 511.2 922.0 510.2L922.0 510.2Q922.0 507.9 923.7 506.6Q925.4 505.3 928.6 505.3L928.6 505.3Q930.7 505.3 932.2 505.9Q933.7 506.5 934.6 507.5L934.6 507.5L932.5 509.9Q931.9 509.2 930.9 508.7Q929.9 508.2 928.4 508.2L928.4 508.2Q926.0 508.2 926.0 509.7L926.0 509.7Q926.0 510.3 926.5 510.6Q927.0 510.8 927.8 510.9L927.8 510.9L930.1 511.3Q931.1 511.4 931.9 511.7Q932.8 512.0 933.4 512.5Q934.0 513.0 934.4 513.8Q934.8 514.5 934.8 515.5L934.8 515.5Q934.8 517.8 933.0 519.1Q931.3 520.4 928.0 520.4ZM951.5 520.1L946.1 520.1Q943.9 520.1 942.8 518.9Q941.7 517.7 941.7 515.9L941.7 515.9L941.7 508.9L937.8 508.9L937.8 505.6L940.3 505.6Q941.2 505.6 941.6 505.3Q942.0 504.9 942.0 503.9L942.0 503.9L942.0 500.5L945.8 500.5L945.8 505.6L951.5 505.6L951.5 508.9L945.8 508.9L945.8 516.9L951.5 516.9L951.5 520.1ZM955.5 520.1L955.5 516.9L958.8 516.9L958.8 508.9L955.5 508.9L955.5 505.6L962.9 505.6L962.9 509.7L963.1 509.7Q963.3 508.9 963.7 508.2Q964.0 507.5 964.6 506.9Q965.1 506.3 965.9 506.0Q966.7 505.6 967.8 505.6L967.8 505.6L969.1 505.6L969.1 509.5L966.1 509.5Q964.5 509.5 963.7 510.4Q962.9 511.3 962.9 512.6L962.9 512.6L962.9 516.9L967.7 516.9L967.7 520.1L955.5 520.1ZM978.6 520.4L978.6 520.4Q976.9 520.4 975.6 519.9Q974.2 519.4 973.3 518.4Q972.4 517.4 971.9 516.0Q971.3 514.6 971.3 512.9L971.3 512.9Q971.3 511.1 971.9 509.7Q972.4 508.3 973.3 507.3Q974.2 506.3 975.6 505.8Q976.9 505.3 978.6 505.3L978.6 505.3Q980.3 505.3 981.6 505.8Q983.0 506.3 983.9 507.3Q984.8 508.3 985.3 509.7Q985.9 511.1 985.9 512.9L985.9 512.9Q985.9 514.6 985.3 516.0Q984.8 517.4 983.9 518.4Q983.0 519.4 981.6 519.9Q980.3 520.4 978.6 520.4ZM978.6 517.3L978.6 517.3Q980.0 517.3 980.8 516.5Q981.6 515.6 981.6 514.0L981.6 514.0L981.6 511.7Q981.6 510.1 980.8 509.3Q980.0 508.4 978.6 508.4L978.6 508.4Q977.2 508.4 976.4 509.3Q975.6 510.1 975.6 511.7L975.6 511.7L975.6 514.0Q975.6 515.6 976.4 516.5Q977.2 517.3 978.6 517.3ZM993.4 520.1L989.1 520.1L989.1 500.5L996.7 500.5Q998.1 500.5 999.2 501.0Q1000.4 501.4 1001.1 502.2Q1001.9 503.0 1002.3 504.2Q1002.7 505.3 1002.7 506.8L1002.7 506.8Q1002.7 508.2 1002.3 509.3Q1001.9 510.5 1001.1 511.3Q1000.4 512.1 999.2 512.5Q998.1 513.0 996.7 513.0L996.7 513.0L993.4 513.0L993.4 520.1ZM993.4 503.9L993.4 509.6L995.6 509.6Q997.1 509.6 997.7 509.0Q998.3 508.5 998.3 507.2L998.3 507.2L998.3 506.3Q998.3 505.1 997.7 504.5Q997.1 503.9 995.6 503.9L995.6 503.9L993.4 503.9ZM1019.8 520.1L1017.4 520.1Q1016.1 520.1 1015.4 519.4Q1014.6 518.8 1014.4 517.5L1014.4 517.5L1014.3 517.5Q1013.9 519.0 1012.7 519.7Q1011.6 520.4 1009.9 520.4L1009.9 520.4Q1007.8 520.4 1006.5 519.3Q1005.3 518.2 1005.3 516.1L1005.3 516.1Q1005.3 513.8 1006.9 512.8Q1008.6 511.7 1011.8 511.7L1011.8 511.7L1014.1 511.7L1014.1 510.9Q1014.1 509.6 1013.5 509.0Q1012.9 508.3 1011.4 508.3L1011.4 508.3Q1010.1 508.3 1009.3 508.8Q1008.5 509.3 1007.9 510.2L1007.9 510.2L1005.6 508.1Q1006.4 506.9 1007.9 506.1Q1009.5 505.3 1011.9 505.3L1011.9 505.3Q1014.9 505.3 1016.6 506.7Q1018.2 508.0 1018.2 510.8L1018.2 510.8L1018.2 517.1L1019.8 517.1L1019.8 520.1ZM1011.5 517.7L1011.5 517.7Q1012.6 517.7 1013.3 517.2Q1014.1 516.6 1014.1 515.6L1014.1 515.6L1014.1 513.9L1011.9 513.9Q1009.3 513.9 1009.3 515.6L1009.3 515.6L1009.3 516.2Q1009.3 516.9 1009.9 517.3Q1010.5 517.7 1011.5 517.7ZM1022.3 525.7L1022.3 505.6L1026.4 505.6L1026.4 508.3L1026.6 508.3Q1027.1 507.0 1028.1 506.1Q1029.1 505.3 1030.9 505.3L1030.9 505.3Q1032.1 505.3 1033.1 505.8Q1034.1 506.2 1034.8 507.1Q1035.5 508.1 1035.9 509.5Q1036.3 510.9 1036.3 512.9L1036.3 512.9Q1036.3 514.8 1035.9 516.3Q1035.5 517.7 1034.8 518.6Q1034.1 519.5 1033.1 520.0Q1032.1 520.4 1030.9 520.4L1030.9 520.4Q1029.1 520.4 1028.1 519.6Q1027.1 518.8 1026.6 517.5L1026.6 517.5L1026.4 517.5L1026.4 525.7L1022.3 525.7ZM1029.1 517.2L1029.1 517.2Q1030.5 517.2 1031.2 516.4Q1032.0 515.5 1032.0 514.0L1032.0 514.0L1032.0 511.7Q1032.0 510.2 1031.2 509.4Q1030.5 508.5 1029.1 508.5L1029.1 508.5Q1028.0 508.5 1027.2 509.1Q1026.4 509.6 1026.4 510.7L1026.4 510.7L1026.4 515.0Q1026.4 516.1 1027.2 516.7Q1028.0 517.2 1029.1 517.2ZM1046.2 520.4L1046.2 520.4Q1042.6 520.4 1040.7 518.4Q1038.8 516.4 1038.8 512.9L1038.8 512.9Q1038.8 511.2 1039.3 509.7Q1039.8 508.3 1040.7 507.3Q1041.6 506.3 1042.9 505.8Q1044.2 505.3 1045.8 505.3L1045.8 505.3Q1047.5 505.3 1048.7 505.8Q1050.0 506.3 1050.9 507.3Q1051.8 508.2 1052.3 509.6Q1052.8 511.0 1052.8 512.6L1052.8 512.6L1052.8 513.9L1042.9 513.9L1042.9 514.1Q1042.9 515.5 1043.8 516.4Q1044.7 517.2 1046.3 517.2L1046.3 517.2Q1047.6 517.2 1048.5 516.7Q1049.5 516.3 1050.1 515.4L1050.1 515.4L1052.4 517.9Q1051.5 518.9 1050.0 519.7Q1048.5 520.4 1046.2 520.4ZM1045.9 508.3L1045.9 508.3Q1044.5 508.3 1043.7 509.1Q1042.9 509.9 1042.9 511.3L1042.9 511.3L1042.9 511.6L1048.7 511.6L1048.7 511.3Q1048.7 509.9 1048.0 509.1Q1047.2 508.3 1045.9 508.3ZM1056.3 520.1L1056.3 516.9L1059.6 516.9L1059.6 508.9L1056.3 508.9L1056.3 505.6L1063.7 505.6L1063.7 509.7L1063.9 509.7Q1064.1 508.9 1064.5 508.2Q1064.8 507.5 1065.4 506.9Q1065.9 506.3 1066.7 506.0Q1067.5 505.6 1068.6 505.6L1068.6 505.6L1069.9 505.6L1069.9 509.5L1066.9 509.5Q1065.3 509.5 1064.5 510.4Q1063.7 511.3 1063.7 512.6L1063.7 512.6L1063.7 516.9L1068.5 516.9L1068.5 520.1L1056.3 520.1Z " clip-path="url(#satori_cp-id-1-0-1-1)" mask="url(#satori_om-id-1-0-1-1)"/></svg>