<svg width="1200" height="630" viewBox="0 0 1200 630" xmlns="http://www.w3.org/2000/svg"><rect x="0" y="0" width="1200" height="630" fill="#fefbfb"/><defs><clipPath id="satori_bc-id-0"><path x="105" y="39" width="1056" height="504" d="M109,39 h1048 a4,4 0 0 1 4,4 v496 a4,4 0 0 1 -4,4 h-1048 a4,4 0 0 1 -4,-4 v-496 a4,4 0 0 1 4,-4"/></clipPath></defs><g opacity="0.9"><path x="105" y="39" width="1056" height="504" fill="#ecebeb" d="M109,39 h1048 a4,4 0 0 1 4,4 v496 a4,4 0 0 1 -4,4 h-1048 a4,4 0 0 1 -4,-4 v-496 a4,4 0 0 1 4,-4"/><path width="1056" height="504" clip-path="url(#satori_bc-id-0)" fill="none" stroke="#000" stroke-width="8" d="M106.172,40.172 A4,4 0 0 1 109,39 h1048 a4,4 0 0 1 4,4 v496 a4,4 0 0 1 -4,4 h-1048 a4,4 0 0 1 -4,-4 v-496 A4,4 0 0 1 106.172,40.172"/></g><defs><clipPath id="satori_bc-id-1"><path x="72" y="63" width="1056" height="504" d="M76,63 h1048 a4,4 0 0 1 4,4 v496 a4,4 0 0 1 -4,4 h-1048 a4,4 0 0 1 -4,-4 v-496 a4,4 0 0 1 4,-4"/></clipPath></defs><path x="72" y="63" width="1056" height="504" fill="#fefbfb" d="M76,63 h1048 a4,4 0 0 1 4,4 v496 a4,4 0 0 1 -4,4 h-1048 a4,4 0 0 1 -4,-4 v-496 a4,4 0 0 1 4,-4"/><path width="1056" height="504" clip-path="url(#satori_bc-id-1)" fill="none" stroke="#000" stroke-width="8" d="M73.172,64.172 A4,4 0 0 1 76,63 h1048 a4,4 0 0 1 4,4 v496 a4,4 0 0 1 -4,4 h-1048 a4,4 0 0 1 -4,-4 v-496 A4,4 0 0 1 73.172,64.172"/><clipPath id="satori_cp-id-1-0-0"><rect x="128" y="103" width="944" height="281"/></clipPath><mask id="satori_om-id-1-0-0"><rect x="128" y="103" width="944" height="281" fill="#fff"/></mask><path fill="black" d="M155.9 183.0L155.9 161.9L143.3 161.9L143.3 183.0L132.4 183.0L132.4 132.7L143.3 132.7L143.3 153.1L155.9 153.1L155.9 132.7L166.8 132.7L166.8 183.0L155.9 183.0ZM192.8 183.8L192.8 183.8Q188.5 183.8 185.0 182.5Q181.6 181.2 179.2 178.6Q176.7 176.1 175.4 172.5Q174.2 168.9 174.2 164.4L174.2 164.4Q174.2 159.8 175.4 156.2Q176.7 152.6 179.2 150.1Q181.6 147.6 185.0 146.3Q188.5 144.9 192.8 144.9L192.8 144.9Q197.1 144.9 200.6 146.3Q204.0 147.6 206.4 150.1Q208.9 152.6 210.2 156.2Q211.4 159.8 211.4 164.4L211.4 164.4Q211.4 168.9 210.2 172.5Q208.9 176.1 206.4 178.6Q204.0 181.2 200.6 182.5Q197.1 183.8 192.8 183.8ZM192.8 175.9L192.8 175.9Q196.4 175.9 198.4 173.7Q200.4 171.4 200.4 167.3L200.4 167.3L200.4 161.4Q200.4 157.3 198.4 155.1Q196.4 152.9 192.8 152.9L192.8 152.9Q189.2 152.9 187.2 155.1Q185.2 157.3 185.2 161.4L185.2 161.4L185.2 167.3Q185.2 171.4 187.2 173.7Q189.2 175.9 192.8 175.9ZM219.3 183.0L214.9 145.8L223.8 145.8L226.4 175.9L227.1 175.9L231.5 145.8L240.9 145.8L245.2 175.9L245.9 175.9L248.7 145.8L257.1 145.8L252.7 183.0L240.0 183.0L236.4 157.3L235.6 157.3L232.0 183.0L219.3 183.0Z M305.4 183.0L305.4 132.7L321.6 132.7Q331.8 132.7 336.7 139.2Q341.6 145.7 341.6 157.8L341.6 157.8Q341.6 170.0 336.7 176.5Q331.8 183.0 321.6 183.0L321.6 183.0L305.4 183.0ZM316.1 174.5L320.9 174.5Q325.7 174.5 327.9 171.4Q330.2 168.3 330.2 162.4L330.2 162.4L330.2 153.2Q330.2 147.4 327.9 144.3Q325.7 141.2 320.9 141.2L320.9 141.2L316.1 141.2L316.1 174.5ZM365.6 183.8L365.6 183.8Q361.3 183.8 357.8 182.5Q354.4 181.2 352.0 178.6Q349.5 176.1 348.2 172.5Q347.0 168.9 347.0 164.4L347.0 164.4Q347.0 159.8 348.2 156.2Q349.5 152.6 352.0 150.1Q354.4 147.6 357.8 146.3Q361.3 144.9 365.6 144.9L365.6 144.9Q369.9 144.9 373.4 146.3Q376.8 147.6 379.2 150.1Q381.7 152.6 383.0 156.2Q384.2 159.8 384.2 164.4L384.2 164.4Q384.2 168.9 383.0 172.5Q381.7 176.1 379.2 178.6Q376.8 181.2 373.4 182.5Q369.9 183.8 365.6 183.8ZM365.6 175.9L365.6 175.9Q369.2 175.9 371.2 173.7Q373.2 171.4 373.2 167.3L373.2 167.3L373.2 161.4Q373.2 157.3 371.2 155.1Q369.2 152.9 365.6 152.9L365.6 152.9Q362.0 152.9 360.0 155.1Q358.0 157.3 358.0 161.4L358.0 161.4L358.0 167.3Q358.0 171.4 360.0 173.7Q362.0 175.9 365.6 175.9Z M468.2 183.0L435.8 183.0L435.8 175.0L446.6 175.0L446.6 140.7L435.8 140.7L435.8 132.7L468.2 132.7L468.2 140.7L457.4 140.7L457.4 175.0L468.2 175.0L468.2 183.0Z M521.4 183.0L521.4 132.7L537.6 132.7Q547.8 132.7 552.7 139.2Q557.6 145.7 557.6 157.8L557.6 157.8Q557.6 170.0 552.7 176.5Q547.8 183.0 537.6 183.0L537.6 183.0L521.4 183.0ZM532.1 174.5L536.9 174.5Q541.7 174.5 543.9 171.4Q546.2 168.3 546.2 162.4L546.2 162.4L546.2 153.2Q546.2 147.4 543.9 144.3Q541.7 141.2 536.9 141.2L536.9 141.2L532.1 141.2L532.1 174.5ZM582.6 183.8L582.6 183.8Q573.2 183.8 568.4 178.6Q563.6 173.4 563.6 164.5L563.6 164.5Q563.6 160.0 564.9 156.3Q566.1 152.7 568.5 150.2Q570.8 147.6 574.1 146.3Q577.5 144.9 581.7 144.9L581.7 144.9Q585.8 144.9 589.2 146.3Q592.5 147.6 594.8 150.0Q597.1 152.5 598.3 156.0Q599.6 159.5 599.6 163.8L599.6 163.8L599.6 167.0L574.2 167.0L574.2 167.6Q574.2 171.2 576.4 173.4Q578.6 175.6 583.0 175.6L583.0 175.6Q586.3 175.6 588.7 174.3Q591.0 173.1 592.8 171.0L592.8 171.0L598.5 177.3Q596.4 179.9 592.5 181.9Q588.6 183.8 582.6 183.8ZM581.7 152.6L581.7 152.6Q578.3 152.6 576.2 154.7Q574.2 156.8 574.2 160.4L574.2 160.4L574.2 161.0L589.2 161.0L589.2 160.4Q589.2 156.7 587.2 154.7Q585.2 152.6 581.7 152.6ZM631.1 183.0L618.5 183.0L605.1 145.8L616.4 145.8L621.2 161.7L624.7 174.1L625.3 174.1L628.8 161.7L633.7 145.8L644.5 145.8L631.1 183.0ZM669.0 183.8L669.0 183.8Q659.6 183.8 654.8 178.6Q650.0 173.4 650.0 164.5L650.0 164.5Q650.0 160.0 651.3 156.3Q652.5 152.7 654.9 150.2Q657.2 147.6 660.5 146.3Q663.9 144.9 668.1 144.9L668.1 144.9Q672.2 144.9 675.6 146.3Q678.9 147.6 681.2 150.0Q683.5 152.5 684.7 156.0Q686.0 159.5 686.0 163.8L686.0 163.8L686.0 167.0L660.6 167.0L660.6 167.6Q660.6 171.2 662.8 173.4Q665.0 175.6 669.4 175.6L669.4 175.6Q672.7 175.6 675.1 174.3Q677.4 173.1 679.2 171.0L679.2 171.0L684.9 177.3Q682.8 179.9 678.9 181.9Q675.0 183.8 669.0 183.8ZM668.1 152.6L668.1 152.6Q664.7 152.6 662.6 154.7Q660.6 156.8 660.6 160.4L660.6 160.4L660.6 161.0L675.6 161.0L675.6 160.4Q675.6 156.7 673.6 154.7Q671.6 152.6 668.1 152.6ZM694.5 183.0L694.5 174.7L705.9 174.7L705.9 138.0L694.5 138.0L694.5 129.7L716.5 129.7L716.5 174.7L727.9 174.7L727.9 183.0L694.5 183.0ZM754.4 183.8L754.4 183.8Q750.1 183.8 746.6 182.5Q743.2 181.2 740.8 178.6Q738.3 176.1 737.0 172.5Q735.8 168.9 735.8 164.4L735.8 164.4Q735.8 159.8 737.0 156.2Q738.3 152.6 740.8 150.1Q743.2 147.6 746.6 146.3Q750.1 144.9 754.4 144.9L754.4 144.9Q758.7 144.9 762.2 146.3Q765.6 147.6 768.0 150.1Q770.5 152.6 771.8 156.2Q773.0 159.8 773.0 164.4L773.0 164.4Q773.0 168.9 771.8 172.5Q770.5 176.1 768.0 178.6Q765.6 181.2 762.2 182.5Q758.7 183.8 754.4 183.8ZM754.4 175.9L754.4 175.9Q758.0 175.9 760.0 173.7Q762.0 171.4 762.0 167.3L762.0 167.3L762.0 161.4Q762.0 157.3 760.0 155.1Q758.0 152.9 754.4 152.9L754.4 152.9Q750.8 152.9 748.8 155.1Q746.8 157.3 746.8 161.4L746.8 161.4L746.8 167.3Q746.8 171.4 748.8 173.7Q750.8 175.9 754.4 175.9ZM780.2 197.4L780.2 145.8L790.9 145.8L790.9 152.6L791.4 152.6Q792.8 149.3 795.4 147.1Q798.0 144.9 802.4 144.9L802.4 144.9Q805.5 144.9 808.1 146.1Q810.6 147.2 812.5 149.6Q814.3 152.0 815.3 155.7Q816.4 159.3 816.4 164.4L816.4 164.4Q816.4 169.4 815.3 173.1Q814.3 176.8 812.5 179.1Q810.6 181.5 808.1 182.7Q805.5 183.8 802.4 183.8L802.4 183.8Q798.0 183.8 795.4 181.7Q792.8 179.6 791.4 176.2L791.4 176.2L790.9 176.2L790.9 197.4L780.2 197.4ZM797.8 175.5L797.8 175.5Q801.4 175.5 803.4 173.3Q805.3 171.1 805.3 167.3L805.3 167.3L805.3 161.5Q805.3 157.6 803.4 155.4Q801.4 153.2 797.8 153.2L797.8 153.2Q795.0 153.2 793.0 154.6Q790.9 156.0 790.9 158.9L790.9 158.9L790.9 169.8Q790.9 172.8 793.0 174.2Q795.0 175.5 797.8 175.5Z M893.4 183.0L893.4 160.6L894.0 146.5L893.4 146.5L884.0 172.4L874.6 146.5L874.0 146.5L874.6 160.6L874.6 183.0L865.2 183.0L865.2 132.7L878.0 132.7L884.1 149.6L884.7 149.6L890.9 132.7L902.8 132.7L902.8 183.0L893.4 183.0ZM931.0 161.4L936.6 145.8L947.4 145.8L929.9 188.9Q928.3 193.0 925.5 195.2Q922.8 197.4 918.1 197.4L918.1 197.4L910.7 197.4L910.7 189.1L919.6 189.1L921.9 182.7L907.0 145.8L918.4 145.8L923.8 161.4L927.2 172.2L927.8 172.2L931.0 161.4Z M169.5 235.2L155 235.2L155 276.6L144.2 276.6L144.2 235.2L129.7 235.2L129.7 226.3L169.5 226.3L169.5 235.2ZM193.8 277.4L193.8 277.4Q184.4 277.4 179.6 272.2Q174.8 267.0 174.8 258.1L174.8 258.1Q174.8 253.6 176.1 249.9Q177.3 246.3 179.7 243.8Q182 241.2 185.3 239.9Q188.7 238.5 192.9 238.5L192.9 238.5Q197.0 238.5 200.4 239.9Q203.7 241.2 206.0 243.6Q208.3 246.1 209.5 249.6Q210.8 253.1 210.8 257.4L210.8 257.4L210.8 260.6L185.4 260.6L185.4 261.2Q185.4 264.8 187.6 267.0Q189.8 269.2 194.2 269.2L194.2 269.2Q197.5 269.2 199.9 267.9Q202.2 266.7 204.0 264.6L204.0 264.6L209.7 270.9Q207.6 273.5 203.7 275.5Q199.8 277.4 193.8 277.4ZM192.9 246.2L192.9 246.2Q189.5 246.2 187.4 248.3Q185.4 250.4 185.4 254.0L185.4 254.0L185.4 254.6L200.4 254.6L200.4 254.0Q200.4 250.3 198.4 248.3Q196.4 246.2 192.9 246.2ZM219.7 276.6L219.7 268.3L228.3 268.3L228.3 247.7L219.7 247.7L219.7 239.4L239.0 239.4L239.0 249.9L239.5 249.9Q240.0 247.9 240.9 246.0Q241.8 244.1 243.2 242.6Q244.6 241.1 246.6 240.3Q248.6 239.4 251.3 239.4L251.3 239.4L254.9 239.4L254.9 249.2L246.9 249.2Q243.0 249.2 241.0 251.5Q239.0 253.9 239.0 257.3L239.0 257.3L239.0 268.3L251.2 268.3L251.2 276.6L219.7 276.6ZM268.3 276.6L259.8 276.6L259.8 239.4L268.3 239.4L268.3 244.9L268.8 244.9Q269.7 242.3 271.3 240.4Q272.9 238.5 275.9 238.5L275.9 238.5Q281.3 238.5 282.5 244.9L282.5 244.9L282.9 244.9Q283.4 243.6 284.0 242.4Q284.7 241.3 285.6 240.4Q286.5 239.5 287.8 239.0Q289.1 238.5 290.9 238.5L290.9 238.5Q298.6 238.5 298.6 250.0L298.6 250.0L298.6 276.6L290.1 276.6L290.1 251.1Q290.1 248.5 289.2 247.4Q288.3 246.4 286.8 246.4L286.8 246.4Q285.5 246.4 284.5 247.3Q283.5 248.2 283.5 250.1L283.5 250.1L283.5 276.6L274.9 276.6L274.9 251.1Q274.9 248.5 274.1 247.4Q273.2 246.4 271.8 246.4L271.8 246.4Q270.3 246.4 269.3 247.3Q268.3 248.2 268.3 250.1L268.3 250.1L268.3 276.6ZM324.7 234.6L324.7 234.6Q321.1 234.6 319.7 233.2Q318.3 231.7 318.3 229.6L318.3 229.6L318.3 227.5Q318.3 225.4 319.7 223.9Q321.1 222.5 324.7 222.5L324.7 222.5Q328.3 222.5 329.7 223.9Q331.1 225.4 331.1 227.5L331.1 227.5L331.1 229.6Q331.1 231.7 329.7 233.2Q328.3 234.6 324.7 234.6ZM307.6 276.6L307.6 268.3L319.4 268.3L319.4 247.7L307.6 247.7L307.6 239.4L330.0 239.4L330.0 268.3L341.0 268.3L341.0 276.6L307.6 276.6ZM359.3 276.6L348.7 276.6L348.7 239.4L359.3 239.4L359.3 246.2L359.8 246.2Q360.4 244.6 361.4 243.2Q362.3 241.8 363.6 240.8Q365.0 239.8 366.7 239.1Q368.5 238.5 370.7 238.5L370.7 238.5Q373.4 238.5 375.6 239.4Q377.8 240.3 379.4 242.1Q381.0 243.9 381.9 246.5Q382.8 249.1 382.8 252.5L382.8 252.5L382.8 276.6L372.2 276.6L372.2 253.9Q372.2 246.7 365.9 246.7L365.9 246.7Q364.7 246.7 363.5 247.1Q362.3 247.4 361.4 248.1Q360.4 248.8 359.9 249.8Q359.3 250.8 359.3 252.1L359.3 252.1L359.3 276.6ZM428.4 276.6L422.3 276.6Q419.0 276.6 416.9 274.9Q414.9 273.2 414.6 270.0L414.6 270.0L414.2 270.0Q413.2 273.7 410.2 275.5Q407.2 277.4 402.9 277.4L402.9 277.4Q397.5 277.4 394.2 274.5Q390.9 271.6 390.9 266.3L390.9 266.3Q390.9 260.5 395.2 257.7Q399.4 254.9 407.6 254.9L407.6 254.9L413.6 254.9L413.6 253.0Q413.6 249.7 412.1 248.0Q410.5 246.3 406.9 246.3L406.9 246.3Q403.5 246.3 401.4 247.6Q399.3 248.9 397.8 251.0L397.8 251.0L392.0 245.8Q393.8 242.6 397.8 240.6Q401.8 238.5 408.1 238.5L408.1 238.5Q415.7 238.5 420.0 242.0Q424.3 245.5 424.3 252.6L424.3 252.6L424.3 268.8L428.4 268.8L428.4 276.6ZM406.9 270.4L406.9 270.4Q409.7 270.4 411.7 269.1Q413.6 267.7 413.6 265.1L413.6 265.1L413.6 260.6L407.9 260.6Q401.4 260.6 401.4 265.0L401.4 265.0L401.4 266.5Q401.4 268.4 402.9 269.4Q404.4 270.4 406.9 270.4ZM435.3 276.6L435.3 268.3L446.7 268.3L446.7 231.6L435.3 231.6L435.3 223.3L457.3 223.3L457.3 268.3L468.7 268.3L468.7 276.6L435.3 276.6Z M533.1 276.6L522.3 276.6L522.3 226.3L541.7 226.3Q545.4 226.3 548.3 227.4Q551.1 228.5 553.1 230.6Q555.1 232.7 556.1 235.7Q557.1 238.6 557.1 242.3L557.1 242.3Q557.1 246.0 556.1 248.9Q555.1 251.9 553.1 253.9Q551.1 256.0 548.3 257.1Q545.4 258.3 541.7 258.3L541.7 258.3L533.1 258.3L533.1 276.6ZM533.1 235.0L533.1 249.6L539.0 249.6Q542.8 249.6 544.3 248.1Q545.7 246.7 545.7 243.4L545.7 243.4L545.7 241.2Q545.7 237.9 544.3 236.4Q542.8 235.0 539.0 235.0L539.0 235.0L533.1 235.0ZM581.6 277.4L581.6 277.4Q577.3 277.4 573.8 276.1Q570.4 274.8 568.0 272.2Q565.5 269.7 564.2 266.1Q563.0 262.5 563.0 258.0L563.0 258.0Q563.0 253.4 564.2 249.8Q565.5 246.2 568.0 243.7Q570.4 241.2 573.8 239.9Q577.3 238.5 581.6 238.5L581.6 238.5Q585.9 238.5 589.4 239.9Q592.8 241.2 595.2 243.7Q597.7 246.2 599.0 249.8Q600.2 253.4 600.2 258.0L600.2 258.0Q600.2 262.5 599.0 266.1Q597.7 269.7 595.2 272.2Q592.8 274.8 589.4 276.1Q585.9 277.4 581.6 277.4ZM581.6 269.5L581.6 269.5Q585.2 269.5 587.2 267.3Q589.2 265.0 589.2 260.9L589.2 260.9L589.2 255.0Q589.2 250.9 587.2 248.7Q585.2 246.5 581.6 246.5L581.6 246.5Q578 246.5 576.0 248.7Q574.0 250.9 574.0 255.0L574.0 255.0L574.0 260.9Q574.0 265.0 576.0 267.3Q578 269.5 581.6 269.5ZM608.5 276.6L608.5 268.3L617.1 268.3L617.1 247.7L608.5 247.7L608.5 239.4L627.8 239.4L627.8 249.9L628.3 249.9Q628.8 247.9 629.7 246.0Q630.6 244.1 632.0 242.6Q633.4 241.1 635.4 240.3Q637.4 239.4 640.1 239.4L640.1 239.4L643.7 239.4L643.7 249.2L635.7 249.2Q631.8 249.2 629.8 251.5Q627.8 253.9 627.8 257.3L627.8 257.3L627.8 268.3L640.0 268.3L640.0 276.6L608.5 276.6ZM684.6 276.6L670.9 276.6Q665.1 276.6 662.3 273.5Q659.5 270.5 659.5 265.8L659.5 265.8L659.5 247.7L649.4 247.7L649.4 239.4L656.0 239.4Q658.4 239.4 659.4 238.5Q660.4 237.5 660.4 235.0L660.4 235.0L660.4 226.3L670.2 226.3L670.2 239.4L684.6 239.4L684.6 247.7L670.2 247.7L670.2 268.3L684.6 268.3L684.6 276.6ZM694.7 276.6L694.7 268.3L705.7 268.3L705.7 247.7L694.0 247.7L694.0 239.4L705.7 239.4L705.7 234.0Q705.7 229.2 708.4 226.3Q711.2 223.3 717.0 223.3L717.0 223.3L729.6 223.3L729.6 231.6L716.3 231.6L716.3 239.4L729.6 239.4L729.6 247.7L716.3 247.7L716.3 268.3L728.0 268.3L728.0 276.6L694.7 276.6ZM754.4 277.4L754.4 277.4Q750.1 277.4 746.6 276.1Q743.2 274.8 740.8 272.2Q738.3 269.7 737.0 266.1Q735.8 262.5 735.8 258.0L735.8 258.0Q735.8 253.4 737.0 249.8Q738.3 246.2 740.8 243.7Q743.2 241.2 746.6 239.9Q750.1 238.5 754.4 238.5L754.4 238.5Q758.7 238.5 762.2 239.9Q765.6 241.2 768.0 243.7Q770.5 246.2 771.8 249.8Q773.0 253.4 773.0 258.0L773.0 258.0Q773.0 262.5 771.8 266.1Q770.5 269.7 768.0 272.2Q765.6 274.8 762.2 276.1Q758.7 277.4 754.4 277.4ZM754.4 269.5L754.4 269.5Q758.0 269.5 760.0 267.3Q762.0 265.0 762.0 260.9L762.0 260.9L762.0 255.0Q762.0 250.9 760.0 248.7Q758.0 246.5 754.4 246.5L754.4 246.5Q750.8 246.5 748.8 248.7Q746.8 250.9 746.8 255.0L746.8 255.0L746.8 260.9Q746.8 265.0 748.8 267.3Q750.8 269.5 754.4 269.5ZM780.9 276.6L780.9 268.3L792.3 268.3L792.3 231.6L780.9 231.6L780.9 223.3L802.9 223.3L802.9 268.3L814.3 268.3L814.3 276.6L780.9 276.6ZM843.1 234.6L843.1 234.6Q839.5 234.6 838.1 233.2Q836.7 231.7 836.7 229.6L836.7 229.6L836.7 227.5Q836.7 225.4 838.1 223.9Q839.5 222.5 843.1 222.5L843.1 222.5Q846.7 222.5 848.1 223.9Q849.5 225.4 849.5 227.5L849.5 227.5L849.5 229.6Q849.5 231.7 848.1 233.2Q846.7 234.6 843.1 234.6ZM826.0 276.6L826.0 268.3L837.8 268.3L837.8 247.7L826.0 247.7L826.0 239.4L848.4 239.4L848.4 268.3L859.4 268.3L859.4 276.6L826.0 276.6ZM884.0 277.4L884.0 277.4Q879.7 277.4 876.2 276.1Q872.8 274.8 870.4 272.2Q867.9 269.7 866.6 266.1Q865.4 262.5 865.4 258.0L865.4 258.0Q865.4 253.4 866.6 249.8Q867.9 246.2 870.4 243.7Q872.8 241.2 876.2 239.9Q879.7 238.5 884.0 238.5L884.0 238.5Q888.3 238.5 891.8 239.9Q895.2 241.2 897.6 243.7Q900.1 246.2 901.4 249.8Q902.6 253.4 902.6 258.0L902.6 258.0Q902.6 262.5 901.4 266.1Q900.1 269.7 897.6 272.2Q895.2 274.8 891.8 276.1Q888.3 277.4 884.0 277.4ZM884.0 269.5L884.0 269.5Q887.6 269.5 889.6 267.3Q891.6 265.0 891.6 260.9L891.6 260.9L891.6 255.0Q891.6 250.9 889.6 248.7Q887.6 246.5 884.0 246.5L884.0 246.5Q880.4 246.5 878.4 248.7Q876.4 250.9 876.4 255.0L876.4 255.0L876.4 260.9Q876.4 265.0 878.4 267.3Q880.4 269.5 884.0 269.5Z M145.6 370.2L131.9 370.2L128.8 319.9L138.1 319.9L139.5 350.0L140.0 359.5L140.6 359.5L144.9 330.8L154.6 330.8L159.0 359.5L159.6 359.5L160.0 350.3L161.5 319.9L170.4 319.9L167.3 370.2L153.6 370.2L150.0 342.4L149.2 342.4L145.6 370.2ZM193.8 371.0L193.8 371.0Q184.4 371.0 179.6 365.8Q174.8 360.6 174.8 351.7L174.8 351.7Q174.8 347.2 176.1 343.5Q177.3 339.9 179.7 337.4Q182 334.8 185.3 333.5Q188.7 332.1 192.9 332.1L192.9 332.1Q197.0 332.1 200.4 333.5Q203.7 334.8 206.0 337.2Q208.3 339.7 209.5 343.2Q210.8 346.7 210.8 351.0L210.8 351.0L210.8 354.2L185.4 354.2L185.4 354.8Q185.4 358.4 187.6 360.6Q189.8 362.8 194.2 362.8L194.2 362.8Q197.5 362.8 199.9 361.5Q202.2 360.3 204.0 358.2L204.0 358.2L209.7 364.5Q207.6 367.1 203.7 369.1Q199.8 371.0 193.8 371.0ZM192.9 339.8L192.9 339.8Q189.5 339.8 187.4 341.9Q185.4 344.0 185.4 347.6L185.4 347.6L185.4 348.2L200.4 348.2L200.4 347.6Q200.4 343.9 198.4 341.9Q196.4 339.8 192.9 339.8ZM218.6 370.2L218.6 316.9L229.3 316.9L229.3 339.8L229.8 339.8Q231.2 336.5 233.8 334.3Q236.4 332.1 240.8 332.1L240.8 332.1Q243.9 332.1 246.5 333.3Q249.0 334.4 250.9 336.8Q252.7 339.2 253.7 342.9Q254.8 346.5 254.8 351.6L254.8 351.6Q254.8 356.6 253.7 360.3Q252.7 364.0 250.9 366.3Q249.0 368.7 246.5 369.9Q243.9 371.0 240.8 371.0L240.8 371.0Q236.4 371.0 233.8 368.9Q231.2 366.8 229.8 363.4L229.8 363.4L229.3 363.4L229.3 370.2L218.6 370.2ZM236.2 362.7L236.2 362.7Q239.8 362.7 241.8 360.5Q243.7 358.3 243.7 354.5L243.7 354.5L243.7 348.7Q243.7 344.8 241.8 342.6Q239.8 340.4 236.2 340.4L236.2 340.4Q233.4 340.4 231.4 341.8Q229.3 343.2 229.3 346.1L229.3 346.1L229.3 357.0Q229.3 360.0 231.4 361.4Q233.4 362.7 236.2 362.7ZM278.8 371.0L278.8 371.0Q272.6 371.0 268.0 369.1Q263.4 367.3 261.1 364.0L261.1 364.0L267.1 358.5Q269.3 360.9 272.2 362.2Q275.1 363.5 278.8 363.5L278.8 363.5Q282.0 363.5 283.8 362.6Q285.6 361.6 285.6 359.6L285.6 359.6Q285.6 358.0 284.4 357.4Q283.2 356.8 281.0 356.4L281.0 356.4L275.0 355.5Q272.5 355.1 270.3 354.3Q268.2 353.6 266.6 352.3Q265.0 351.0 264.1 349.1Q263.1 347.3 263.1 344.6L263.1 344.6Q263.1 338.8 267.6 335.4Q272.1 332.1 280.1 332.1L280.1 332.1Q285.6 332.1 289.5 333.6Q293.3 335.1 295.6 337.8L295.6 337.8L290.3 343.9Q288.6 342.1 286.0 340.8Q283.4 339.6 279.8 339.6L279.8 339.6Q273.6 339.6 273.6 343.4L273.6 343.4Q273.6 345.0 274.8 345.6Q276.0 346.2 278.2 346.6L278.2 346.6L284.1 347.5Q286.6 347.9 288.8 348.7Q290.9 349.4 292.6 350.7Q294.2 352.0 295.1 353.9Q296.0 355.8 296.0 358.4L296.0 358.4Q296.0 364.2 291.5 367.6Q287.0 371.0 278.8 371.0ZM324.7 328.2L324.7 328.2Q321.1 328.2 319.7 326.8Q318.3 325.3 318.3 323.2L318.3 323.2L318.3 321.1Q318.3 319.0 319.7 317.5Q321.1 316.1 324.7 316.1L324.7 316.1Q328.3 316.1 329.7 317.5Q331.1 319.0 331.1 321.1L331.1 321.1L331.1 323.2Q331.1 325.3 329.7 326.8Q328.3 328.2 324.7 328.2ZM307.6 370.2L307.6 361.9L319.4 361.9L319.4 341.3L307.6 341.3L307.6 333.0L330.0 333.0L330.0 361.9L341.0 361.9L341.0 370.2L307.6 370.2ZM382.2 370.2L368.5 370.2Q362.7 370.2 359.9 367.1Q357.1 364.1 357.1 359.4L357.1 359.4L357.1 341.3L347.0 341.3L347.0 333.0L353.6 333.0Q356.0 333.0 357.0 332.1Q358.0 331.1 358.0 328.6L358.0 328.6L358.0 319.9L367.8 319.9L367.8 333.0L382.2 333.0L382.2 341.3L367.8 341.3L367.8 361.9L382.2 361.9L382.2 370.2ZM409.8 371.0L409.8 371.0Q400.4 371.0 395.6 365.8Q390.8 360.6 390.8 351.7L390.8 351.7Q390.8 347.2 392.1 343.5Q393.3 339.9 395.7 337.4Q398.0 334.8 401.3 333.5Q404.7 332.1 408.9 332.1L408.9 332.1Q413.0 332.1 416.4 333.5Q419.7 334.8 422.0 337.2Q424.3 339.7 425.5 343.2Q426.8 346.7 426.8 351.0L426.8 351.0L426.8 354.2L401.4 354.2L401.4 354.8Q401.4 358.4 403.6 360.6Q405.8 362.8 410.2 362.8L410.2 362.8Q413.5 362.8 415.9 361.5Q418.2 360.3 420.0 358.2L420.0 358.2L425.7 364.5Q423.6 367.1 419.7 369.1Q415.8 371.0 409.8 371.0ZM408.9 339.8L408.9 339.8Q405.5 339.8 403.4 341.9Q401.4 344.0 401.4 347.6L401.4 347.6L401.4 348.2L416.4 348.2L416.4 347.6Q416.4 343.9 414.4 341.9Q412.4 339.8 408.9 339.8Z M478.5 370.2L474.1 333.0L483.0 333.0L485.6 363.1L486.3 363.1L490.7 333.0L500.1 333.0L504.4 363.1L505.1 363.1L507.9 333.0L516.3 333.0L511.9 370.2L499.2 370.2L495.6 344.5L494.8 344.5L491.2 370.2L478.5 370.2ZM540.7 328.2L540.7 328.2Q537.1 328.2 535.7 326.8Q534.3 325.3 534.3 323.2L534.3 323.2L534.3 321.1Q534.3 319.0 535.7 317.5Q537.1 316.1 540.7 316.1L540.7 316.1Q544.3 316.1 545.7 317.5Q547.1 319.0 547.1 321.1L547.1 321.1L547.1 323.2Q547.1 325.3 545.7 326.8Q544.3 328.2 540.7 328.2ZM523.6 370.2L523.6 361.9L535.4 361.9L535.4 341.3L523.6 341.3L523.6 333.0L546.0 333.0L546.0 361.9L557.0 361.9L557.0 370.2L523.6 370.2ZM598.2 370.2L584.5 370.2Q578.7 370.2 575.9 367.1Q573.1 364.1 573.1 359.4L573.1 359.4L573.1 341.3L563.0 341.3L563.0 333.0L569.6 333.0Q572.0 333.0 573.0 332.1Q574.0 331.1 574.0 328.6L574.0 328.6L574.0 319.9L583.8 319.9L583.8 333.0L598.2 333.0L598.2 341.3L583.8 341.3L583.8 361.9L598.2 361.9L598.2 370.2ZM607.9 370.2L607.9 316.9L618.5 316.9L618.5 339.8L619.0 339.8Q619.6 338.2 620.6 336.8Q621.5 335.4 622.8 334.4Q624.2 333.4 625.9 332.7Q627.7 332.1 629.9 332.1L629.9 332.1Q632.6 332.1 634.8 333.0Q637.0 333.9 638.6 335.7Q640.2 337.5 641.1 340.1Q642.0 342.7 642.0 346.1L642.0 346.1L642.0 370.2L631.4 370.2L631.4 347.5Q631.4 340.3 625.1 340.3L625.1 340.3Q623.9 340.3 622.7 340.7Q621.5 341.0 620.6 341.7Q619.6 342.4 619.1 343.4Q618.5 344.4 618.5 345.7L618.5 345.7L618.5 370.2L607.9 370.2Z M705.7 351.5L705.7 370.2L695.1 370.2L695.1 319.9L714.5 319.9Q718.2 319.9 721.1 321.0Q723.9 322.1 725.9 324.2Q727.9 326.3 728.9 329.3Q729.9 332.2 729.9 335.9L729.9 335.9Q729.9 341.2 727.6 345.0Q725.3 348.8 721.1 350.1L721.1 350.1L730.9 370.2L719.1 370.2L710.7 351.5L705.7 351.5ZM705.7 343.2L711.9 343.2Q715.7 343.2 717.2 341.7Q718.7 340.3 718.7 337.0L718.7 337.0L718.7 334.8Q718.7 331.5 717.2 330.0Q715.7 328.6 711.9 328.6L711.9 328.6L705.7 328.6L705.7 343.2ZM755.4 371.0L755.4 371.0Q746.0 371.0 741.2 365.8Q736.4 360.6 736.4 351.7L736.4 351.7Q736.4 347.2 737.7 343.5Q738.9 339.9 741.3 337.4Q743.6 334.8 746.9 333.5Q750.3 332.1 754.5 332.1L754.5 332.1Q758.6 332.1 762.0 333.5Q765.3 334.8 767.6 337.2Q769.9 339.7 771.1 343.2Q772.4 346.7 772.4 351.0L772.4 351.0L772.4 354.2L747.0 354.2L747.0 354.8Q747.0 358.4 749.2 360.6Q751.4 362.8 755.8 362.8L755.8 362.8Q759.1 362.8 761.5 361.5Q763.8 360.3 765.6 358.2L765.6 358.2L771.3 364.5Q769.2 367.1 765.3 369.1Q761.4 371.0 755.4 371.0ZM754.5 339.8L754.5 339.8Q751.1 339.8 749.0 341.9Q747.0 344.0 747.0 347.6L747.0 347.6L747.0 348.2L762.0 348.2L762.0 347.6Q762.0 343.9 760.0 341.9Q758 339.8 754.5 339.8ZM817.2 370.2L811.1 370.2Q807.8 370.2 805.7 368.5Q803.7 366.8 803.4 363.6L803.4 363.6L803 363.6Q802.0 367.3 799.0 369.1Q796.0 371.0 791.7 371.0L791.7 371.0Q786.3 371.0 783.0 368.1Q779.7 365.2 779.7 359.9L779.7 359.9Q779.7 354.1 784.0 351.3Q788.2 348.5 796.4 348.5L796.4 348.5L802.4 348.5L802.4 346.6Q802.4 343.3 800.9 341.6Q799.3 339.9 795.7 339.9L795.7 339.9Q792.3 339.9 790.2 341.2Q788.1 342.5 786.6 344.6L786.6 344.6L780.8 339.4Q782.6 336.2 786.6 334.2Q790.6 332.1 796.9 332.1L796.9 332.1Q804.5 332.1 808.8 335.6Q813.1 339.1 813.1 346.2L813.1 346.2L813.1 362.4L817.2 362.4L817.2 370.2ZM795.7 364.0L795.7 364.0Q798.5 364.0 800.5 362.7Q802.4 361.3 802.4 358.7L802.4 358.7L802.4 354.2L796.7 354.2Q790.2 354.2 790.2 358.6L790.2 358.6L790.2 360.1Q790.2 362.0 791.7 363.0Q793.2 364.0 795.7 364.0ZM842.3 371.0L842.3 371.0Q837.9 371.0 834.4 369.7Q830.9 368.4 828.5 365.8Q826.1 363.3 824.8 359.7Q823.5 356.1 823.5 351.6L823.5 351.6Q823.5 347.0 824.8 343.4Q826.1 339.8 828.5 337.3Q830.9 334.8 834.4 333.5Q837.9 332.1 842.2 332.1L842.2 332.1Q848.4 332.1 852.1 334.6Q855.8 337.1 857.7 341.2L857.7 341.2L849.5 345.7Q848.5 343.5 846.9 342.1Q845.3 340.6 842.2 340.6L842.2 340.6Q838.6 340.6 836.6 342.8Q834.6 344.9 834.6 348.6L834.6 348.6L834.6 354.6Q834.6 358.3 836.6 360.4Q838.6 362.5 842.4 362.5L842.4 362.5Q845.5 362.5 847.2 361.1Q849.0 359.6 850.2 357.3L850.2 357.3L858.3 361.9Q856.3 366.0 852.4 368.5Q848.6 371.0 842.3 371.0ZM900.6 370.2L886.9 370.2Q881.1 370.2 878.3 367.1Q875.5 364.1 875.5 359.4L875.5 359.4L875.5 341.3L865.4 341.3L865.4 333.0L872.0 333.0Q874.4 333.0 875.4 332.1Q876.4 331.1 876.4 328.6L876.4 328.6L876.4 319.9L886.2 319.9L886.2 333.0L900.6 333.0L900.6 341.3L886.2 341.3L886.2 361.9L900.6 361.9L900.6 370.2Z " clip-path="url(#satori_cp-id-1-0-0)" mask="url(#satori_om-id-1-0-0)"/><path fill="black" d="M130.7 520.3L130.7 499.6L132.9 499.6L132.9 508.2L133.0 508.2Q134.4 505.5 137.5 505.5L137.5 505.5Q140.1 505.5 141.6 507.5Q143.1 509.5 143.1 513.0L143.1 513.0Q143.1 516.6 141.6 518.6Q140.1 520.6 137.5 520.6L137.5 520.6Q134.4 520.6 133.0 517.9L133.0 517.9L132.9 517.9L132.9 520.3L130.7 520.3ZM136.6 518.6L136.6 518.6Q138.6 518.6 139.6 517.4Q140.7 516.2 140.7 514.3L140.7 514.3L140.7 511.8Q140.7 509.9 139.6 508.7Q138.6 507.5 136.6 507.5L136.6 507.5Q135.8 507.5 135.2 507.7Q134.5 507.9 134.0 508.2Q133.5 508.6 133.2 509.2Q132.9 509.7 132.9 510.4L132.9 510.4L132.9 515.7Q132.9 516.4 133.2 516.9Q133.5 517.5 134.0 517.8Q134.5 518.2 135.2 518.4Q135.8 518.6 136.6 518.6ZM155.4 511.9L157.9 505.8L160.1 505.8L152.9 523.4Q152.7 524.1 152.4 524.5Q152.1 525.0 151.7 525.3Q151.2 525.6 150.7 525.7Q150.1 525.9 149.3 525.9L149.3 525.9L147.1 525.9L147.1 524.0L150.5 524.0L152.1 520.0L146.3 505.8L148.6 505.8L151.0 511.9L153.2 517.4L153.3 517.4L155.4 511.9Z "/><clipPath id="satori_cp-id-1-0-1-0-2"><rect x="178" y="489" width="151" height="36"/></clipPath><mask id="satori_om-id-1-0-1-0-2"><rect x="178" y="489" width="151" height="36" fill="#fff"/></mask><path fill="black" d="M186.1 520.4L186.1 520.4Q183.6 520.4 181.8 519.6Q180.0 518.8 178.9 517.4L178.9 517.4L181.3 514.7Q182.4 515.9 183.6 516.5Q184.9 517.0 186.2 517.0L186.2 517.0Q187.7 517.0 188.5 516.3Q189.3 515.7 189.3 514.4L189.3 514.4Q189.3 513.4 188.7 512.8Q188.1 512.3 186.7 512.1L186.7 512.1L184.6 511.7Q182.0 511.3 180.8 509.8Q179.7 508.3 179.7 506.1L179.7 506.1Q179.7 503.3 181.5 501.8Q183.3 500.2 186.7 500.2L186.7 500.2Q188.9 500.2 190.6 500.9Q192.3 501.6 193.3 502.8L193.3 502.8L191.0 505.5Q190.2 504.6 189.1 504.1Q188.1 503.6 186.7 503.6L186.7 503.6Q183.9 503.6 183.9 506.0L183.9 506.0Q183.9 507.0 184.5 507.5Q185.1 508.0 186.6 508.2L186.6 508.2L188.6 508.6Q191.0 509.0 192.3 510.4Q193.6 511.7 193.6 514.1L193.6 514.1Q193.6 515.4 193.1 516.6Q192.6 517.8 191.7 518.6Q190.7 519.5 189.3 520.0Q187.9 520.4 186.1 520.4ZM210.8 520.1L208.4 520.1Q207.1 520.1 206.4 519.4Q205.6 518.8 205.4 517.5L205.4 517.5L205.3 517.5Q204.9 519.0 203.7 519.7Q202.6 520.4 200.9 520.4L200.9 520.4Q198.8 520.4 197.5 519.3Q196.3 518.2 196.3 516.1L196.3 516.1Q196.3 513.8 197.9 512.8Q199.6 511.7 202.8 511.7L202.8 511.7L205.1 511.7L205.1 510.9Q205.1 509.6 204.5 509.0Q203.9 508.3 202.4 508.3L202.4 508.3Q201.1 508.3 200.3 508.8Q199.5 509.3 198.9 510.2L198.9 510.2L196.6 508.1Q197.4 506.9 198.9 506.1Q200.5 505.3 202.9 505.3L202.9 505.3Q205.9 505.3 207.6 506.7Q209.2 508.0 209.2 510.8L209.2 510.8L209.2 517.1L210.8 517.1L210.8 520.1ZM202.5 517.7L202.5 517.7Q203.6 517.7 204.3 517.2Q205.1 516.6 205.1 515.6L205.1 515.6L205.1 513.9L202.9 513.9Q200.3 513.9 200.3 515.6L200.3 515.6L200.3 516.2Q200.3 516.9 200.9 517.3Q201.5 517.7 202.5 517.7ZM226.5 520.1L221.1 520.1Q218.9 520.1 217.8 518.9Q216.7 517.7 216.7 515.9L216.7 515.9L216.7 508.9L212.8 508.9L212.8 505.6L215.3 505.6Q216.2 505.6 216.6 505.3Q217.0 504.9 217.0 503.9L217.0 503.9L217.0 500.5L220.8 500.5L220.8 505.6L226.5 505.6L226.5 508.9L220.8 508.9L220.8 516.9L226.5 516.9L226.5 520.1Z M255.3 520.1L250.8 507.1L250.5 507.1L250.5 520.1L246.9 520.1L246.9 500.5L251.9 500.5L256.4 513.5L256.7 513.5L256.7 500.5L260.3 500.5L260.3 520.1L255.3 520.1ZM278.0 520.1L275.6 520.1Q274.3 520.1 273.6 519.4Q272.8 518.8 272.6 517.5L272.6 517.5L272.5 517.5Q272.1 519.0 270.9 519.7Q269.8 520.4 268.1 520.4L268.1 520.4Q266.0 520.4 264.7 519.3Q263.5 518.2 263.5 516.1L263.5 516.1Q263.5 513.8 265.1 512.8Q266.8 511.7 270.0 511.7L270.0 511.7L272.3 511.7L272.3 510.9Q272.3 509.6 271.7 509.0Q271.1 508.3 269.6 508.3L269.6 508.3Q268.3 508.3 267.5 508.8Q266.7 509.3 266.1 510.2L266.1 510.2L263.8 508.1Q264.6 506.9 266.1 506.1Q267.7 505.3 270.1 505.3L270.1 505.3Q273.1 505.3 274.8 506.7Q276.4 508.0 276.4 510.8L276.4 510.8L276.4 517.1L278.0 517.1L278.0 520.1ZM269.7 517.7L269.7 517.7Q270.8 517.7 271.5 517.2Q272.3 516.6 272.3 515.6L272.3 515.6L272.3 513.9L270.1 513.9Q267.5 513.9 267.5 515.6L267.5 515.6L267.5 516.2Q267.5 516.9 268.1 517.3Q268.7 517.7 269.7 517.7ZM288.1 503.8L288.1 503.8Q286.7 503.8 286.2 503.2Q285.6 502.6 285.6 501.8L285.6 501.8L285.6 501.0Q285.6 500.2 286.2 499.6Q286.7 499.1 288.1 499.1L288.1 499.1Q289.5 499.1 290.0 499.6Q290.6 500.2 290.6 501.0L290.6 501.0L290.6 501.8Q290.6 502.6 290.0 503.2Q289.5 503.8 288.1 503.8ZM281.4 520.1L281.4 516.9L286.0 516.9L286.0 508.9L281.4 508.9L281.4 505.6L290.2 505.6L290.2 516.9L294.4 516.9L294.4 520.1L281.4 520.1ZM301.6 520.1L297.4 520.1L297.4 505.6L301.6 505.6L301.6 508.3L301.7 508.3Q302.0 507.7 302.3 507.1Q302.7 506.6 303.2 506.2Q303.7 505.8 304.4 505.5Q305.1 505.3 306.0 505.3L306.0 505.3Q307.0 505.3 307.9 505.7Q308.8 506.0 309.4 506.7Q310.0 507.4 310.3 508.4Q310.7 509.4 310.7 510.7L310.7 510.7L310.7 520.1L306.5 520.1L306.5 511.3Q306.5 508.5 304.1 508.5L304.1 508.5Q303.6 508.5 303.2 508.6Q302.7 508.8 302.3 509.0Q302.0 509.3 301.8 509.7Q301.6 510.1 301.6 510.6L301.6 510.6L301.6 520.1ZM328.7 521.5L328.7 521.5Q328.7 523.8 326.8 524.9Q324.9 526.0 320.7 526.0L320.7 526.0Q318.6 526.0 317.3 525.8Q316.0 525.6 315.2 525.1Q314.4 524.7 314.0 524.0Q313.7 523.4 313.7 522.7L313.7 522.7Q313.7 521.5 314.4 520.8Q315.2 520.2 316.5 519.9L316.5 519.9L316.5 519.7Q315.6 519.4 315.0 518.9Q314.5 518.4 314.5 517.4L314.5 517.4Q314.5 516.4 315.2 515.9Q315.9 515.4 317.1 515.1L317.1 515.1L317.1 514.9Q315.8 514.3 315.1 513.2Q314.4 512.1 314.4 510.5L314.4 510.5Q314.4 509.2 314.8 508.2Q315.3 507.3 316.1 506.6Q316.9 506.0 318.1 505.6Q319.2 505.3 320.6 505.3L320.6 505.3Q322.0 505.3 323.2 505.6L323.2 505.6L323.2 504.8Q323.2 504.0 323.8 503.4Q324.4 502.9 325.4 502.9L325.4 502.9L327.9 502.9L327.9 505.9L324.5 505.9L324.5 506.1Q325.6 506.8 326.3 507.8Q327.0 508.9 327.0 510.5L327.0 510.5Q327.0 511.7 326.5 512.7Q326.1 513.6 325.2 514.3Q324.4 514.9 323.2 515.3Q322.1 515.6 320.6 515.6L320.6 515.6Q320.0 515.6 319.4 515.5Q318.8 515.5 318.3 515.3L318.3 515.3Q318.0 515.5 317.8 515.8Q317.6 516.0 317.6 516.4L317.6 516.4Q317.6 516.7 317.7 516.9Q317.9 517.1 318.2 517.2Q318.5 517.3 318.9 517.3Q319.3 517.4 319.7 517.4L319.7 517.4L323.0 517.4Q324.5 517.4 325.6 517.7Q326.7 518.0 327.4 518.6Q328.1 519.1 328.4 519.9Q328.7 520.6 328.7 521.5ZM324.8 521.9L324.8 521.9Q324.8 521.3 324.4 521.0Q323.9 520.7 322.6 520.7L322.6 520.7L317.7 520.7Q317.1 521.1 317.1 521.8L317.1 521.8Q317.1 522.5 317.7 522.9Q318.3 523.4 319.7 523.4L319.7 523.4L322.1 523.4Q323.5 523.4 324.2 523.0Q324.8 522.6 324.8 521.9ZM320.6 513.0L320.6 513.0Q321.9 513.0 322.5 512.4Q323.0 511.7 323.0 510.8L323.0 510.8L323.0 510.1Q323.0 509.2 322.5 508.6Q321.9 507.9 320.6 507.9L320.6 507.9Q319.4 507.9 318.8 508.6Q318.3 509.2 318.3 510.1L318.3 510.1L318.3 510.8Q318.3 511.7 318.8 512.4Q319.4 513.0 320.6 513.0Z " clip-path="url(#satori_cp-id-1-0-1-0-2)" mask="url(#satori_om-id-1-0-1-0-2)"/><clipPath id="satori_cp-id-1-0-1-1"><rect x="903" y="489" width="168" height="36"/></clipPath><mask id="satori_om-id-1-0-1-1"><rect x="903" y="489" width="168" height="36" fill="#fff"/></mask><path fill="black" d="M919.7 520.1L915.2 520.1L913.9 515.4L908.6 515.4L907.4 520.1L903.1 520.1L908.4 500.5L914.4 500.5L919.7 520.1ZM913.3 512.0L911.4 504.6L911.2 504.6L909.3 512.0L913.3 512.0ZM928.0 520.4L928.0 520.4Q925.6 520.4 923.8 519.7Q922.1 519.0 921.2 517.7L921.2 517.7L923.5 515.6Q924.3 516.5 925.5 517.0Q926.6 517.5 928.1 517.5L928.1 517.5Q929.3 517.5 930.0 517.1Q930.7 516.8 930.7 516.0L930.7 516.0Q930.7 515.4 930.2 515.1Q929.7 514.9 928.9 514.7L928.9 514.7L926.6 514.4Q925.6 514.2 924.8 513.9Q923.9 513.7 923.3 513.1Q922.7 512.6 922.3 511.9Q922.0 511.2 922.0 510.2L922.0 510.2Q922.0 507.9 923.7 506.6Q925.4 505.3 928.6 505.3L928.6 505.3Q930.7 505.3 932.2 505.9Q933.7 506.5 934.6 507.5L934.6 507.5L932.5 509.9Q931.9 509.2 930.9 508.7Q929.9 508.2 928.4 508.2L928.4 508.2Q926.0 508.2 926.0 509.7L926.0 509.7Q926.0 510.3 926.5 510.6Q927.0 510.8 927.8 510.9L927.8 510.9L930.1 511.3Q931.1 511.4 931.9 511.7Q932.8 512.0 933.4 512.5Q934.0 513.0 934.4 513.8Q934.8 514.5 934.8 515.5L934.8 515.5Q934.8 517.8 933.0 519.1Q931.3 520.4 928.0 520.4ZM951.5 520.1L946.1 520.1Q943.9 520.1 942.8 518.9Q941.7 517.7 941.7 515.9L941.7 515.9L941.7 508.9L937.8 508.9L937.8 505.6L940.3 505.6Q941.2 505.6 941.6 505.3Q942.0 504.9 942.0 503.9L942.0 503.9L942.0 500.5L945.8 500.5L945.8 505.6L951.5 505.6L951.5 508.9L945.8 508.9L945.8 516.9L951.5 516.9L951.5 520.1ZM955.5 520.1L955.5 516.9L958.8 516.9L958.8 508.9L955.5 508.9L955.5 505.6L962.9 505.6L962.9 509.7L963.1 509.7Q963.3 508.9 963.7 508.2Q964.0 507.5 964.6 506.9Q965.1 506.3 965.9 506.0Q966.7 505.6 967.8 505.6L967.8 505.6L969.1 505.6L969.1 509.5L966.1 509.5Q964.5 509.5 963.7 510.4Q962.9 511.3 962.9 512.6L962.9 512.6L962.9 516.9L967.7 516.9L967.7 520.1L955.5 520.1ZM978.6 520.4L978.6 520.4Q976.9 520.4 975.6 519.9Q974.2 519.4 973.3 518.4Q972.4 517.4 971.9 516.0Q971.3 514.6 971.3 512.9L971.3 512.9Q971.3 511.1 971.9 509.7Q972.4 508.3 973.3 507.3Q974.2 506.3 975.6 505.8Q976.9 505.3 978.6 505.3L978.6 505.3Q980.3 505.3 981.6 505.8Q983.0 506.3 983.9 507.3Q984.8 508.3 985.3 509.7Q985.9 511.1 985.9 512.9L985.9 512.9Q985.9 514.6 985.3 516.0Q984.8 517.4 983.9 518.4Q983.0 519.4 981.6 519.9Q980.3 520.4 978.6 520.4ZM978.6 517.3L978.6 517.3Q980.0 517.3 980.8 516.5Q981.6 515.6 981.6 514.0L981.6 514.0L981.6 511.7Q981.6 510.1 980.8 509.3Q980.0 508.4 978.6 508.4L978.6 508.4Q977.2 508.4 976.4 509.3Q975.6 510.1 975.6 511.7L975.6 511.7L975.6 514.0Q975.6 515.6 976.4 516.5Q977.2 517.3 978.6 517.3ZM993.4 520.1L989.1 520.1L989.1 500.5L996.7 500.5Q998.1 500.5 999.2 501.0Q1000.4 501.4 1001.1 502.2Q1001.9 503.0 1002.3 504.2Q1002.7 505.3 1002.7 506.8L1002.7 506.8Q1002.7 508.2 1002.3 509.3Q1001.9 510.5 1001.1 511.3Q1000.4 512.1 999.2 512.5Q998.1 513.0 996.7 513.0L996.7 513.0L993.4 513.0L993.4 520.1ZM993.4 503.9L993.4 509.6L995.6 509.6Q997.1 509.6 997.7 509.0Q998.3 508.5 998.3 507.2L998.3 507.2L998.3 506.3Q998.3 505.1 997.7 504.5Q997.1 503.9 995.6 503.9L995.6 503.9L993.4 503.9ZM1019.8 520.1L1017.4 520.1Q1016.1 520.1 1015.4 519.4Q1014.6 518.8 1014.4 517.5L1014.4 517.5L1014.3 517.5Q1013.9 519.0 1012.7 519.7Q1011.6 520.4 1009.9 520.4L1009.9 520.4Q1007.8 520.4 1006.5 519.3Q1005.3 518.2 1005.3 516.1L1005.3 516.1Q1005.3 513.8 1006.9 512.8Q1008.6 511.7 1011.8 511.7L1011.8 511.7L1014.1 511.7L1014.1 510.9Q1014.1 509.6 1013.5 509.0Q1012.9 508.3 1011.4 508.3L1011.4 508.3Q1010.1 508.3 1009.3 508.8Q1008.5 509.3 1007.9 510.2L1007.9 510.2L1005.6 508.1Q1006.4 506.9 1007.9 506.1Q1009.5 505.3 1011.9 505.3L1011.9 505.3Q1014.9 505.3 1016.6 506.7Q1018.2 508.0 1018.2 510.8L1018.2 510.8L1018.2 517.1L1019.8 517.1L1019.8 520.1ZM1011.5 517.7L1011.5 517.7Q1012.6 517.7 1013.3 517.2Q1014.1 516.6 1014.1 515.6L1014.1 515.6L1014.1 513.9L1011.9 513.9Q1009.3 513.9 1009.3 515.6L1009.3 515.6L1009.3 516.2Q1009.3 516.9 1009.9 517.3Q1010.5 517.7 1011.5 517.7ZM1022.3 525.7L1022.3 505.6L1026.4 505.6L1026.4 508.3L1026.6 508.3Q1027.1 507.0 1028.1 506.1Q1029.1 505.3 1030.9 505.3L1030.9 505.3Q1032.1 505.3 1033.1 505.8Q1034.1 506.2 1034.8 507.1Q1035.5 508.1 1035.9 509.5Q1036.3 510.9 1036.3 512.9L1036.3 512.9Q1036.3 514.8 1035.9 516.3Q1035.5 517.7 1034.8 518.6Q1034.1 519.5 1033.1 520.0Q1032.1 520.4 1030.9 520.4L1030.9 520.4Q1029.1 520.4 1028.1 519.6Q1027.1 518.8 1026.6 517.5L1026.6 517.5L1026.4 517.5L1026.4 525.7L1022.3 525.7ZM1029.1 517.2L1029.1 517.2Q1030.5 517.2 1031.2 516.4Q1032.0 515.5 1032.0 514.0L1032.0 514.0L1032.0 511.7Q1032.0 510.2 1031.2 509.4Q1030.5 508.5 1029.1 508.5L1029.1 508.5Q1028.0 508.5 1027.2 509.1Q1026.4 509.6 1026.4 510.7L1026.4 510.7L1026.4 515.0Q1026.4 516.1 1027.2 516.7Q1028.0 517.2 1029.1 517.2ZM1046.2 520.4L1046.2 520.4Q1042.6 520.4 1040.7 518.4Q1038.8 516.4 1038.8 512.9L1038.8 512.9Q1038.8 511.2 1039.3 509.7Q1039.8 508.3 1040.7 507.3Q1041.6 506.3 1042.9 505.8Q1044.2 505.3 1045.8 505.3L1045.8 505.3Q1047.5 505.3 1048.7 505.8Q1050.0 506.3 1050.9 507.3Q1051.8 508.2 1052.3 509.6Q1052.8 511.0 1052.8 512.6L1052.8 512.6L1052.8 513.9L1042.9 513.9L1042.9 514.1Q1042.9 515.5 1043.8 516.4Q1044.7 517.2 1046.3 517.2L1046.3 517.2Q1047.6 517.2 1048.5 516.7Q1049.5 516.3 1050.1 515.4L1050.1 515.4L1052.4 517.9Q1051.5 518.9 1050.0 519.7Q1048.5 520.4 1046.2 520.4ZM1045.9 508.3L1045.9 508.3Q1044.5 508.3 1043.7 509.1Q1042.9 509.9 1042.9 511.3L1042.9 511.3L1042.9 511.6L1048.7 511.6L1048.7 511.3Q1048.7 509.9 1048.0 509.1Q1047.2 508.3 1045.9 508.3ZM1056.3 520.1L1056.3 516.9L1059.6 516.9L1059.6 508.9L1056.3 508.9L1056.3 505.6L1063.7 505.6L1063.7 509.7L1063.9 509.7Q1064.1 508.9 1064.5 508.2Q1064.8 507.5 1065.4 506.9Q1065.9 506.3 1066.7 506.0Q1067.5 505.6 1068.6 505.6L1068.6 505.6L1069.9 505.6L1069.9 509.5L1066.9 509.5Q1065.3 509.5 1064.5 510.4Q1063.7 511.3 1063.7 512.6L1063.7 512.6L1063.7 516.9L1068.5 516.9L1068.5 520.1L1056.3 520.1Z " clip-path="url(#satori_cp-id-1-0-1-1)" mask="url(#satori_om-id-1-0-1-1)"/></svg>