<svg width="1200" height="630" viewBox="0 0 1200 630" xmlns="http://www.w3.org/2000/svg"><rect x="0" y="0" width="1200" height="630" fill="#fefbfb"/><defs><clipPath id="satori_bc-id-0"><path x="105" y="39" width="1056" height="504" d="M109,39 h1048 a4,4 0 0 1 4,4 v496 a4,4 0 0 1 -4,4 h-1048 a4,4 0 0 1 -4,-4 v-496 a4,4 0 0 1 4,-4"/></clipPath></defs><g opacity="0.9"><path x="105" y="39" width="1056" height="504" fill="#ecebeb" d="M109,39 h1048 a4,4 0 0 1 4,4 v496 a4,4 0 0 1 -4,4 h-1048 a4,4 0 0 1 -4,-4 v-496 a4,4 0 0 1 4,-4"/><path width="1056" height="504" clip-path="url(#satori_bc-id-0)" fill="none" stroke="#000" stroke-width="8" d="M106.172,40.172 A4,4 0 0 1 109,39 h1048 a4,4 0 0 1 4,4 v496 a4,4 0 0 1 -4,4 h-1048 a4,4 0 0 1 -4,-4 v-496 A4,4 0 0 1 106.172,40.172"/></g><defs><clipPath id="satori_bc-id-1"><path x="72" y="63" width="1056" height="504" d="M76,63 h1048 a4,4 0 0 1 4,4 v496 a4,4 0 0 1 -4,4 h-1048 a4,4 0 0 1 -4,-4 v-496 a4,4 0 0 1 4,-4"/></clipPath></defs><path x="72" y="63" width="1056" height="504" fill="#fefbfb" d="M76,63 h1048 a4,4 0 0 1 4,4 v496 a4,4 0 0 1 -4,4 h-1048 a4,4 0 0 1 -4,-4 v-496 a4,4 0 0 1 4,-4"/><path width="1056" height="504" clip-path="url(#satori_bc-id-1)" fill="none" stroke="#000" stroke-width="8" d="M73.172,64.172 A4,4 0 0 1 76,63 h1048 a4,4 0 0 1 4,4 v496 a4,4 0 0 1 -4,4 h-1048 a4,4 0 0 1 -4,-4 v-496 A4,4 0 0 1 73.172,64.172"/><clipPath id="satori_cp-id-1-0-0"><rect x="128" y="103" width="944" height="187"/></clipPath><mask id="satori_om-id-1-0-0"><rect x="128" y="103" width="944" height="187" fill="#fff"/></mask><path fill="black" d="M144.3 183.0L133.5 183.0L133.5 132.7L152.9 132.7Q156.6 132.7 159.5 133.8Q162.3 134.9 164.3 137.0Q166.3 139.1 167.3 142.1Q168.3 145.0 168.3 148.7L168.3 148.7Q168.3 152.4 167.3 155.3Q166.3 158.3 164.3 160.3Q162.3 162.4 159.5 163.5Q156.6 164.7 152.9 164.7L152.9 164.7L144.3 164.7L144.3 183.0ZM144.3 141.4L144.3 156.0L150.2 156.0Q154.0 156.0 155.5 154.5Q156.9 153.1 156.9 149.8L156.9 149.8L156.9 147.6Q156.9 144.3 155.5 142.8Q154.0 141.4 150.2 141.4L150.2 141.4L144.3 141.4ZM176.5 183.0L176.5 174.7L185.1 174.7L185.1 154.1L176.5 154.1L176.5 145.8L195.8 145.8L195.8 156.3L196.3 156.3Q196.8 154.3 197.7 152.4Q198.6 150.5 200.0 149.0Q201.4 147.5 203.4 146.7Q205.4 145.8 208.1 145.8L208.1 145.8L211.7 145.8L211.7 155.6L203.7 155.6Q199.8 155.6 197.8 157.9Q195.8 160.3 195.8 163.7L195.8 163.7L195.8 174.7L208.0 174.7L208.0 183.0L176.5 183.0ZM237.0 183.8L237.0 183.8Q227.6 183.8 222.8 178.6Q218.0 173.4 218.0 164.5L218.0 164.5Q218.0 160.0 219.3 156.3Q220.5 152.7 222.9 150.2Q225.2 147.6 228.5 146.3Q231.9 144.9 236.1 144.9L236.1 144.9Q240.2 144.9 243.6 146.3Q246.9 147.6 249.2 150.0Q251.5 152.5 252.7 156.0Q254.0 159.5 254.0 163.8L254.0 163.8L254.0 167.0L228.6 167.0L228.6 167.6Q228.6 171.2 230.8 173.4Q233.0 175.6 237.4 175.6L237.4 175.6Q240.7 175.6 243.1 174.3Q245.4 173.1 247.2 171.0L247.2 171.0L252.9 177.3Q250.8 179.9 246.9 181.9Q243.0 183.8 237.0 183.8ZM236.1 152.6L236.1 152.6Q232.7 152.6 230.6 154.7Q228.6 156.8 228.6 160.4L228.6 160.4L228.6 161.0L243.6 161.0L243.6 160.4Q243.6 156.7 241.6 154.7Q239.6 152.6 236.1 152.6ZM285.9 183.0L285.9 176.2L285.4 176.2Q284.0 179.6 281.4 181.7Q278.8 183.8 274.4 183.8L274.4 183.8Q271.3 183.8 268.7 182.7Q266.2 181.5 264.3 179.1Q262.5 176.8 261.5 173.1Q260.4 169.4 260.4 164.4L260.4 164.4Q260.4 159.3 261.5 155.7Q262.5 152.0 264.3 149.6Q266.2 147.2 268.7 146.1Q271.3 144.9 274.4 144.9L274.4 144.9Q276.6 144.9 278.3 145.5Q280.1 146.1 281.4 147.1Q282.7 148.1 283.7 149.5Q284.7 150.9 285.4 152.6L285.4 152.6L285.9 152.6L285.9 129.7L296.6 129.7L296.6 183.0L285.9 183.0ZM279.0 175.5L279.0 175.5Q281.8 175.5 283.8 174.2Q285.9 172.8 285.9 169.8L285.9 169.8L285.9 158.9Q285.9 156.0 283.8 154.6Q281.8 153.2 279.0 153.2L279.0 153.2Q275.4 153.2 273.4 155.4Q271.5 157.6 271.5 161.5L271.5 161.5L271.5 167.3Q271.5 171.1 273.4 173.3Q275.4 175.5 279.0 175.5ZM323.4 183.8L323.4 183.8Q314.0 183.8 309.2 178.6Q304.4 173.4 304.4 164.5L304.4 164.5Q304.4 160.0 305.7 156.3Q306.9 152.7 309.3 150.2Q311.6 147.6 314.9 146.3Q318.3 144.9 322.5 144.9L322.5 144.9Q326.6 144.9 330.0 146.3Q333.3 147.6 335.6 150.0Q337.9 152.5 339.1 156.0Q340.4 159.5 340.4 163.8L340.4 163.8L340.4 167.0L315.0 167.0L315.0 167.6Q315.0 171.2 317.2 173.4Q319.4 175.6 323.8 175.6L323.8 175.6Q327.1 175.6 329.5 174.3Q331.8 173.1 333.6 171.0L333.6 171.0L339.3 177.3Q337.2 179.9 333.3 181.9Q329.4 183.8 323.4 183.8ZM322.5 152.6L322.5 152.6Q319.1 152.6 317.0 154.7Q315.0 156.8 315.0 160.4L315.0 160.4L315.0 161.0L330.0 161.0L330.0 160.4Q330.0 156.7 328.0 154.7Q326.0 152.6 322.5 152.6ZM349.1 183.0L349.1 174.7L360.1 174.7L360.1 154.1L348.4 154.1L348.4 145.8L360.1 145.8L360.1 140.4Q360.1 135.6 362.8 132.7Q365.6 129.7 371.4 129.7L371.4 129.7L384.0 129.7L384.0 138.0L370.7 138.0L370.7 145.8L384.0 145.8L384.0 154.1L370.7 154.1L370.7 174.7L382.4 174.7L382.4 183.0L349.1 183.0ZM411.1 141.0L411.1 141.0Q407.5 141.0 406.1 139.6Q404.7 138.1 404.7 136.0L404.7 136.0L404.7 133.9Q404.7 131.8 406.1 130.3Q407.5 128.9 411.1 128.9L411.1 128.9Q414.7 128.9 416.1 130.3Q417.5 131.8 417.5 133.9L417.5 133.9L417.5 136.0Q417.5 138.1 416.1 139.6Q414.7 141.0 411.1 141.0ZM394.0 183.0L394.0 174.7L405.8 174.7L405.8 154.1L394.0 154.1L394.0 145.8L416.4 145.8L416.4 174.7L427.4 174.7L427.4 183.0L394.0 183.0ZM445.7 183.0L435.1 183.0L435.1 145.8L445.7 145.8L445.7 152.6L446.2 152.6Q446.8 151.0 447.8 149.6Q448.7 148.2 450.0 147.2Q451.4 146.2 453.1 145.5Q454.9 144.9 457.1 144.9L457.1 144.9Q459.8 144.9 462.0 145.8Q464.2 146.7 465.8 148.5Q467.4 150.3 468.3 152.9Q469.2 155.5 469.2 158.9L469.2 158.9L469.2 183.0L458.6 183.0L458.6 160.3Q458.6 153.1 452.3 153.1L452.3 153.1Q451.1 153.1 449.9 153.5Q448.7 153.8 447.8 154.5Q446.8 155.2 446.3 156.2Q445.7 157.2 445.7 158.5L445.7 158.5L445.7 183.0ZM496.2 183.8L496.2 183.8Q486.8 183.8 482.0 178.6Q477.2 173.4 477.2 164.5L477.2 164.5Q477.2 160.0 478.5 156.3Q479.7 152.7 482.1 150.2Q484.4 147.6 487.7 146.3Q491.1 144.9 495.3 144.9L495.3 144.9Q499.4 144.9 502.8 146.3Q506.1 147.6 508.4 150.0Q510.7 152.5 511.9 156.0Q513.2 159.5 513.2 163.8L513.2 163.8L513.2 167.0L487.8 167.0L487.8 167.6Q487.8 171.2 490.0 173.4Q492.2 175.6 496.6 175.6L496.6 175.6Q499.9 175.6 502.3 174.3Q504.6 173.1 506.4 171.0L506.4 171.0L512.1 177.3Q510.0 179.9 506.1 181.9Q502.2 183.8 496.2 183.8ZM495.3 152.6L495.3 152.6Q491.9 152.6 489.8 154.7Q487.8 156.8 487.8 160.4L487.8 160.4L487.8 161.0L502.8 161.0L502.8 160.4Q502.8 156.7 500.8 154.7Q498.8 152.6 495.3 152.6ZM545.1 183.0L545.1 176.2L544.6 176.2Q543.2 179.6 540.6 181.7Q538.0 183.8 533.6 183.8L533.6 183.8Q530.5 183.8 527.9 182.7Q525.4 181.5 523.5 179.1Q521.7 176.8 520.7 173.1Q519.6 169.4 519.6 164.4L519.6 164.4Q519.6 159.3 520.7 155.7Q521.7 152.0 523.5 149.6Q525.4 147.2 527.9 146.1Q530.5 144.9 533.6 144.9L533.6 144.9Q535.8 144.9 537.5 145.5Q539.3 146.1 540.6 147.1Q541.9 148.1 542.9 149.5Q543.9 150.9 544.6 152.6L544.6 152.6L545.1 152.6L545.1 129.7L555.8 129.7L555.8 183.0L545.1 183.0ZM538.2 175.5L538.2 175.5Q541.0 175.5 543.0 174.2Q545.1 172.8 545.1 169.8L545.1 169.8L545.1 158.9Q545.1 156.0 543.0 154.6Q541.0 153.2 538.2 153.2L538.2 153.2Q534.6 153.2 532.6 155.4Q530.7 157.6 530.7 161.5L530.7 161.5L530.7 167.3Q530.7 171.1 532.6 173.3Q534.6 175.5 538.2 175.5Z M626.3 183.8L626.3 183.8Q621.9 183.8 618.4 182.5Q614.9 181.2 612.5 178.6Q610.1 176.1 608.8 172.5Q607.5 168.9 607.5 164.4L607.5 164.4Q607.5 159.8 608.8 156.2Q610.1 152.6 612.5 150.1Q614.9 147.6 618.4 146.3Q621.9 144.9 626.2 144.9L626.2 144.9Q632.4 144.9 636.1 147.4Q639.8 149.9 641.7 154.0L641.7 154.0L633.5 158.5Q632.5 156.3 630.9 154.9Q629.3 153.4 626.2 153.4L626.2 153.4Q622.6 153.4 620.6 155.6Q618.6 157.7 618.6 161.4L618.6 161.4L618.6 167.4Q618.6 171.1 620.6 173.2Q622.6 175.3 626.4 175.3L626.4 175.3Q629.5 175.3 631.2 173.9Q633.0 172.4 634.2 170.1L634.2 170.1L642.3 174.7Q640.3 178.8 636.4 181.3Q632.6 183.8 626.3 183.8ZM668 183.8L668 183.8Q663.7 183.8 660.2 182.5Q656.8 181.2 654.4 178.6Q651.9 176.1 650.6 172.5Q649.4 168.9 649.4 164.4L649.4 164.4Q649.4 159.8 650.6 156.2Q651.9 152.6 654.4 150.1Q656.8 147.6 660.2 146.3Q663.7 144.9 668 144.9L668 144.9Q672.3 144.9 675.8 146.3Q679.2 147.6 681.6 150.1Q684.1 152.6 685.4 156.2Q686.6 159.8 686.6 164.4L686.6 164.4Q686.6 168.9 685.4 172.5Q684.1 176.1 681.6 178.6Q679.2 181.2 675.8 182.5Q672.3 183.8 668 183.8ZM668 175.9L668 175.9Q671.6 175.9 673.6 173.7Q675.6 171.4 675.6 167.3L675.6 167.3L675.6 161.4Q675.6 157.3 673.6 155.1Q671.6 152.9 668 152.9L668 152.9Q664.4 152.9 662.4 155.1Q660.4 157.3 660.4 161.4L660.4 161.4L660.4 167.3Q660.4 171.4 662.4 173.7Q664.4 175.9 668 175.9ZM694.5 183.0L694.5 174.7L705.9 174.7L705.9 138.0L694.5 138.0L694.5 129.7L716.5 129.7L716.5 174.7L727.9 174.7L727.9 183.0L694.5 183.0ZM754.4 183.8L754.4 183.8Q750.1 183.8 746.6 182.5Q743.2 181.2 740.8 178.6Q738.3 176.1 737.0 172.5Q735.8 168.9 735.8 164.4L735.8 164.4Q735.8 159.8 737.0 156.2Q738.3 152.6 740.8 150.1Q743.2 147.6 746.6 146.3Q750.1 144.9 754.4 144.9L754.4 144.9Q758.7 144.9 762.2 146.3Q765.6 147.6 768.0 150.1Q770.5 152.6 771.8 156.2Q773.0 159.8 773.0 164.4L773.0 164.4Q773.0 168.9 771.8 172.5Q770.5 176.1 768.0 178.6Q765.6 181.2 762.2 182.5Q758.7 183.8 754.4 183.8ZM754.4 175.9L754.4 175.9Q758.0 175.9 760.0 173.7Q762.0 171.4 762.0 167.3L762.0 167.3L762.0 161.4Q762.0 157.3 760.0 155.1Q758.0 152.9 754.4 152.9L754.4 152.9Q750.8 152.9 748.8 155.1Q746.8 157.3 746.8 161.4L746.8 161.4L746.8 167.3Q746.8 171.4 748.8 173.7Q750.8 175.9 754.4 175.9ZM781.3 183.0L781.3 174.7L789.9 174.7L789.9 154.1L781.3 154.1L781.3 145.8L800.6 145.8L800.6 156.3L801.1 156.3Q801.6 154.3 802.5 152.4Q803.4 150.5 804.8 149.0Q806.2 147.5 808.2 146.7Q810.2 145.8 812.9 145.8L812.9 145.8L816.5 145.8L816.5 155.6L808.5 155.6Q804.6 155.6 802.6 157.9Q800.6 160.3 800.6 163.7L800.6 163.7L800.6 174.7L812.8 174.7L812.8 183.0L781.3 183.0Z M149.2 277.4L149.2 277.4Q143.0 277.4 138.4 275.5Q133.8 273.7 131.5 270.4L131.5 270.4L137.5 264.9Q139.7 267.3 142.6 268.6Q145.5 269.9 149.2 269.9L149.2 269.9Q152.4 269.9 154.2 269.0Q156.0 268.0 156.0 266.0L156.0 266.0Q156.0 264.4 154.8 263.8Q153.6 263.2 151.4 262.8L151.4 262.8L145.4 261.9Q142.9 261.5 140.7 260.7Q138.6 260.0 137 258.7Q135.4 257.4 134.5 255.5Q133.5 253.7 133.5 251.0L133.5 251.0Q133.5 245.2 138.0 241.8Q142.5 238.5 150.5 238.5L150.5 238.5Q156.0 238.5 159.9 240.0Q163.7 241.5 166.0 244.2L166.0 244.2L160.7 250.3Q159.0 248.5 156.4 247.2Q153.8 246.0 150.2 246.0L150.2 246.0Q144.0 246.0 144.0 249.8L144.0 249.8Q144.0 251.4 145.2 252.0Q146.4 252.6 148.6 253.0L148.6 253.0L154.5 253.9Q157.0 254.3 159.2 255.1Q161.3 255.8 163.0 257.1Q164.6 258.4 165.5 260.3Q166.4 262.2 166.4 264.8L166.4 264.8Q166.4 270.6 161.9 274.0Q157.4 277.4 149.2 277.4ZM194.3 277.4L194.3 277.4Q189.9 277.4 186.4 276.1Q182.9 274.8 180.5 272.2Q178.1 269.7 176.8 266.1Q175.5 262.5 175.5 258.0L175.5 258.0Q175.5 253.4 176.8 249.8Q178.1 246.2 180.5 243.7Q182.9 241.2 186.4 239.9Q189.9 238.5 194.2 238.5L194.2 238.5Q200.4 238.5 204.1 241.0Q207.8 243.5 209.7 247.6L209.7 247.6L201.5 252.1Q200.5 249.9 198.9 248.5Q197.3 247.0 194.2 247.0L194.2 247.0Q190.6 247.0 188.6 249.2Q186.6 251.3 186.6 255.0L186.6 255.0L186.6 261.0Q186.6 264.7 188.6 266.8Q190.6 268.9 194.4 268.9L194.4 268.9Q197.5 268.9 199.2 267.5Q201.0 266.0 202.2 263.7L202.2 263.7L210.3 268.3Q208.3 272.4 204.4 274.9Q200.6 277.4 194.3 277.4ZM219.1 276.6L219.1 223.3L229.7 223.3L229.7 246.2L230.2 246.2Q230.8 244.6 231.8 243.2Q232.7 241.8 234.0 240.8Q235.4 239.8 237.1 239.1Q238.9 238.5 241.1 238.5L241.1 238.5Q243.8 238.5 246.0 239.4Q248.2 240.3 249.8 242.1Q251.4 243.9 252.3 246.5Q253.2 249.1 253.2 252.5L253.2 252.5L253.2 276.6L242.6 276.6L242.6 253.9Q242.6 246.7 236.3 246.7L236.3 246.7Q235.1 246.7 233.9 247.1Q232.7 247.4 231.8 248.1Q230.8 248.8 230.3 249.8Q229.7 250.8 229.7 252.1L229.7 252.1L229.7 276.6L219.1 276.6ZM280.2 277.4L280.2 277.4Q270.8 277.4 266.0 272.2Q261.2 267.0 261.2 258.1L261.2 258.1Q261.2 253.6 262.5 249.9Q263.7 246.3 266.1 243.8Q268.4 241.2 271.7 239.9Q275.1 238.5 279.3 238.5L279.3 238.5Q283.4 238.5 286.8 239.9Q290.1 241.2 292.4 243.6Q294.7 246.1 295.9 249.6Q297.2 253.1 297.2 257.4L297.2 257.4L297.2 260.6L271.8 260.6L271.8 261.2Q271.8 264.8 274.0 267.0Q276.2 269.2 280.6 269.2L280.6 269.2Q283.9 269.2 286.3 267.9Q288.6 266.7 290.4 264.6L290.4 264.6L296.1 270.9Q294.0 273.5 290.1 275.5Q286.2 277.4 280.2 277.4ZM279.3 246.2L279.3 246.2Q275.9 246.2 273.8 248.3Q271.8 250.4 271.8 254.0L271.8 254.0L271.8 254.6L286.8 254.6L286.8 254.0Q286.8 250.3 284.8 248.3Q282.8 246.2 279.3 246.2ZM311.5 276.6L303.0 276.6L303.0 239.4L311.5 239.4L311.5 244.9L312.0 244.9Q312.9 242.3 314.5 240.4Q316.1 238.5 319.1 238.5L319.1 238.5Q324.5 238.5 325.7 244.9L325.7 244.9L326.1 244.9Q326.6 243.6 327.2 242.4Q327.9 241.3 328.8 240.4Q329.7 239.5 331.0 239.0Q332.3 238.5 334.1 238.5L334.1 238.5Q341.8 238.5 341.8 250.0L341.8 250.0L341.8 276.6L333.3 276.6L333.3 251.1Q333.3 248.5 332.4 247.4Q331.5 246.4 330.0 246.4L330.0 246.4Q328.7 246.4 327.7 247.3Q326.7 248.2 326.7 250.1L326.7 250.1L326.7 276.6L318.1 276.6L318.1 251.1Q318.1 248.5 317.3 247.4Q316.4 246.4 315.0 246.4L315.0 246.4Q313.5 246.4 312.5 247.3Q311.5 248.2 311.5 250.1L311.5 250.1L311.5 276.6ZM366.6 277.4L366.6 277.4Q357.2 277.4 352.4 272.2Q347.6 267.0 347.6 258.1L347.6 258.1Q347.6 253.6 348.9 249.9Q350.1 246.3 352.5 243.8Q354.8 241.2 358.1 239.9Q361.5 238.5 365.7 238.5L365.7 238.5Q369.8 238.5 373.2 239.9Q376.5 241.2 378.8 243.6Q381.1 246.1 382.3 249.6Q383.6 253.1 383.6 257.4L383.6 257.4L383.6 260.6L358.2 260.6L358.2 261.2Q358.2 264.8 360.4 267.0Q362.6 269.2 367.0 269.2L367.0 269.2Q370.3 269.2 372.7 267.9Q375.0 266.7 376.8 264.6L376.8 264.6L382.5 270.9Q380.4 273.5 376.5 275.5Q372.6 277.4 366.6 277.4ZM365.7 246.2L365.7 246.2Q362.3 246.2 360.2 248.3Q358.2 250.4 358.2 254.0L358.2 254.0L358.2 254.6L373.2 254.6L373.2 254.0Q373.2 250.3 371.2 248.3Q369.2 246.2 365.7 246.2ZM408.4 277.4L408.4 277.4Q402.2 277.4 397.6 275.5Q393.0 273.7 390.7 270.4L390.7 270.4L396.7 264.9Q398.9 267.3 401.8 268.6Q404.7 269.9 408.4 269.9L408.4 269.9Q411.6 269.9 413.4 269.0Q415.2 268.0 415.2 266.0L415.2 266.0Q415.2 264.4 414.0 263.8Q412.8 263.2 410.6 262.8L410.6 262.8L404.6 261.9Q402.1 261.5 399.9 260.7Q397.8 260.0 396.2 258.7Q394.6 257.4 393.7 255.5Q392.7 253.7 392.7 251.0L392.7 251.0Q392.7 245.2 397.2 241.8Q401.7 238.5 409.7 238.5L409.7 238.5Q415.2 238.5 419.1 240.0Q422.9 241.5 425.2 244.2L425.2 244.2L419.9 250.3Q418.2 248.5 415.6 247.2Q413.0 246.0 409.4 246.0L409.4 246.0Q403.2 246.0 403.2 249.8L403.2 249.8Q403.2 251.4 404.4 252.0Q405.6 252.6 407.8 253.0L407.8 253.0L413.7 253.9Q416.2 254.3 418.4 255.1Q420.5 255.8 422.2 257.1Q423.8 258.4 424.7 260.3Q425.6 262.2 425.6 264.8L425.6 264.8Q425.6 270.6 421.1 274.0Q416.6 277.4 408.4 277.4Z " clip-path="url(#satori_cp-id-1-0-0)" mask="url(#satori_om-id-1-0-0)"/><path fill="black" d="M130.7 520.3L130.7 499.6L132.9 499.6L132.9 508.2L133.0 508.2Q134.4 505.5 137.5 505.5L137.5 505.5Q140.1 505.5 141.6 507.5Q143.1 509.5 143.1 513.0L143.1 513.0Q143.1 516.6 141.6 518.6Q140.1 520.6 137.5 520.6L137.5 520.6Q134.4 520.6 133.0 517.9L133.0 517.9L132.9 517.9L132.9 520.3L130.7 520.3ZM136.6 518.6L136.6 518.6Q138.6 518.6 139.6 517.4Q140.7 516.2 140.7 514.3L140.7 514.3L140.7 511.8Q140.7 509.9 139.6 508.7Q138.6 507.5 136.6 507.5L136.6 507.5Q135.8 507.5 135.2 507.7Q134.5 507.9 134.0 508.2Q133.5 508.6 133.2 509.2Q132.9 509.7 132.9 510.4L132.9 510.4L132.9 515.7Q132.9 516.4 133.2 516.9Q133.5 517.5 134.0 517.8Q134.5 518.2 135.2 518.4Q135.8 518.6 136.6 518.6ZM155.4 511.9L157.9 505.8L160.1 505.8L152.9 523.4Q152.7 524.1 152.4 524.5Q152.1 525.0 151.7 525.3Q151.2 525.6 150.7 525.7Q150.1 525.9 149.3 525.9L149.3 525.9L147.1 525.9L147.1 524.0L150.5 524.0L152.1 520.0L146.3 505.8L148.6 505.8L151.0 511.9L153.2 517.4L153.3 517.4L155.4 511.9Z "/><clipPath id="satori_cp-id-1-0-1-0-2"><rect x="178" y="489" width="151" height="36"/></clipPath><mask id="satori_om-id-1-0-1-0-2"><rect x="178" y="489" width="151" height="36" fill="#fff"/></mask><path fill="black" d="M186.1 520.4L186.1 520.4Q183.6 520.4 181.8 519.6Q180.0 518.8 178.9 517.4L178.9 517.4L181.3 514.7Q182.4 515.9 183.6 516.5Q184.9 517.0 186.2 517.0L186.2 517.0Q187.7 517.0 188.5 516.3Q189.3 515.7 189.3 514.4L189.3 514.4Q189.3 513.4 188.7 512.8Q188.1 512.3 186.7 512.1L186.7 512.1L184.6 511.7Q182.0 511.3 180.8 509.8Q179.7 508.3 179.7 506.1L179.7 506.1Q179.7 503.3 181.5 501.8Q183.3 500.2 186.7 500.2L186.7 500.2Q188.9 500.2 190.6 500.9Q192.3 501.6 193.3 502.8L193.3 502.8L191.0 505.5Q190.2 504.6 189.1 504.1Q188.1 503.6 186.7 503.6L186.7 503.6Q183.9 503.6 183.9 506.0L183.9 506.0Q183.9 507.0 184.5 507.5Q185.1 508.0 186.6 508.2L186.6 508.2L188.6 508.6Q191.0 509.0 192.3 510.4Q193.6 511.7 193.6 514.1L193.6 514.1Q193.6 515.4 193.1 516.6Q192.6 517.8 191.7 518.6Q190.7 519.5 189.3 520.0Q187.9 520.4 186.1 520.4ZM210.8 520.1L208.4 520.1Q207.1 520.1 206.4 519.4Q205.6 518.8 205.4 517.5L205.4 517.5L205.3 517.5Q204.9 519.0 203.7 519.7Q202.6 520.4 200.9 520.4L200.9 520.4Q198.8 520.4 197.5 519.3Q196.3 518.2 196.3 516.1L196.3 516.1Q196.3 513.8 197.9 512.8Q199.6 511.7 202.8 511.7L202.8 511.7L205.1 511.7L205.1 510.9Q205.1 509.6 204.5 509.0Q203.9 508.3 202.4 508.3L202.4 508.3Q201.1 508.3 200.3 508.8Q199.5 509.3 198.9 510.2L198.9 510.2L196.6 508.1Q197.4 506.9 198.9 506.1Q200.5 505.3 202.9 505.3L202.9 505.3Q205.9 505.3 207.6 506.7Q209.2 508.0 209.2 510.8L209.2 510.8L209.2 517.1L210.8 517.1L210.8 520.1ZM202.5 517.7L202.5 517.7Q203.6 517.7 204.3 517.2Q205.1 516.6 205.1 515.6L205.1 515.6L205.1 513.9L202.9 513.9Q200.3 513.9 200.3 515.6L200.3 515.6L200.3 516.2Q200.3 516.9 200.9 517.3Q201.5 517.7 202.5 517.7ZM226.5 520.1L221.1 520.1Q218.9 520.1 217.8 518.9Q216.7 517.7 216.7 515.9L216.7 515.9L216.7 508.9L212.8 508.9L212.8 505.6L215.3 505.6Q216.2 505.6 216.6 505.3Q217.0 504.9 217.0 503.9L217.0 503.9L217.0 500.5L220.8 500.5L220.8 505.6L226.5 505.6L226.5 508.9L220.8 508.9L220.8 516.9L226.5 516.9L226.5 520.1Z M255.3 520.1L250.8 507.1L250.5 507.1L250.5 520.1L246.9 520.1L246.9 500.5L251.9 500.5L256.4 513.5L256.7 513.5L256.7 500.5L260.3 500.5L260.3 520.1L255.3 520.1ZM278.0 520.1L275.6 520.1Q274.3 520.1 273.6 519.4Q272.8 518.8 272.6 517.5L272.6 517.5L272.5 517.5Q272.1 519.0 270.9 519.7Q269.8 520.4 268.1 520.4L268.1 520.4Q266.0 520.4 264.7 519.3Q263.5 518.2 263.5 516.1L263.5 516.1Q263.5 513.8 265.1 512.8Q266.8 511.7 270.0 511.7L270.0 511.7L272.3 511.7L272.3 510.9Q272.3 509.6 271.7 509.0Q271.1 508.3 269.6 508.3L269.6 508.3Q268.3 508.3 267.5 508.8Q266.7 509.3 266.1 510.2L266.1 510.2L263.8 508.1Q264.6 506.9 266.1 506.1Q267.7 505.3 270.1 505.3L270.1 505.3Q273.1 505.3 274.8 506.7Q276.4 508.0 276.4 510.8L276.4 510.8L276.4 517.1L278.0 517.1L278.0 520.1ZM269.7 517.7L269.7 517.7Q270.8 517.7 271.5 517.2Q272.3 516.6 272.3 515.6L272.3 515.6L272.3 513.9L270.1 513.9Q267.5 513.9 267.5 515.6L267.5 515.6L267.5 516.2Q267.5 516.9 268.1 517.3Q268.7 517.7 269.7 517.7ZM288.1 503.8L288.1 503.8Q286.7 503.8 286.2 503.2Q285.6 502.6 285.6 501.8L285.6 501.8L285.6 501.0Q285.6 500.2 286.2 499.6Q286.7 499.1 288.1 499.1L288.1 499.1Q289.5 499.1 290.0 499.6Q290.6 500.2 290.6 501.0L290.6 501.0L290.6 501.8Q290.6 502.6 290.0 503.2Q289.5 503.8 288.1 503.8ZM281.4 520.1L281.4 516.9L286.0 516.9L286.0 508.9L281.4 508.9L281.4 505.6L290.2 505.6L290.2 516.9L294.4 516.9L294.4 520.1L281.4 520.1ZM301.6 520.1L297.4 520.1L297.4 505.6L301.6 505.6L301.6 508.3L301.7 508.3Q302.0 507.7 302.3 507.1Q302.7 506.6 303.2 506.2Q303.7 505.8 304.4 505.5Q305.1 505.3 306.0 505.3L306.0 505.3Q307.0 505.3 307.9 505.7Q308.8 506.0 309.4 506.7Q310.0 507.4 310.3 508.4Q310.7 509.4 310.7 510.7L310.7 510.7L310.7 520.1L306.5 520.1L306.5 511.3Q306.5 508.5 304.1 508.5L304.1 508.5Q303.6 508.5 303.2 508.6Q302.7 508.8 302.3 509.0Q302.0 509.3 301.8 509.7Q301.6 510.1 301.6 510.6L301.6 510.6L301.6 520.1ZM328.7 521.5L328.7 521.5Q328.7 523.8 326.8 524.9Q324.9 526.0 320.7 526.0L320.7 526.0Q318.6 526.0 317.3 525.8Q316.0 525.6 315.2 525.1Q314.4 524.7 314.0 524.0Q313.7 523.4 313.7 522.7L313.7 522.7Q313.7 521.5 314.4 520.8Q315.2 520.2 316.5 519.9L316.5 519.9L316.5 519.7Q315.6 519.4 315.0 518.9Q314.5 518.4 314.5 517.4L314.5 517.4Q314.5 516.4 315.2 515.9Q315.9 515.4 317.1 515.1L317.1 515.1L317.1 514.9Q315.8 514.3 315.1 513.2Q314.4 512.1 314.4 510.5L314.4 510.5Q314.4 509.2 314.8 508.2Q315.3 507.3 316.1 506.6Q316.9 506.0 318.1 505.6Q319.2 505.3 320.6 505.3L320.6 505.3Q322.0 505.3 323.2 505.6L323.2 505.6L323.2 504.8Q323.2 504.0 323.8 503.4Q324.4 502.9 325.4 502.9L325.4 502.9L327.9 502.9L327.9 505.9L324.5 505.9L324.5 506.1Q325.6 506.8 326.3 507.8Q327.0 508.9 327.0 510.5L327.0 510.5Q327.0 511.7 326.5 512.7Q326.1 513.6 325.2 514.3Q324.4 514.9 323.2 515.3Q322.1 515.6 320.6 515.6L320.6 515.6Q320.0 515.6 319.4 515.5Q318.8 515.5 318.3 515.3L318.3 515.3Q318.0 515.5 317.8 515.8Q317.6 516.0 317.6 516.4L317.6 516.4Q317.6 516.7 317.7 516.9Q317.9 517.1 318.2 517.2Q318.5 517.3 318.9 517.3Q319.3 517.4 319.7 517.4L319.7 517.4L323.0 517.4Q324.5 517.4 325.6 517.7Q326.7 518.0 327.4 518.6Q328.1 519.1 328.4 519.9Q328.7 520.6 328.7 521.5ZM324.8 521.9L324.8 521.9Q324.8 521.3 324.4 521.0Q323.9 520.7 322.6 520.7L322.6 520.7L317.7 520.7Q317.1 521.1 317.1 521.8L317.1 521.8Q317.1 522.5 317.7 522.9Q318.3 523.4 319.7 523.4L319.7 523.4L322.1 523.4Q323.5 523.4 324.2 523.0Q324.8 522.6 324.8 521.9ZM320.6 513.0L320.6 513.0Q321.9 513.0 322.5 512.4Q323.0 511.7 323.0 510.8L323.0 510.8L323.0 510.1Q323.0 509.2 322.5 508.6Q321.9 507.9 320.6 507.9L320.6 507.9Q319.4 507.9 318.8 508.6Q318.3 509.2 318.3 510.1L318.3 510.1L318.3 510.8Q318.3 511.7 318.8 512.4Q319.4 513.0 320.6 513.0Z " clip-path="url(#satori_cp-id-1-0-1-0-2)" mask="url(#satori_om-id-1-0-1-0-2)"/><clipPath id="satori_cp-id-1-0-1-1"><rect x="903" y="489" width="168" height="36"/></clipPath><mask id="satori_om-id-1-0-1-1"><rect x="903" y="489" width="168" height="36" fill="#fff"/></mask><path fill="black" d="M919.7 520.1L915.2 520.1L913.9 515.4L908.6 515.4L907.4 520.1L903.1 520.1L908.4 500.5L914.4 500.5L919.7 520.1ZM913.3 512.0L911.4 504.6L911.2 504.6L909.3 512.0L913.3 512.0ZM928.0 520.4L928.0 520.4Q925.6 520.4 923.8 519.7Q922.1 519.0 921.2 517.7L921.2 517.7L923.5 515.6Q924.3 516.5 925.5 517.0Q926.6 517.5 928.1 517.5L928.1 517.5Q929.3 517.5 930.0 517.1Q930.7 516.8 930.7 516.0L930.7 516.0Q930.7 515.4 930.2 515.1Q929.7 514.9 928.9 514.7L928.9 514.7L926.6 514.4Q925.6 514.2 924.8 513.9Q923.9 513.7 923.3 513.1Q922.7 512.6 922.3 511.9Q922.0 511.2 922.0 510.2L922.0 510.2Q922.0 507.9 923.7 506.6Q925.4 505.3 928.6 505.3L928.6 505.3Q930.7 505.3 932.2 505.9Q933.7 506.5 934.6 507.5L934.6 507.5L932.5 509.9Q931.9 509.2 930.9 508.7Q929.9 508.2 928.4 508.2L928.4 508.2Q926.0 508.2 926.0 509.7L926.0 509.7Q926.0 510.3 926.5 510.6Q927.0 510.8 927.8 510.9L927.8 510.9L930.1 511.3Q931.1 511.4 931.9 511.7Q932.8 512.0 933.4 512.5Q934.0 513.0 934.4 513.8Q934.8 514.5 934.8 515.5L934.8 515.5Q934.8 517.8 933.0 519.1Q931.3 520.4 928.0 520.4ZM951.5 520.1L946.1 520.1Q943.9 520.1 942.8 518.9Q941.7 517.7 941.7 515.9L941.7 515.9L941.7 508.9L937.8 508.9L937.8 505.6L940.3 505.6Q941.2 505.6 941.6 505.3Q942.0 504.9 942.0 503.9L942.0 503.9L942.0 500.5L945.8 500.5L945.8 505.6L951.5 505.6L951.5 508.9L945.8 508.9L945.8 516.9L951.5 516.9L951.5 520.1ZM955.5 520.1L955.5 516.9L958.8 516.9L958.8 508.9L955.5 508.9L955.5 505.6L962.9 505.6L962.9 509.7L963.1 509.7Q963.3 508.9 963.7 508.2Q964.0 507.5 964.6 506.9Q965.1 506.3 965.9 506.0Q966.7 505.6 967.8 505.6L967.8 505.6L969.1 505.6L969.1 509.5L966.1 509.5Q964.5 509.5 963.7 510.4Q962.9 511.3 962.9 512.6L962.9 512.6L962.9 516.9L967.7 516.9L967.7 520.1L955.5 520.1ZM978.6 520.4L978.6 520.4Q976.9 520.4 975.6 519.9Q974.2 519.4 973.3 518.4Q972.4 517.4 971.9 516.0Q971.3 514.6 971.3 512.9L971.3 512.9Q971.3 511.1 971.9 509.7Q972.4 508.3 973.3 507.3Q974.2 506.3 975.6 505.8Q976.9 505.3 978.6 505.3L978.6 505.3Q980.3 505.3 981.6 505.8Q983.0 506.3 983.9 507.3Q984.8 508.3 985.3 509.7Q985.9 511.1 985.9 512.9L985.9 512.9Q985.9 514.6 985.3 516.0Q984.8 517.4 983.9 518.4Q983.0 519.4 981.6 519.9Q980.3 520.4 978.6 520.4ZM978.6 517.3L978.6 517.3Q980.0 517.3 980.8 516.5Q981.6 515.6 981.6 514.0L981.6 514.0L981.6 511.7Q981.6 510.1 980.8 509.3Q980.0 508.4 978.6 508.4L978.6 508.4Q977.2 508.4 976.4 509.3Q975.6 510.1 975.6 511.7L975.6 511.7L975.6 514.0Q975.6 515.6 976.4 516.5Q977.2 517.3 978.6 517.3ZM993.4 520.1L989.1 520.1L989.1 500.5L996.7 500.5Q998.1 500.5 999.2 501.0Q1000.4 501.4 1001.1 502.2Q1001.9 503.0 1002.3 504.2Q1002.7 505.3 1002.7 506.8L1002.7 506.8Q1002.7 508.2 1002.3 509.3Q1001.9 510.5 1001.1 511.3Q1000.4 512.1 999.2 512.5Q998.1 513.0 996.7 513.0L996.7 513.0L993.4 513.0L993.4 520.1ZM993.4 503.9L993.4 509.6L995.6 509.6Q997.1 509.6 997.7 509.0Q998.3 508.5 998.3 507.2L998.3 507.2L998.3 506.3Q998.3 505.1 997.7 504.5Q997.1 503.9 995.6 503.9L995.6 503.9L993.4 503.9ZM1019.8 520.1L1017.4 520.1Q1016.1 520.1 1015.4 519.4Q1014.6 518.8 1014.4 517.5L1014.4 517.5L1014.3 517.5Q1013.9 519.0 1012.7 519.7Q1011.6 520.4 1009.9 520.4L1009.9 520.4Q1007.8 520.4 1006.5 519.3Q1005.3 518.2 1005.3 516.1L1005.3 516.1Q1005.3 513.8 1006.9 512.8Q1008.6 511.7 1011.8 511.7L1011.8 511.7L1014.1 511.7L1014.1 510.9Q1014.1 509.6 1013.5 509.0Q1012.9 508.3 1011.4 508.3L1011.4 508.3Q1010.1 508.3 1009.3 508.8Q1008.5 509.3 1007.9 510.2L1007.9 510.2L1005.6 508.1Q1006.4 506.9 1007.9 506.1Q1009.5 505.3 1011.9 505.3L1011.9 505.3Q1014.9 505.3 1016.6 506.7Q1018.2 508.0 1018.2 510.8L1018.2 510.8L1018.2 517.1L1019.8 517.1L1019.8 520.1ZM1011.5 517.7L1011.5 517.7Q1012.6 517.7 1013.3 517.2Q1014.1 516.6 1014.1 515.6L1014.1 515.6L1014.1 513.9L1011.9 513.9Q1009.3 513.9 1009.3 515.6L1009.3 515.6L1009.3 516.2Q1009.3 516.9 1009.9 517.3Q1010.5 517.7 1011.5 517.7ZM1022.3 525.7L1022.3 505.6L1026.4 505.6L1026.4 508.3L1026.6 508.3Q1027.1 507.0 1028.1 506.1Q1029.1 505.3 1030.9 505.3L1030.9 505.3Q1032.1 505.3 1033.1 505.8Q1034.1 506.2 1034.8 507.1Q1035.5 508.1 1035.9 509.5Q1036.3 510.9 1036.3 512.9L1036.3 512.9Q1036.3 514.8 1035.9 516.3Q1035.5 517.7 1034.8 518.6Q1034.1 519.5 1033.1 520.0Q1032.1 520.4 1030.9 520.4L1030.9 520.4Q1029.1 520.4 1028.1 519.6Q1027.1 518.8 1026.6 517.5L1026.6 517.5L1026.4 517.5L1026.4 525.7L1022.3 525.7ZM1029.1 517.2L1029.1 517.2Q1030.5 517.2 1031.2 516.4Q1032.0 515.5 1032.0 514.0L1032.0 514.0L1032.0 511.7Q1032.0 510.2 1031.2 509.4Q1030.5 508.5 1029.1 508.5L1029.1 508.5Q1028.0 508.5 1027.2 509.1Q1026.4 509.6 1026.4 510.7L1026.4 510.7L1026.4 515.0Q1026.4 516.1 1027.2 516.7Q1028.0 517.2 1029.1 517.2ZM1046.2 520.4L1046.2 520.4Q1042.6 520.4 1040.7 518.4Q1038.8 516.4 1038.8 512.9L1038.8 512.9Q1038.8 511.2 1039.3 509.7Q1039.8 508.3 1040.7 507.3Q1041.6 506.3 1042.9 505.8Q1044.2 505.3 1045.8 505.3L1045.8 505.3Q1047.5 505.3 1048.7 505.8Q1050.0 506.3 1050.9 507.3Q1051.8 508.2 1052.3 509.6Q1052.8 511.0 1052.8 512.6L1052.8 512.6L1052.8 513.9L1042.9 513.9L1042.9 514.1Q1042.9 515.5 1043.8 516.4Q1044.7 517.2 1046.3 517.2L1046.3 517.2Q1047.6 517.2 1048.5 516.7Q1049.5 516.3 1050.1 515.4L1050.1 515.4L1052.4 517.9Q1051.5 518.9 1050.0 519.7Q1048.5 520.4 1046.2 520.4ZM1045.9 508.3L1045.9 508.3Q1044.5 508.3 1043.7 509.1Q1042.9 509.9 1042.9 511.3L1042.9 511.3L1042.9 511.6L1048.7 511.6L1048.7 511.3Q1048.7 509.9 1048.0 509.1Q1047.2 508.3 1045.9 508.3ZM1056.3 520.1L1056.3 516.9L1059.6 516.9L1059.6 508.9L1056.3 508.9L1056.3 505.6L1063.7 505.6L1063.7 509.7L1063.9 509.7Q1064.1 508.9 1064.5 508.2Q1064.8 507.5 1065.4 506.9Q1065.9 506.3 1066.7 506.0Q1067.5 505.6 1068.6 505.6L1068.6 505.6L1069.9 505.6L1069.9 509.5L1066.9 509.5Q1065.3 509.5 1064.5 510.4Q1063.7 511.3 1063.7 512.6L1063.7 512.6L1063.7 516.9L1068.5 516.9L1068.5 520.1L1056.3 520.1Z " clip-path="url(#satori_cp-id-1-0-1-1)" mask="url(#satori_om-id-1-0-1-1)"/></svg>