<svg width="1200" height="630" viewBox="0 0 1200 630" xmlns="http://www.w3.org/2000/svg"><rect x="0" y="0" width="1200" height="630" fill="#fefbfb"/><defs><clipPath id="satori_bc-id-0"><path x="105" y="39" width="1056" height="504" d="M109,39 h1048 a4,4 0 0 1 4,4 v496 a4,4 0 0 1 -4,4 h-1048 a4,4 0 0 1 -4,-4 v-496 a4,4 0 0 1 4,-4"/></clipPath></defs><g opacity="0.9"><path x="105" y="39" width="1056" height="504" fill="#ecebeb" d="M109,39 h1048 a4,4 0 0 1 4,4 v496 a4,4 0 0 1 -4,4 h-1048 a4,4 0 0 1 -4,-4 v-496 a4,4 0 0 1 4,-4"/><path width="1056" height="504" clip-path="url(#satori_bc-id-0)" fill="none" stroke="#000" stroke-width="8" d="M106.172,40.172 A4,4 0 0 1 109,39 h1048 a4,4 0 0 1 4,4 v496 a4,4 0 0 1 -4,4 h-1048 a4,4 0 0 1 -4,-4 v-496 A4,4 0 0 1 106.172,40.172"/></g><defs><clipPath id="satori_bc-id-1"><path x="72" y="63" width="1056" height="504" d="M76,63 h1048 a4,4 0 0 1 4,4 v496 a4,4 0 0 1 -4,4 h-1048 a4,4 0 0 1 -4,-4 v-496 a4,4 0 0 1 4,-4"/></clipPath></defs><path x="72" y="63" width="1056" height="504" fill="#fefbfb" d="M76,63 h1048 a4,4 0 0 1 4,4 v496 a4,4 0 0 1 -4,4 h-1048 a4,4 0 0 1 -4,-4 v-496 a4,4 0 0 1 4,-4"/><path width="1056" height="504" clip-path="url(#satori_bc-id-1)" fill="none" stroke="#000" stroke-width="8" d="M73.172,64.172 A4,4 0 0 1 76,63 h1048 a4,4 0 0 1 4,4 v496 a4,4 0 0 1 -4,4 h-1048 a4,4 0 0 1 -4,-4 v-496 A4,4 0 0 1 73.172,64.172"/><clipPath id="satori_cp-id-1-0-0"><rect x="128" y="103" width="944" height="187"/></clipPath><mask id="satori_om-id-1-0-0"><rect x="128" y="103" width="944" height="187" fill="#fff"/></mask><path fill="black" d="M169.5 141.6L155 141.6L155 183.0L144.2 183.0L144.2 141.6L129.7 141.6L129.7 132.7L169.5 132.7L169.5 141.6ZM212.4 183.0L206.3 183.0Q203.0 183.0 200.9 181.3Q198.9 179.6 198.6 176.4L198.6 176.4L198.2 176.4Q197.2 180.1 194.2 181.9Q191.2 183.8 186.9 183.8L186.9 183.8Q181.5 183.8 178.2 180.9Q174.9 178.0 174.9 172.7L174.9 172.7Q174.9 166.9 179.2 164.1Q183.4 161.3 191.6 161.3L191.6 161.3L197.6 161.3L197.6 159.4Q197.6 156.1 196.1 154.4Q194.5 152.7 190.9 152.7L190.9 152.7Q187.5 152.7 185.4 154.0Q183.3 155.3 181.8 157.4L181.8 157.4L176.0 152.2Q177.8 149.0 181.8 147.0Q185.8 144.9 192.1 144.9L192.1 144.9Q199.7 144.9 204.0 148.4Q208.3 151.9 208.3 159.0L208.3 159.0L208.3 175.2L212.4 175.2L212.4 183.0ZM190.9 176.8L190.9 176.8Q193.7 176.8 195.7 175.5Q197.6 174.1 197.6 171.5L197.6 171.5L197.6 167.0L191.9 167.0Q185.4 167.0 185.4 171.4L185.4 171.4L185.4 172.9Q185.4 174.8 186.9 175.8Q188.4 176.8 190.9 176.8ZM238.3 141.0L238.3 141.0Q234.7 141.0 233.3 139.6Q231.9 138.1 231.9 136.0L231.9 136.0L231.9 133.9Q231.9 131.8 233.3 130.3Q234.7 128.9 238.3 128.9L238.3 128.9Q241.9 128.9 243.3 130.3Q244.7 131.8 244.7 133.9L244.7 133.9L244.7 136.0Q244.7 138.1 243.3 139.6Q241.9 141.0 238.3 141.0ZM221.2 183.0L221.2 174.7L233.0 174.7L233.0 154.1L221.2 154.1L221.2 145.8L243.6 145.8L243.6 174.7L254.6 174.7L254.6 183.0L221.2 183.0ZM262.5 183.0L262.5 174.7L273.9 174.7L273.9 138.0L262.5 138.0L262.5 129.7L284.5 129.7L284.5 174.7L295.9 174.7L295.9 183.0L262.5 183.0ZM305.7 183.0L301.3 145.8L310.2 145.8L312.8 175.9L313.5 175.9L317.9 145.8L327.3 145.8L331.6 175.9L332.3 175.9L335.1 145.8L343.5 145.8L339.1 183.0L326.4 183.0L322.8 157.3L322.0 157.3L318.4 183.0L305.7 183.0ZM367.9 141.0L367.9 141.0Q364.3 141.0 362.9 139.6Q361.5 138.1 361.5 136.0L361.5 136.0L361.5 133.9Q361.5 131.8 362.9 130.3Q364.3 128.9 367.9 128.9L367.9 128.9Q371.5 128.9 372.9 130.3Q374.3 131.8 374.3 133.9L374.3 133.9L374.3 136.0Q374.3 138.1 372.9 139.6Q371.5 141.0 367.9 141.0ZM350.8 183.0L350.8 174.7L362.6 174.7L362.6 154.1L350.8 154.1L350.8 145.8L373.2 145.8L373.2 174.7L384.2 174.7L384.2 183.0L350.8 183.0ZM402.5 183.0L391.9 183.0L391.9 145.8L402.5 145.8L402.5 152.6L403.0 152.6Q403.6 151.0 404.6 149.6Q405.5 148.2 406.8 147.2Q408.2 146.2 409.9 145.5Q411.7 144.9 413.9 144.9L413.9 144.9Q416.6 144.9 418.8 145.8Q421.0 146.7 422.6 148.5Q424.2 150.3 425.1 152.9Q426.0 155.5 426.0 158.9L426.0 158.9L426.0 183.0L415.4 183.0L415.4 160.3Q415.4 153.1 409.1 153.1L409.1 153.1Q407.9 153.1 406.7 153.5Q405.5 153.8 404.6 154.5Q403.6 155.2 403.1 156.2Q402.5 157.2 402.5 158.5L402.5 158.5L402.5 183.0ZM458.7 183.0L458.7 176.2L458.2 176.2Q456.8 179.6 454.2 181.7Q451.6 183.8 447.2 183.8L447.2 183.8Q444.1 183.8 441.5 182.7Q439.0 181.5 437.1 179.1Q435.3 176.8 434.3 173.1Q433.2 169.4 433.2 164.4L433.2 164.4Q433.2 159.3 434.3 155.7Q435.3 152.0 437.1 149.6Q439.0 147.2 441.5 146.1Q444.1 144.9 447.2 144.9L447.2 144.9Q449.4 144.9 451.1 145.5Q452.9 146.1 454.2 147.1Q455.5 148.1 456.5 149.5Q457.5 150.9 458.2 152.6L458.2 152.6L458.7 152.6L458.7 129.7L469.4 129.7L469.4 183.0L458.7 183.0ZM451.8 175.5L451.8 175.5Q454.6 175.5 456.6 174.2Q458.7 172.8 458.7 169.8L458.7 169.8L458.7 158.9Q458.7 156.0 456.6 154.6Q454.6 153.2 451.8 153.2L451.8 153.2Q448.2 153.2 446.2 155.4Q444.3 157.6 444.3 161.5L444.3 161.5L444.3 167.3Q444.3 171.1 446.2 173.3Q448.2 175.5 451.8 175.5Z M558.3 141.6L543.8 141.6L543.8 183.0L533 183.0L533 141.6L518.5 141.6L518.5 132.7L558.3 132.7L558.3 141.6ZM585.4 161.4L591.0 145.8L601.8 145.8L584.3 188.9Q582.7 193.0 579.9 195.2Q577.2 197.4 572.5 197.4L572.5 197.4L565.1 197.4L565.1 189.1L574.0 189.1L576.3 182.7L561.4 145.8L572.8 145.8L578.2 161.4L581.6 172.2L582.2 172.2L585.4 161.4ZM607.4 197.4L607.4 145.8L618.1 145.8L618.1 152.6L618.6 152.6Q620.0 149.3 622.6 147.1Q625.2 144.9 629.6 144.9L629.6 144.9Q632.7 144.9 635.3 146.1Q637.8 147.2 639.7 149.6Q641.5 152.0 642.5 155.7Q643.6 159.3 643.6 164.4L643.6 164.4Q643.6 169.4 642.5 173.1Q641.5 176.8 639.7 179.1Q637.8 181.5 635.3 182.7Q632.7 183.8 629.6 183.8L629.6 183.8Q625.2 183.8 622.6 181.7Q620.0 179.6 618.6 176.2L618.6 176.2L618.1 176.2L618.1 197.4L607.4 197.4ZM625.0 175.5L625.0 175.5Q628.6 175.5 630.6 173.3Q632.5 171.1 632.5 167.3L632.5 167.3L632.5 161.5Q632.5 157.6 630.6 155.4Q628.6 153.2 625.0 153.2L625.0 153.2Q622.2 153.2 620.2 154.6Q618.1 156.0 618.1 158.9L618.1 158.9L618.1 169.8Q618.1 172.8 620.2 174.2Q622.2 175.5 625.0 175.5ZM668.0 183.8L668.0 183.8Q663.7 183.8 660.2 182.5Q656.8 181.2 654.4 178.6Q651.9 176.1 650.6 172.5Q649.4 168.9 649.4 164.4L649.4 164.4Q649.4 159.8 650.6 156.2Q651.9 152.6 654.4 150.1Q656.8 147.6 660.2 146.3Q663.7 144.9 668.0 144.9L668.0 144.9Q672.3 144.9 675.8 146.3Q679.2 147.6 681.6 150.1Q684.1 152.6 685.4 156.2Q686.6 159.8 686.6 164.4L686.6 164.4Q686.6 168.9 685.4 172.5Q684.1 176.1 681.6 178.6Q679.2 181.2 675.8 182.5Q672.3 183.8 668.0 183.8ZM668.0 175.9L668.0 175.9Q671.6 175.9 673.6 173.7Q675.6 171.4 675.6 167.3L675.6 167.3L675.6 161.4Q675.6 157.3 673.6 155.1Q671.6 152.9 668.0 152.9L668.0 152.9Q664.4 152.9 662.4 155.1Q660.4 157.3 660.4 161.4L660.4 161.4L660.4 167.3Q660.4 171.4 662.4 173.7Q664.4 175.9 668.0 175.9ZM731.6 186.7L731.6 186.7Q731.6 192.6 726.6 195.4Q721.6 198.2 711.0 198.2L711.0 198.2Q705.7 198.2 702.2 197.6Q698.7 197.0 696.7 195.8Q694.6 194.7 693.8 193.1Q693.0 191.5 693.0 189.6L693.0 189.6Q693.0 186.5 694.9 184.9Q696.7 183.2 700.1 182.4L700.1 182.4L700.1 181.9Q697.7 181.2 696.3 179.9Q694.9 178.6 694.9 176.1L694.9 176.1Q694.9 173.4 696.8 172.1Q698.6 170.8 701.6 170.1L701.6 170.1L701.6 169.6Q698.3 168.0 696.5 165.2Q694.6 162.3 694.6 158.2L694.6 158.2Q694.6 154.9 695.8 152.5Q696.9 150.0 699.1 148.3Q701.2 146.7 704.1 145.8Q707.1 144.9 710.8 144.9L710.8 144.9Q714.3 144.9 717.3 145.7L717.3 145.7L717.3 143.7Q717.3 141.6 718.8 140.1Q720.3 138.7 723.0 138.7L723.0 138.7L729.6 138.7L729.6 146.4L720.6 146.4L720.6 147.1Q723.7 148.7 725.3 151.5Q727.0 154.2 727.0 158.2L727.0 158.2Q727.0 161.4 725.9 163.9Q724.7 166.3 722.6 168.0Q720.4 169.7 717.4 170.6Q714.4 171.4 710.8 171.4L710.8 171.4Q709.1 171.4 707.6 171.3Q706.1 171.1 704.7 170.7L704.7 170.7Q703.9 171.1 703.4 171.8Q702.8 172.4 702.8 173.4L702.8 173.4Q702.8 174.3 703.3 174.8Q703.7 175.3 704.5 175.6Q705.2 175.8 706.2 175.9Q707.2 176.0 708.3 176.0L708.3 176.0L716.8 176.0Q720.8 176.0 723.6 176.8Q726.4 177.6 728.2 179.0Q730.0 180.4 730.8 182.4Q731.6 184.3 731.6 186.7ZM721.5 187.5L721.5 187.5Q721.5 186.0 720.3 185.2Q719.2 184.4 716.0 184.4L716.0 184.4L703.2 184.4Q701.8 185.6 701.8 187.4L701.8 187.4Q701.8 189.1 703.2 190.3Q704.7 191.4 708.2 191.4L708.2 191.4L714.5 191.4Q718.2 191.4 719.8 190.4Q721.5 189.4 721.5 187.5ZM710.8 164.7L710.8 164.7Q714.0 164.7 715.5 163.1Q717.0 161.5 717.0 159.0L717.0 159.0L717.0 157.3Q717.0 154.9 715.5 153.3Q714.0 151.7 710.8 151.7L710.8 151.7Q707.6 151.7 706.2 153.3Q704.7 154.9 704.7 157.3L704.7 157.3L704.7 159.0Q704.7 161.5 706.2 163.1Q707.6 164.7 710.8 164.7ZM738.1 183.0L738.1 174.7L746.7 174.7L746.7 154.1L738.1 154.1L738.1 145.8L757.4 145.8L757.4 156.3L757.9 156.3Q758.4 154.3 759.3 152.4Q760.2 150.5 761.6 149.0Q763.0 147.5 765.0 146.7Q767.0 145.8 769.7 145.8L769.7 145.8L773.3 145.8L773.3 155.6L765.3 155.6Q761.4 155.6 759.4 157.9Q757.4 160.3 757.4 163.7L757.4 163.7L757.4 174.7L769.6 174.7L769.6 183.0L738.1 183.0ZM817.2 183.0L811.1 183.0Q807.8 183.0 805.7 181.3Q803.7 179.6 803.4 176.4L803.4 176.4L803.0 176.4Q802.0 180.1 799.0 181.9Q796.0 183.8 791.7 183.8L791.7 183.8Q786.3 183.8 783.0 180.9Q779.7 178.0 779.7 172.7L779.7 172.7Q779.7 166.9 784.0 164.1Q788.2 161.3 796.4 161.3L796.4 161.3L802.4 161.3L802.4 159.4Q802.4 156.1 800.9 154.4Q799.3 152.7 795.7 152.7L795.7 152.7Q792.3 152.7 790.2 154.0Q788.1 155.3 786.6 157.4L786.6 157.4L780.8 152.2Q782.6 149.0 786.6 147.0Q790.6 144.9 796.9 144.9L796.9 144.9Q804.5 144.9 808.8 148.4Q813.1 151.9 813.1 159.0L813.1 159.0L813.1 175.2L817.2 175.2L817.2 183.0ZM795.7 176.8L795.7 176.8Q798.5 176.8 800.5 175.5Q802.4 174.1 802.4 171.5L802.4 171.5L802.4 167.0L796.7 167.0Q790.2 167.0 790.2 171.4L790.2 171.4L790.2 172.9Q790.2 174.8 791.7 175.8Q793.2 176.8 795.7 176.8ZM823.4 197.4L823.4 145.8L834.1 145.8L834.1 152.6L834.6 152.6Q836.0 149.3 838.6 147.1Q841.2 144.9 845.6 144.9L845.6 144.9Q848.7 144.9 851.3 146.1Q853.8 147.2 855.7 149.6Q857.5 152.0 858.5 155.7Q859.6 159.3 859.6 164.4L859.6 164.4Q859.6 169.4 858.5 173.1Q857.5 176.8 855.7 179.1Q853.8 181.5 851.3 182.7Q848.7 183.8 845.6 183.8L845.6 183.8Q841.2 183.8 838.6 181.7Q836.0 179.6 834.6 176.2L834.6 176.2L834.1 176.2L834.1 197.4L823.4 197.4ZM841.0 175.5L841.0 175.5Q844.6 175.5 846.6 173.3Q848.5 171.1 848.5 167.3L848.5 167.3L848.5 161.5Q848.5 157.6 846.6 155.4Q844.6 153.2 841.0 153.2L841.0 153.2Q838.2 153.2 836.2 154.6Q834.1 156.0 834.1 158.9L834.1 158.9L834.1 169.8Q834.1 172.8 836.2 174.2Q838.2 175.5 841.0 175.5ZM867.1 183.0L867.1 129.7L877.7 129.7L877.7 152.6L878.2 152.6Q878.8 151.0 879.8 149.6Q880.7 148.2 882.0 147.2Q883.4 146.2 885.1 145.5Q886.9 144.9 889.1 144.9L889.1 144.9Q891.8 144.9 894.0 145.8Q896.2 146.7 897.8 148.5Q899.4 150.3 900.3 152.9Q901.2 155.5 901.2 158.9L901.2 158.9L901.2 183.0L890.6 183.0L890.6 160.3Q890.6 153.1 884.3 153.1L884.3 153.1Q883.1 153.1 881.9 153.5Q880.7 153.8 879.8 154.5Q878.8 155.2 878.3 156.2Q877.7 157.2 877.7 158.5L877.7 158.5L877.7 183.0L867.1 183.0ZM931.0 161.4L936.6 145.8L947.4 145.8L929.9 188.9Q928.3 193.0 925.5 195.2Q922.8 197.4 918.1 197.4L918.1 197.4L910.7 197.4L910.7 189.1L919.6 189.1L921.9 182.7L907.0 145.8L918.4 145.8L923.8 161.4L927.2 172.2L927.8 172.2L931.0 161.4Z M144.3 276.6L133.5 276.6L133.5 226.3L152.9 226.3Q156.6 226.3 159.5 227.4Q162.3 228.5 164.3 230.6Q166.3 232.7 167.3 235.7Q168.3 238.6 168.3 242.3L168.3 242.3Q168.3 246.0 167.3 248.9Q166.3 251.9 164.3 253.9Q162.3 256.0 159.5 257.1Q156.6 258.3 152.9 258.3L152.9 258.3L144.3 258.3L144.3 276.6ZM144.3 235.0L144.3 249.6L150.2 249.6Q154.0 249.6 155.5 248.1Q156.9 246.7 156.9 243.4L156.9 243.4L156.9 241.2Q156.9 237.9 155.5 236.4Q154.0 235.0 150.2 235.0L150.2 235.0L144.3 235.0ZM176.1 276.6L176.1 268.3L187.5 268.3L187.5 231.6L176.1 231.6L176.1 223.3L198.1 223.3L198.1 268.3L209.5 268.3L209.5 276.6L176.1 276.6ZM242.3 276.6L242.3 269.8L241.8 269.8Q240.6 273.0 238.0 275.2Q235.4 277.4 230.9 277.4L230.9 277.4Q228.2 277.4 226.0 276.5Q223.8 275.6 222.2 273.8Q220.6 272.0 219.7 269.4Q218.8 266.8 218.8 263.4L218.8 263.4L218.8 239.4L229.4 239.4L229.4 262.0Q229.4 269.2 235.7 269.2L235.7 269.2Q236.9 269.2 238.1 268.9Q239.3 268.6 240.2 267.9Q241.1 267.2 241.7 266.2Q242.3 265.2 242.3 263.8L242.3 263.8L242.3 239.4L252.9 239.4L252.9 276.6L242.3 276.6ZM299.6 280.3L299.6 280.3Q299.6 286.2 294.6 289.0Q289.6 291.8 279.0 291.8L279.0 291.8Q273.7 291.8 270.2 291.2Q266.7 290.6 264.7 289.4Q262.6 288.3 261.8 286.7Q261.0 285.1 261.0 283.2L261.0 283.2Q261.0 280.1 262.9 278.5Q264.7 276.8 268.1 276.0L268.1 276.0L268.1 275.5Q265.7 274.8 264.3 273.5Q262.9 272.2 262.9 269.7L262.9 269.7Q262.9 267.0 264.8 265.7Q266.6 264.4 269.6 263.7L269.6 263.7L269.6 263.2Q266.3 261.6 264.5 258.8Q262.6 255.9 262.6 251.8L262.6 251.8Q262.6 248.5 263.8 246.1Q264.9 243.6 267.1 241.9Q269.2 240.3 272.1 239.4Q275.1 238.5 278.8 238.5L278.8 238.5Q282.3 238.5 285.3 239.3L285.3 239.3L285.3 237.3Q285.3 235.2 286.8 233.7Q288.3 232.3 291.0 232.3L291.0 232.3L297.6 232.3L297.6 240.0L288.6 240.0L288.6 240.7Q291.7 242.3 293.3 245.1Q295.0 247.8 295.0 251.8L295.0 251.8Q295.0 255.0 293.9 257.5Q292.7 259.9 290.6 261.6Q288.4 263.3 285.4 264.2Q282.4 265.0 278.8 265.0L278.8 265.0Q277.1 265.0 275.6 264.9Q274.1 264.7 272.7 264.3L272.7 264.3Q271.9 264.7 271.4 265.4Q270.8 266.0 270.8 267.0L270.8 267.0Q270.8 267.9 271.3 268.4Q271.7 268.9 272.5 269.2Q273.2 269.4 274.2 269.5Q275.2 269.6 276.3 269.6L276.3 269.6L284.8 269.6Q288.8 269.6 291.6 270.4Q294.4 271.2 296.2 272.6Q298.0 274.0 298.8 276.0Q299.6 277.9 299.6 280.3ZM289.5 281.1L289.5 281.1Q289.5 279.6 288.3 278.8Q287.2 278.0 284.0 278.0L284.0 278.0L271.2 278.0Q269.8 279.2 269.8 281.0L269.8 281.0Q269.8 282.7 271.2 283.9Q272.7 285.0 276.2 285.0L276.2 285.0L282.5 285.0Q286.2 285.0 287.8 284.0Q289.5 283.0 289.5 281.1ZM278.8 258.3L278.8 258.3Q282.0 258.3 283.5 256.7Q285.0 255.1 285.0 252.6L285.0 252.6L285.0 250.9Q285.0 248.5 283.5 246.9Q282.0 245.3 278.8 245.3L278.8 245.3Q275.6 245.3 274.2 246.9Q272.7 248.5 272.7 250.9L272.7 250.9L272.7 252.6Q272.7 255.1 274.2 256.7Q275.6 258.3 278.8 258.3ZM324.7 234.6L324.7 234.6Q321.1 234.6 319.7 233.2Q318.3 231.7 318.3 229.6L318.3 229.6L318.3 227.5Q318.3 225.4 319.7 223.9Q321.1 222.5 324.7 222.5L324.7 222.5Q328.3 222.5 329.7 223.9Q331.1 225.4 331.1 227.5L331.1 227.5L331.1 229.6Q331.1 231.7 329.7 233.2Q328.3 234.6 324.7 234.6ZM307.6 276.6L307.6 268.3L319.4 268.3L319.4 247.7L307.6 247.7L307.6 239.4L330.0 239.4L330.0 268.3L341.0 268.3L341.0 276.6L307.6 276.6ZM359.3 276.6L348.7 276.6L348.7 239.4L359.3 239.4L359.3 246.2L359.8 246.2Q360.4 244.6 361.4 243.2Q362.3 241.8 363.6 240.8Q365.0 239.8 366.7 239.1Q368.5 238.5 370.7 238.5L370.7 238.5Q373.4 238.5 375.6 239.4Q377.8 240.3 379.4 242.1Q381.0 243.9 381.9 246.5Q382.8 249.1 382.8 252.5L382.8 252.5L382.8 276.6L372.2 276.6L372.2 253.9Q372.2 246.7 365.9 246.7L365.9 246.7Q364.7 246.7 363.5 247.1Q362.3 247.4 361.4 248.1Q360.4 248.8 359.9 249.8Q359.3 250.8 359.3 252.1L359.3 252.1L359.3 276.6Z " clip-path="url(#satori_cp-id-1-0-0)" mask="url(#satori_om-id-1-0-0)"/><path fill="black" d="M130.7 520.3L130.7 499.6L132.9 499.6L132.9 508.2L133.0 508.2Q134.4 505.5 137.5 505.5L137.5 505.5Q140.1 505.5 141.6 507.5Q143.1 509.5 143.1 513.0L143.1 513.0Q143.1 516.6 141.6 518.6Q140.1 520.6 137.5 520.6L137.5 520.6Q134.4 520.6 133.0 517.9L133.0 517.9L132.9 517.9L132.9 520.3L130.7 520.3ZM136.6 518.6L136.6 518.6Q138.6 518.6 139.6 517.4Q140.7 516.2 140.7 514.3L140.7 514.3L140.7 511.8Q140.7 509.9 139.6 508.7Q138.6 507.5 136.6 507.5L136.6 507.5Q135.8 507.5 135.2 507.7Q134.5 507.9 134.0 508.2Q133.5 508.6 133.2 509.2Q132.9 509.7 132.9 510.4L132.9 510.4L132.9 515.7Q132.9 516.4 133.2 516.9Q133.5 517.5 134.0 517.8Q134.5 518.2 135.2 518.4Q135.8 518.6 136.6 518.6ZM155.4 511.9L157.9 505.8L160.1 505.8L152.9 523.4Q152.7 524.1 152.4 524.5Q152.1 525.0 151.7 525.3Q151.2 525.6 150.7 525.7Q150.1 525.9 149.3 525.9L149.3 525.9L147.1 525.9L147.1 524.0L150.5 524.0L152.1 520.0L146.3 505.8L148.6 505.8L151.0 511.9L153.2 517.4L153.3 517.4L155.4 511.9Z "/><clipPath id="satori_cp-id-1-0-1-0-2"><rect x="178" y="489" width="151" height="36"/></clipPath><mask id="satori_om-id-1-0-1-0-2"><rect x="178" y="489" width="151" height="36" fill="#fff"/></mask><path fill="black" d="M186.1 520.4L186.1 520.4Q183.6 520.4 181.8 519.6Q180.0 518.8 178.9 517.4L178.9 517.4L181.3 514.7Q182.4 515.9 183.6 516.5Q184.9 517.0 186.2 517.0L186.2 517.0Q187.7 517.0 188.5 516.3Q189.3 515.7 189.3 514.4L189.3 514.4Q189.3 513.4 188.7 512.8Q188.1 512.3 186.7 512.1L186.7 512.1L184.6 511.7Q182.0 511.3 180.8 509.8Q179.7 508.3 179.7 506.1L179.7 506.1Q179.7 503.3 181.5 501.8Q183.3 500.2 186.7 500.2L186.7 500.2Q188.9 500.2 190.6 500.9Q192.3 501.6 193.3 502.8L193.3 502.8L191.0 505.5Q190.2 504.6 189.1 504.1Q188.1 503.6 186.7 503.6L186.7 503.6Q183.9 503.6 183.9 506.0L183.9 506.0Q183.9 507.0 184.5 507.5Q185.1 508.0 186.6 508.2L186.6 508.2L188.6 508.6Q191.0 509.0 192.3 510.4Q193.6 511.7 193.6 514.1L193.6 514.1Q193.6 515.4 193.1 516.6Q192.6 517.8 191.7 518.6Q190.7 519.5 189.3 520.0Q187.9 520.4 186.1 520.4ZM210.8 520.1L208.4 520.1Q207.1 520.1 206.4 519.4Q205.6 518.8 205.4 517.5L205.4 517.5L205.3 517.5Q204.9 519.0 203.7 519.7Q202.6 520.4 200.9 520.4L200.9 520.4Q198.8 520.4 197.5 519.3Q196.3 518.2 196.3 516.1L196.3 516.1Q196.3 513.8 197.9 512.8Q199.6 511.7 202.8 511.7L202.8 511.7L205.1 511.7L205.1 510.9Q205.1 509.6 204.5 509.0Q203.9 508.3 202.4 508.3L202.4 508.3Q201.1 508.3 200.3 508.8Q199.5 509.3 198.9 510.2L198.9 510.2L196.6 508.1Q197.4 506.9 198.9 506.1Q200.5 505.3 202.9 505.3L202.9 505.3Q205.9 505.3 207.6 506.7Q209.2 508.0 209.2 510.8L209.2 510.8L209.2 517.1L210.8 517.1L210.8 520.1ZM202.5 517.7L202.5 517.7Q203.6 517.7 204.3 517.2Q205.1 516.6 205.1 515.6L205.1 515.6L205.1 513.9L202.9 513.9Q200.3 513.9 200.3 515.6L200.3 515.6L200.3 516.2Q200.3 516.9 200.9 517.3Q201.5 517.7 202.5 517.7ZM226.5 520.1L221.1 520.1Q218.9 520.1 217.8 518.9Q216.7 517.7 216.7 515.9L216.7 515.9L216.7 508.9L212.8 508.9L212.8 505.6L215.3 505.6Q216.2 505.6 216.6 505.3Q217.0 504.9 217.0 503.9L217.0 503.9L217.0 500.5L220.8 500.5L220.8 505.6L226.5 505.6L226.5 508.9L220.8 508.9L220.8 516.9L226.5 516.9L226.5 520.1Z M255.3 520.1L250.8 507.1L250.5 507.1L250.5 520.1L246.9 520.1L246.9 500.5L251.9 500.5L256.4 513.5L256.7 513.5L256.7 500.5L260.3 500.5L260.3 520.1L255.3 520.1ZM278.0 520.1L275.6 520.1Q274.3 520.1 273.6 519.4Q272.8 518.8 272.6 517.5L272.6 517.5L272.5 517.5Q272.1 519.0 270.9 519.7Q269.8 520.4 268.1 520.4L268.1 520.4Q266.0 520.4 264.7 519.3Q263.5 518.2 263.5 516.1L263.5 516.1Q263.5 513.8 265.1 512.8Q266.8 511.7 270.0 511.7L270.0 511.7L272.3 511.7L272.3 510.9Q272.3 509.6 271.7 509.0Q271.1 508.3 269.6 508.3L269.6 508.3Q268.3 508.3 267.5 508.8Q266.7 509.3 266.1 510.2L266.1 510.2L263.8 508.1Q264.6 506.9 266.1 506.1Q267.7 505.3 270.1 505.3L270.1 505.3Q273.1 505.3 274.8 506.7Q276.4 508.0 276.4 510.8L276.4 510.8L276.4 517.1L278.0 517.1L278.0 520.1ZM269.7 517.7L269.7 517.7Q270.8 517.7 271.5 517.2Q272.3 516.6 272.3 515.6L272.3 515.6L272.3 513.9L270.1 513.9Q267.5 513.9 267.5 515.6L267.5 515.6L267.5 516.2Q267.5 516.9 268.1 517.3Q268.7 517.7 269.7 517.7ZM288.1 503.8L288.1 503.8Q286.7 503.8 286.2 503.2Q285.6 502.6 285.6 501.8L285.6 501.8L285.6 501.0Q285.6 500.2 286.2 499.6Q286.7 499.1 288.1 499.1L288.1 499.1Q289.5 499.1 290.0 499.6Q290.6 500.2 290.6 501.0L290.6 501.0L290.6 501.8Q290.6 502.6 290.0 503.2Q289.5 503.8 288.1 503.8ZM281.4 520.1L281.4 516.9L286.0 516.9L286.0 508.9L281.4 508.9L281.4 505.6L290.2 505.6L290.2 516.9L294.4 516.9L294.4 520.1L281.4 520.1ZM301.6 520.1L297.4 520.1L297.4 505.6L301.6 505.6L301.6 508.3L301.7 508.3Q302.0 507.7 302.3 507.1Q302.7 506.6 303.2 506.2Q303.7 505.8 304.4 505.5Q305.1 505.3 306.0 505.3L306.0 505.3Q307.0 505.3 307.9 505.7Q308.8 506.0 309.4 506.7Q310.0 507.4 310.3 508.4Q310.7 509.4 310.7 510.7L310.7 510.7L310.7 520.1L306.5 520.1L306.5 511.3Q306.5 508.5 304.1 508.5L304.1 508.5Q303.6 508.5 303.2 508.6Q302.7 508.8 302.3 509.0Q302.0 509.3 301.8 509.7Q301.6 510.1 301.6 510.6L301.6 510.6L301.6 520.1ZM328.7 521.5L328.7 521.5Q328.7 523.8 326.8 524.9Q324.9 526.0 320.7 526.0L320.7 526.0Q318.6 526.0 317.3 525.8Q316.0 525.6 315.2 525.1Q314.4 524.7 314.0 524.0Q313.7 523.4 313.7 522.7L313.7 522.7Q313.7 521.5 314.4 520.8Q315.2 520.2 316.5 519.9L316.5 519.9L316.5 519.7Q315.6 519.4 315.0 518.9Q314.5 518.4 314.5 517.4L314.5 517.4Q314.5 516.4 315.2 515.9Q315.9 515.4 317.1 515.1L317.1 515.1L317.1 514.9Q315.8 514.3 315.1 513.2Q314.4 512.1 314.4 510.5L314.4 510.5Q314.4 509.2 314.8 508.2Q315.3 507.3 316.1 506.6Q316.9 506.0 318.1 505.6Q319.2 505.3 320.6 505.3L320.6 505.3Q322.0 505.3 323.2 505.6L323.2 505.6L323.2 504.8Q323.2 504.0 323.8 503.4Q324.4 502.9 325.4 502.9L325.4 502.9L327.9 502.9L327.9 505.9L324.5 505.9L324.5 506.1Q325.6 506.8 326.3 507.8Q327.0 508.9 327.0 510.5L327.0 510.5Q327.0 511.7 326.5 512.7Q326.1 513.6 325.2 514.3Q324.4 514.9 323.2 515.3Q322.1 515.6 320.6 515.6L320.6 515.6Q320.0 515.6 319.4 515.5Q318.8 515.5 318.3 515.3L318.3 515.3Q318.0 515.5 317.8 515.8Q317.6 516.0 317.6 516.4L317.6 516.4Q317.6 516.7 317.7 516.9Q317.9 517.1 318.2 517.2Q318.5 517.3 318.9 517.3Q319.3 517.4 319.7 517.4L319.7 517.4L323.0 517.4Q324.5 517.4 325.6 517.7Q326.7 518.0 327.4 518.6Q328.1 519.1 328.4 519.9Q328.7 520.6 328.7 521.5ZM324.8 521.9L324.8 521.9Q324.8 521.3 324.4 521.0Q323.9 520.7 322.6 520.7L322.6 520.7L317.7 520.7Q317.1 521.1 317.1 521.8L317.1 521.8Q317.1 522.5 317.7 522.9Q318.3 523.4 319.7 523.4L319.7 523.4L322.1 523.4Q323.5 523.4 324.2 523.0Q324.8 522.6 324.8 521.9ZM320.6 513.0L320.6 513.0Q321.9 513.0 322.5 512.4Q323.0 511.7 323.0 510.8L323.0 510.8L323.0 510.1Q323.0 509.2 322.5 508.6Q321.9 507.9 320.6 507.9L320.6 507.9Q319.4 507.9 318.8 508.6Q318.3 509.2 318.3 510.1L318.3 510.1L318.3 510.8Q318.3 511.7 318.8 512.4Q319.4 513.0 320.6 513.0Z " clip-path="url(#satori_cp-id-1-0-1-0-2)" mask="url(#satori_om-id-1-0-1-0-2)"/><clipPath id="satori_cp-id-1-0-1-1"><rect x="903" y="489" width="168" height="36"/></clipPath><mask id="satori_om-id-1-0-1-1"><rect x="903" y="489" width="168" height="36" fill="#fff"/></mask><path fill="black" d="M919.7 520.1L915.2 520.1L913.9 515.4L908.6 515.4L907.4 520.1L903.1 520.1L908.4 500.5L914.4 500.5L919.7 520.1ZM913.3 512.0L911.4 504.6L911.2 504.6L909.3 512.0L913.3 512.0ZM928.0 520.4L928.0 520.4Q925.6 520.4 923.8 519.7Q922.1 519.0 921.2 517.7L921.2 517.7L923.5 515.6Q924.3 516.5 925.5 517.0Q926.6 517.5 928.1 517.5L928.1 517.5Q929.3 517.5 930.0 517.1Q930.7 516.8 930.7 516.0L930.7 516.0Q930.7 515.4 930.2 515.1Q929.7 514.9 928.9 514.7L928.9 514.7L926.6 514.4Q925.6 514.2 924.8 513.9Q923.9 513.7 923.3 513.1Q922.7 512.6 922.3 511.9Q922.0 511.2 922.0 510.2L922.0 510.2Q922.0 507.9 923.7 506.6Q925.4 505.3 928.6 505.3L928.6 505.3Q930.7 505.3 932.2 505.9Q933.7 506.5 934.6 507.5L934.6 507.5L932.5 509.9Q931.9 509.2 930.9 508.7Q929.9 508.2 928.4 508.2L928.4 508.2Q926.0 508.2 926.0 509.7L926.0 509.7Q926.0 510.3 926.5 510.6Q927.0 510.8 927.8 510.9L927.8 510.9L930.1 511.3Q931.1 511.4 931.9 511.7Q932.8 512.0 933.4 512.5Q934.0 513.0 934.4 513.8Q934.8 514.5 934.8 515.5L934.8 515.5Q934.8 517.8 933.0 519.1Q931.3 520.4 928.0 520.4ZM951.5 520.1L946.1 520.1Q943.9 520.1 942.8 518.9Q941.7 517.7 941.7 515.9L941.7 515.9L941.7 508.9L937.8 508.9L937.8 505.6L940.3 505.6Q941.2 505.6 941.6 505.3Q942.0 504.9 942.0 503.9L942.0 503.9L942.0 500.5L945.8 500.5L945.8 505.6L951.5 505.6L951.5 508.9L945.8 508.9L945.8 516.9L951.5 516.9L951.5 520.1ZM955.5 520.1L955.5 516.9L958.8 516.9L958.8 508.9L955.5 508.9L955.5 505.6L962.9 505.6L962.9 509.7L963.1 509.7Q963.3 508.9 963.7 508.2Q964.0 507.5 964.6 506.9Q965.1 506.3 965.9 506.0Q966.7 505.6 967.8 505.6L967.8 505.6L969.1 505.6L969.1 509.5L966.1 509.5Q964.5 509.5 963.7 510.4Q962.9 511.3 962.9 512.6L962.9 512.6L962.9 516.9L967.7 516.9L967.7 520.1L955.5 520.1ZM978.6 520.4L978.6 520.4Q976.9 520.4 975.6 519.9Q974.2 519.4 973.3 518.4Q972.4 517.4 971.9 516.0Q971.3 514.6 971.3 512.9L971.3 512.9Q971.3 511.1 971.9 509.7Q972.4 508.3 973.3 507.3Q974.2 506.3 975.6 505.8Q976.9 505.3 978.6 505.3L978.6 505.3Q980.3 505.3 981.6 505.8Q983.0 506.3 983.9 507.3Q984.8 508.3 985.3 509.7Q985.9 511.1 985.9 512.9L985.9 512.9Q985.9 514.6 985.3 516.0Q984.8 517.4 983.9 518.4Q983.0 519.4 981.6 519.9Q980.3 520.4 978.6 520.4ZM978.6 517.3L978.6 517.3Q980.0 517.3 980.8 516.5Q981.6 515.6 981.6 514.0L981.6 514.0L981.6 511.7Q981.6 510.1 980.8 509.3Q980.0 508.4 978.6 508.4L978.6 508.4Q977.2 508.4 976.4 509.3Q975.6 510.1 975.6 511.7L975.6 511.7L975.6 514.0Q975.6 515.6 976.4 516.5Q977.2 517.3 978.6 517.3ZM993.4 520.1L989.1 520.1L989.1 500.5L996.7 500.5Q998.1 500.5 999.2 501.0Q1000.4 501.4 1001.1 502.2Q1001.9 503.0 1002.3 504.2Q1002.7 505.3 1002.7 506.8L1002.7 506.8Q1002.7 508.2 1002.3 509.3Q1001.9 510.5 1001.1 511.3Q1000.4 512.1 999.2 512.5Q998.1 513.0 996.7 513.0L996.7 513.0L993.4 513.0L993.4 520.1ZM993.4 503.9L993.4 509.6L995.6 509.6Q997.1 509.6 997.7 509.0Q998.3 508.5 998.3 507.2L998.3 507.2L998.3 506.3Q998.3 505.1 997.7 504.5Q997.1 503.9 995.6 503.9L995.6 503.9L993.4 503.9ZM1019.8 520.1L1017.4 520.1Q1016.1 520.1 1015.4 519.4Q1014.6 518.8 1014.4 517.5L1014.4 517.5L1014.3 517.5Q1013.9 519.0 1012.7 519.7Q1011.6 520.4 1009.9 520.4L1009.9 520.4Q1007.8 520.4 1006.5 519.3Q1005.3 518.2 1005.3 516.1L1005.3 516.1Q1005.3 513.8 1006.9 512.8Q1008.6 511.7 1011.8 511.7L1011.8 511.7L1014.1 511.7L1014.1 510.9Q1014.1 509.6 1013.5 509.0Q1012.9 508.3 1011.4 508.3L1011.4 508.3Q1010.1 508.3 1009.3 508.8Q1008.5 509.3 1007.9 510.2L1007.9 510.2L1005.6 508.1Q1006.4 506.9 1007.9 506.1Q1009.5 505.3 1011.9 505.3L1011.9 505.3Q1014.9 505.3 1016.6 506.7Q1018.2 508.0 1018.2 510.8L1018.2 510.8L1018.2 517.1L1019.8 517.1L1019.8 520.1ZM1011.5 517.7L1011.5 517.7Q1012.6 517.7 1013.3 517.2Q1014.1 516.6 1014.1 515.6L1014.1 515.6L1014.1 513.9L1011.9 513.9Q1009.3 513.9 1009.3 515.6L1009.3 515.6L1009.3 516.2Q1009.3 516.9 1009.9 517.3Q1010.5 517.7 1011.5 517.7ZM1022.3 525.7L1022.3 505.6L1026.4 505.6L1026.4 508.3L1026.6 508.3Q1027.1 507.0 1028.1 506.1Q1029.1 505.3 1030.9 505.3L1030.9 505.3Q1032.1 505.3 1033.1 505.8Q1034.1 506.2 1034.8 507.1Q1035.5 508.1 1035.9 509.5Q1036.3 510.9 1036.3 512.9L1036.3 512.9Q1036.3 514.8 1035.9 516.3Q1035.5 517.7 1034.8 518.6Q1034.1 519.5 1033.1 520.0Q1032.1 520.4 1030.9 520.4L1030.9 520.4Q1029.1 520.4 1028.1 519.6Q1027.1 518.8 1026.6 517.5L1026.6 517.5L1026.4 517.5L1026.4 525.7L1022.3 525.7ZM1029.1 517.2L1029.1 517.2Q1030.5 517.2 1031.2 516.4Q1032.0 515.5 1032.0 514.0L1032.0 514.0L1032.0 511.7Q1032.0 510.2 1031.2 509.4Q1030.5 508.5 1029.1 508.5L1029.1 508.5Q1028.0 508.5 1027.2 509.1Q1026.4 509.6 1026.4 510.7L1026.4 510.7L1026.4 515.0Q1026.4 516.1 1027.2 516.7Q1028.0 517.2 1029.1 517.2ZM1046.2 520.4L1046.2 520.4Q1042.6 520.4 1040.7 518.4Q1038.8 516.4 1038.8 512.9L1038.8 512.9Q1038.8 511.2 1039.3 509.7Q1039.8 508.3 1040.7 507.3Q1041.6 506.3 1042.9 505.8Q1044.2 505.3 1045.8 505.3L1045.8 505.3Q1047.5 505.3 1048.7 505.8Q1050.0 506.3 1050.9 507.3Q1051.8 508.2 1052.3 509.6Q1052.8 511.0 1052.8 512.6L1052.8 512.6L1052.8 513.9L1042.9 513.9L1042.9 514.1Q1042.9 515.5 1043.8 516.4Q1044.7 517.2 1046.3 517.2L1046.3 517.2Q1047.6 517.2 1048.5 516.7Q1049.5 516.3 1050.1 515.4L1050.1 515.4L1052.4 517.9Q1051.5 518.9 1050.0 519.7Q1048.5 520.4 1046.2 520.4ZM1045.9 508.3L1045.9 508.3Q1044.5 508.3 1043.7 509.1Q1042.9 509.9 1042.9 511.3L1042.9 511.3L1042.9 511.6L1048.7 511.6L1048.7 511.3Q1048.7 509.9 1048.0 509.1Q1047.2 508.3 1045.9 508.3ZM1056.3 520.1L1056.3 516.9L1059.6 516.9L1059.6 508.9L1056.3 508.9L1056.3 505.6L1063.7 505.6L1063.7 509.7L1063.9 509.7Q1064.1 508.9 1064.5 508.2Q1064.8 507.5 1065.4 506.9Q1065.9 506.3 1066.7 506.0Q1067.5 505.6 1068.6 505.6L1068.6 505.6L1069.9 505.6L1069.9 509.5L1066.9 509.5Q1065.3 509.5 1064.5 510.4Q1063.7 511.3 1063.7 512.6L1063.7 512.6L1063.7 516.9L1068.5 516.9L1068.5 520.1L1056.3 520.1Z " clip-path="url(#satori_cp-id-1-0-1-1)" mask="url(#satori_om-id-1-0-1-1)"/></svg>